<svg width="16" height="16" viewBox="0 0 16 16" fill="none" xmlns="http://www.w3.org/2000/svg">
<path d="M13.9969 5.45409C13.9956 4.88101 14.0092 4.30837 13.9755 3.73486C13.9177 2.74737 13.4273 2.05768 12.5468 1.62853C12.0105 1.36713 11.4334 1.23188 10.845 1.13868C10.1164 1.02294 9.38175 1.0108 8.64751 1.00213C8.10548 0.996065 7.56345 1.0043 7.02142 1.00994C6.38569 1.01644 5.75565 1.06412 5.12912 1.16859C4.43034 1.28564 3.75696 1.47551 3.15057 1.85221C2.83489 2.04815 2.57394 2.29827 2.37254 2.61255C2.07613 3.07509 2.00345 3.58964 2.00258 4.11807C1.9982 6.33928 2.00083 8.56049 2.00039 10.7821C2.00039 10.9646 2.01702 11.1467 2.04548 11.3253C2.23025 12.4931 3.08839 13.3441 4.26791 13.537C4.35109 13.5508 4.43516 13.5612 4.53148 13.569C4.4947 13.6258 4.4588 13.6549 4.42684 13.687C4.15407 13.9579 3.87999 14.2267 3.60854 14.4989C3.47587 14.632 3.44829 14.8205 3.53016 15H5.21318C5.27973 14.9671 5.33402 14.9189 5.38612 14.8669C5.78499 14.4707 6.18691 14.0767 6.58359 13.6779C6.66765 13.5933 6.75697 13.5582 6.87606 13.5591C7.68035 13.5625 8.48464 13.5625 9.28893 13.5591C9.40846 13.5586 9.49734 13.5933 9.58141 13.6779C9.97808 14.0767 10.3796 14.4703 10.7789 14.8669C10.831 14.9189 10.8853 14.9671 10.9518 15H12.4693C12.5512 14.8201 12.5236 14.632 12.391 14.4989C12.1129 14.2206 11.8318 13.9453 11.5534 13.6674C11.5267 13.6406 11.4855 13.6211 11.4855 13.5673C11.6357 13.5578 11.7802 13.5335 11.9234 13.5006C12.4912 13.3692 12.9685 13.0879 13.3502 12.6492C13.8152 12.1151 13.9969 11.484 13.9982 10.7938C14.0013 9.01392 14.0022 7.234 13.9974 5.45452L13.9969 5.45409ZM4.64926 12.0527C4.03848 12.0497 3.53104 11.5442 3.53804 10.9469C3.54505 10.3413 4.05425 9.84145 4.65801 9.84752C5.27316 9.85403 5.76922 10.3499 5.7666 10.9551C5.76397 11.5633 5.26178 12.0557 4.64926 12.0527ZM7.25784 6.78968C7.25828 6.88938 7.22632 6.90759 7.1335 6.90715C6.55469 6.90325 5.97588 6.90498 5.39663 6.90498C4.8222 6.90498 4.2482 6.90282 3.67377 6.90715C3.57132 6.90802 3.53235 6.89025 3.53323 6.77537C3.53848 5.87934 3.53804 4.98288 3.53367 4.08686C3.53323 3.98672 3.55512 3.95768 3.66107 3.95811C4.8187 3.96245 5.97675 3.96158 7.13438 3.95854C7.22632 3.95854 7.25828 3.97415 7.25741 4.07429C7.25303 4.97942 7.25303 5.88498 7.25741 6.79011L7.25784 6.78968ZM11.3402 12.0527C10.7268 12.0497 10.229 11.5524 10.2325 10.946C10.236 10.3413 10.7473 9.83885 11.3507 9.84752C11.9636 9.85619 12.4689 10.3612 12.4606 10.9568C12.4523 11.5659 11.9509 12.0557 11.3402 12.0527ZM12.4641 6.78187C12.4641 6.87161 12.4479 6.90759 12.3459 6.90759C11.1834 6.90412 10.021 6.90455 8.85855 6.90672C8.77405 6.90672 8.74033 6.89285 8.74077 6.79705C8.74471 5.88715 8.74471 4.97725 8.74077 4.06735C8.74077 3.97328 8.77142 3.95811 8.85636 3.95854C9.43999 3.96201 10.0232 3.96028 10.6068 3.96028C11.1904 3.96028 11.7644 3.96245 12.3437 3.95811C12.4413 3.95724 12.4645 3.98499 12.4645 4.07949C12.461 4.98028 12.4606 5.88108 12.4641 6.78187Z" fill="#606060"/>
</svg>
