<svg width="16" height="16" viewBox="0 0 16 16" fill="none" xmlns="http://www.w3.org/2000/svg">
<path d="M14.4996 11.233V13.19C14.5003 13.3717 14.463 13.5515 14.3901 13.718C14.3172 13.8845 14.2102 14.0339 14.0761 14.1567C13.942 14.2795 13.7836 14.373 13.6111 14.4312C13.4387 14.4894 13.256 14.5111 13.0747 14.4947C11.0633 14.2766 9.13128 13.5907 7.43379 12.492C5.85449 11.4905 4.51552 10.1541 3.51197 8.57797C2.40731 6.87614 1.71986 4.93855 1.50531 2.92217C1.48897 2.74177 1.51045 2.55996 1.56838 2.38831C1.62631 2.21665 1.71942 2.05892 1.84178 1.92514C1.96413 1.79137 2.11306 1.68449 2.27907 1.6113C2.44509 1.53812 2.62455 1.50023 2.80604 1.50006H4.76695C5.08417 1.49695 5.39169 1.60906 5.63221 1.81549C5.87273 2.02193 6.02983 2.30861 6.07422 2.62209C6.15699 3.24838 6.31048 3.86332 6.53177 4.45517C6.61971 4.68866 6.63875 4.94241 6.58661 5.18637C6.53448 5.43032 6.41337 5.65425 6.23763 5.83161L5.40751 6.66008C6.338 8.29325 7.69292 9.64549 9.32933 10.5741L10.1595 9.74566C10.3372 9.57027 10.5615 9.4494 10.806 9.39737C11.0504 9.34534 11.3047 9.36434 11.5386 9.45211C12.1317 9.67296 12.7478 9.82614 13.3753 9.90874C13.6929 9.95345 13.9828 10.1131 14.1901 10.3572C14.3974 10.6014 14.5076 10.9131 14.4996 11.233Z" stroke="#606060" stroke-linecap="round" stroke-linejoin="round"/>
</svg>
