<svg width="41" height="42" viewBox="0 0 41 42" fill="none" xmlns="http://www.w3.org/2000/svg">
<path d="M5.59773 38.144C4.74173 38.144 3.98573 37.96 3.32973 37.592C2.67373 37.216 2.15773 36.704 1.78173 36.056C1.41373 35.4 1.22973 34.652 1.22973 33.812C1.22973 32.956 1.41373 32.204 1.78173 31.556C2.15773 30.9 2.67373 30.388 3.32973 30.02C3.98573 29.644 4.74173 29.456 5.59773 29.456C6.04573 29.456 6.48173 29.532 6.90574 29.684C7.32973 29.828 7.71773 30.028 8.06974 30.284C8.42173 30.54 8.70573 30.832 8.92173 31.16L8.11773 31.712C7.95773 31.456 7.74173 31.228 7.46973 31.028C7.19773 30.82 6.89773 30.66 6.56973 30.548C6.24973 30.436 5.92573 30.38 5.59773 30.38C4.94973 30.38 4.37373 30.528 3.86973 30.824C3.36573 31.112 2.96973 31.512 2.68173 32.024C2.39373 32.536 2.24973 33.132 2.24973 33.812C2.24973 34.468 2.38973 35.056 2.66973 35.576C2.95773 36.088 3.35373 36.492 3.85773 36.788C4.36973 37.084 4.94973 37.232 5.59773 37.232C6.14173 37.232 6.62173 37.12 7.03773 36.896C7.46173 36.664 7.79373 36.348 8.03373 35.948C8.27373 35.54 8.39373 35.072 8.39373 34.544L9.36573 34.472C9.36573 35.208 9.20573 35.852 8.88573 36.404C8.56573 36.948 8.12173 37.376 7.55373 37.688C6.98573 37.992 6.33373 38.144 5.59773 38.144ZM6.32973 34.592V33.716H9.36573V34.508L8.88573 34.592H6.32973ZM11.1629 34.748C11.1629 34.1 11.2869 33.576 11.5349 33.176C11.7829 32.768 12.0989 32.468 12.4829 32.276C12.8749 32.076 13.2869 31.976 13.7189 31.976V32.876C13.3669 32.876 13.0269 32.936 12.6989 33.056C12.3789 33.168 12.1149 33.356 11.9069 33.62C11.6989 33.884 11.5949 34.244 11.5949 34.7L11.1629 34.748ZM10.6349 38V32H11.5949V38H10.6349ZM18.4456 38L18.3496 34.832C18.3336 34.36 18.2736 33.972 18.1696 33.668C18.0656 33.356 17.9056 33.124 17.6896 32.972C17.4736 32.812 17.1856 32.732 16.8256 32.732C16.4816 32.732 16.1816 32.8 15.9256 32.936C15.6776 33.072 15.4736 33.284 15.3136 33.572L14.4616 33.224C14.6136 32.944 14.8016 32.704 15.0256 32.504C15.2496 32.296 15.5136 32.136 15.8176 32.024C16.1216 31.912 16.4616 31.856 16.8376 31.856C17.3896 31.856 17.8496 31.964 18.2176 32.18C18.5856 32.396 18.8576 32.72 19.0336 33.152C19.2176 33.576 19.3096 34.108 19.3096 34.748V38H18.4456ZM16.6216 38.144C15.9096 38.144 15.3536 37.984 14.9536 37.664C14.5616 37.336 14.3656 36.884 14.3656 36.308C14.3656 35.7 14.5656 35.236 14.9656 34.916C15.3736 34.588 15.9416 34.424 16.6696 34.424H18.7816V35.228H16.8856C16.3256 35.228 15.9256 35.32 15.6856 35.504C15.4536 35.688 15.3376 35.952 15.3376 36.296C15.3376 36.608 15.4536 36.856 15.6856 37.04C15.9176 37.216 16.2416 37.304 16.6576 37.304C17.0096 37.304 17.3136 37.224 17.5696 37.064C17.8256 36.904 18.0216 36.688 18.1576 36.416C18.2936 36.136 18.3616 35.82 18.3616 35.468H18.9496C18.9496 36.284 18.7496 36.936 18.3496 37.424C17.9496 37.904 17.3736 38.144 16.6216 38.144ZM20.8302 38V32H21.7302L21.7902 33.104V38H20.8302ZM25.0422 38V34.928L26.0022 34.568V38H25.0422ZM25.0422 34.928C25.0422 34.336 24.9742 33.884 24.8382 33.572C24.7022 33.26 24.5142 33.048 24.2742 32.936C24.0342 32.816 23.7622 32.756 23.4582 32.756C22.9302 32.756 22.5182 32.944 22.2222 33.32C21.9342 33.688 21.7902 34.212 21.7902 34.892H21.3222C21.3222 34.26 21.4142 33.716 21.5982 33.26C21.7822 32.804 22.0462 32.456 22.3902 32.216C22.7422 31.976 23.1662 31.856 23.6622 31.856C24.3902 31.856 24.9622 32.08 25.3782 32.528C25.8022 32.976 26.0102 33.656 26.0022 34.568L25.0422 34.928ZM31.9616 38L31.9136 36.884V29.6H32.8736V38H31.9616ZM29.8856 38.144C29.3496 38.144 28.8776 38.012 28.4696 37.748C28.0616 37.484 27.7416 37.116 27.5096 36.644C27.2856 36.164 27.1736 35.616 27.1736 35C27.1736 34.376 27.2856 33.828 27.5096 33.356C27.7416 32.884 28.0616 32.516 28.4696 32.252C28.8776 31.988 29.3496 31.856 29.8856 31.856C30.3896 31.856 30.8296 31.988 31.2056 32.252C31.5896 32.516 31.8856 32.884 32.0936 33.356C32.3016 33.828 32.4056 34.376 32.4056 35C32.4056 35.616 32.3016 36.164 32.0936 36.644C31.8856 37.116 31.5896 37.484 31.2056 37.748C30.8296 38.012 30.3896 38.144 29.8856 38.144ZM30.1016 37.268C30.4536 37.268 30.7656 37.172 31.0376 36.98C31.3096 36.788 31.5216 36.52 31.6736 36.176C31.8336 35.832 31.9136 35.44 31.9136 35C31.9136 34.56 31.8336 34.168 31.6736 33.824C31.5216 33.48 31.3096 33.212 31.0376 33.02C30.7656 32.828 30.4496 32.732 30.0896 32.732C29.7136 32.732 29.3776 32.828 29.0816 33.02C28.7936 33.212 28.5656 33.48 28.3976 33.824C28.2296 34.168 28.1456 34.56 28.1456 35C28.1456 35.44 28.2296 35.832 28.3976 36.176C28.5656 36.52 28.7976 36.788 29.0936 36.98C29.3896 37.172 29.7256 37.268 30.1016 37.268ZM37.2049 38.144C36.6209 38.144 36.1049 38.012 35.6569 37.748C35.2169 37.476 34.8689 37.104 34.6129 36.632C34.3569 36.16 34.2289 35.616 34.2289 35C34.2289 34.384 34.3529 33.84 34.6009 33.368C34.8569 32.896 35.2089 32.528 35.6569 32.264C36.1049 31.992 36.6129 31.856 37.1809 31.856C37.7409 31.856 38.2249 31.996 38.6329 32.276C39.0409 32.548 39.3569 32.932 39.5809 33.428C39.8049 33.924 39.9169 34.508 39.9169 35.18H38.9569C38.9569 34.668 38.8889 34.232 38.7529 33.872C38.6169 33.504 38.4169 33.22 38.1529 33.02C37.8889 32.82 37.5609 32.72 37.1689 32.72C36.7769 32.72 36.4329 32.816 36.1369 33.008C35.8489 33.192 35.6249 33.456 35.4649 33.8C35.3049 34.144 35.2249 34.548 35.2249 35.012C35.2249 35.468 35.3129 35.864 35.4889 36.2C35.6649 36.528 35.9049 36.788 36.2089 36.98C36.5129 37.164 36.8609 37.256 37.2529 37.256C37.6769 37.256 38.0329 37.156 38.3209 36.956C38.6089 36.756 38.8329 36.496 38.9929 36.176L39.8449 36.596C39.6849 36.908 39.4769 37.18 39.2209 37.412C38.9729 37.644 38.6809 37.824 38.3449 37.952C38.0089 38.08 37.6289 38.144 37.2049 38.144ZM34.8769 35.18V34.352H39.3289V35.18H34.8769Z" fill="#A0A0A0"/>
<path d="M29.8182 21.7715C29.436 21.753 29.0532 21.767 28.6705 21.7659C28.3889 21.7651 28.2481 21.6243 28.2481 21.3433C28.2481 15.0733 28.2481 8.80267 28.2481 2.53265C28.2481 2.41335 28.252 2.29349 28.2425 2.17419C28.2107 1.7814 28.0534 1.59288 27.6807 1.4989H13.0686C12.6959 1.59344 12.5386 1.7814 12.5068 2.17419C12.4973 2.29349 12.5012 2.41279 12.5012 2.53265C12.5012 8.82406 12.5012 15.1155 12.5012 21.4063C12.5012 21.7648 12.5006 21.7636 12.1413 21.7659C11.724 21.7687 11.3061 21.7479 10.8898 21.7755C10.5266 21.7997 10.2739 22.0636 10.2521 22.4097C10.2287 22.7771 10.4005 23.0039 10.7732 23.0985H29.9766C30.327 23.0095 30.4894 22.8222 30.4989 22.4941C30.5111 22.0867 30.2405 21.7918 29.8182 21.7715ZM22.3395 21.8362C21.0261 21.8306 19.7121 21.8312 18.3987 21.8362C18.2692 21.8362 18.2386 21.8042 18.2391 21.6742C18.2441 20.3467 18.2441 19.0192 18.2391 17.6922C18.2391 17.5555 18.2726 17.5183 18.4098 17.5189C19.7232 17.5245 21.0367 17.524 22.3506 17.5189C22.4806 17.5189 22.5119 17.5527 22.5102 17.6821C22.5035 18.3422 22.5068 19.0023 22.5068 19.6624C22.5068 20.3225 22.5029 20.9966 22.5102 21.664C22.5119 21.8019 22.4756 21.8368 22.3395 21.8362ZM26.6875 21.8379C25.7971 21.8272 24.9066 21.8272 24.0161 21.8379C23.818 21.8402 23.7511 21.8075 23.7527 21.5836C23.765 20.058 23.7594 18.5324 23.7589 17.0068C23.7589 16.4914 23.5307 16.2573 23.0263 16.2567C21.2593 16.2561 19.4923 16.2567 17.7247 16.2567C17.2192 16.2567 16.9893 16.4908 16.9893 17.0034C16.9893 18.5431 16.986 20.0827 16.9938 21.6224C16.9949 21.8019 16.9475 21.839 16.7773 21.8368C15.8729 21.8278 14.9684 21.8272 14.064 21.8368C13.8821 21.8385 13.823 21.8025 13.823 21.6021C13.8297 17.0603 13.828 12.519 13.828 7.97714C13.828 6.31087 13.8308 4.6446 13.8235 2.97834C13.823 2.80445 13.8626 2.75943 14.0378 2.75943C18.2609 2.76506 22.484 2.76506 26.7071 2.75943C26.8778 2.75943 26.9247 2.79657 26.9241 2.97496C26.918 6.0824 26.9196 9.18983 26.9196 12.2973C26.9196 15.4047 26.9174 18.4981 26.9241 21.5988C26.9241 21.7929 26.8744 21.839 26.6864 21.8368L26.6875 21.8379Z" fill="#A0A0A0"/>
<path d="M25.4184 5.00161C25.4173 4.5548 25.1595 4.29425 24.7187 4.29313C23.7451 4.29144 22.772 4.29144 21.7984 4.29313C21.3465 4.29369 21.0921 4.55367 21.0909 5.01512C21.0893 5.99147 21.0893 6.96838 21.0909 7.94473C21.0915 8.40392 21.3482 8.66278 21.8012 8.66391C22.281 8.6656 22.7609 8.66391 23.2407 8.66391C23.7205 8.66391 24.2143 8.66503 24.7009 8.66391C25.1578 8.66278 25.4173 8.40786 25.4184 7.95205C25.4206 6.96838 25.4206 5.98528 25.4184 5.00161ZM24.009 7.40056C23.759 7.39437 23.5085 7.39831 23.2586 7.39831C23.0086 7.39831 22.7581 7.39212 22.5081 7.40113C22.3859 7.40507 22.338 7.37805 22.3402 7.24131C22.3486 6.72865 22.3458 6.216 22.3413 5.70335C22.3402 5.59699 22.3664 5.55478 22.4802 5.55591C22.9947 5.56097 23.5091 5.56041 24.023 5.55591C24.1273 5.55478 24.1703 5.58011 24.1691 5.69547C24.1636 6.21488 24.1624 6.73485 24.1691 7.25481C24.1708 7.38537 24.1172 7.40338 24.009 7.40056Z" fill="#A0A0A0"/>
<path d="M18.9501 4.29346C17.9765 4.29177 17.0034 4.29177 16.0298 4.29346C15.5885 4.29458 15.3307 4.55513 15.3296 5.00082C15.3273 5.98448 15.3279 6.96815 15.3296 7.95181C15.3307 8.40707 15.5901 8.66311 16.0465 8.66424C16.5264 8.66536 17.0062 8.66424 17.4855 8.66424C17.972 8.66424 18.4591 8.66536 18.9456 8.66424C19.3992 8.66311 19.6559 8.40538 19.6564 7.94562C19.6581 6.96927 19.6581 5.99236 19.6564 5.01601C19.6559 4.55344 19.4031 4.29402 18.9501 4.29346ZM18.2727 7.40089C18.0088 7.39583 17.7444 7.39921 17.4805 7.39921C17.2305 7.39921 16.98 7.39583 16.73 7.40089C16.6324 7.40258 16.5783 7.38964 16.5794 7.26752C16.5855 6.7408 16.5844 6.21408 16.5799 5.68736C16.5794 5.58325 16.6179 5.5568 16.7138 5.55737C17.235 5.56074 17.7566 5.5613 18.2778 5.55737C18.3799 5.5568 18.4072 5.59451 18.4066 5.69242C18.4027 6.21914 18.4027 6.74587 18.4066 7.27259C18.4078 7.37782 18.3687 7.40314 18.2727 7.40089Z" fill="#A0A0A0"/>
<path d="M19.6565 10.8861C19.6554 10.4421 19.3959 10.1888 18.9507 10.1871C18.4709 10.1854 17.9916 10.1871 17.5117 10.1871C17.0113 10.1871 16.5108 10.1849 16.0103 10.1877C15.5935 10.1899 15.3324 10.4494 15.3307 10.8703C15.3274 11.868 15.3279 12.8652 15.3307 13.8629C15.3319 14.2861 15.5852 14.5483 16.0053 14.5506C16.9996 14.5557 17.9938 14.5562 18.9875 14.5506C19.4065 14.5483 19.6554 14.2861 19.6571 13.8579C19.6598 12.8674 19.6593 11.877 19.6565 10.8861ZM18.4073 13.1325C18.4084 13.2507 18.3777 13.2906 18.2566 13.2895C17.75 13.2833 17.2428 13.2844 16.7362 13.2895C16.6246 13.2906 16.5772 13.2664 16.5789 13.1398C16.5856 12.6277 16.585 12.1156 16.5789 11.6035C16.5772 11.4842 16.6112 11.4471 16.7295 11.451C16.9862 11.4595 17.2434 11.4539 17.5 11.4539C17.7567 11.4539 18 11.4584 18.2499 11.4516C18.3593 11.4488 18.4095 11.4668 18.4078 11.5968C18.4 12.1089 18.4011 12.6204 18.4073 13.1325Z" fill="#A0A0A0"/>
<path d="M25.4184 10.8854C25.4173 10.4487 25.1606 10.1893 24.7326 10.1876C24.2461 10.1854 23.7596 10.1876 23.2725 10.1876C22.7787 10.1876 22.2855 10.1865 21.7917 10.1876C21.3476 10.1893 21.0926 10.4437 21.0915 10.8922C21.0893 11.8758 21.0898 12.8595 21.0915 13.8426C21.0926 14.2933 21.3415 14.5494 21.7878 14.5511C22.7681 14.5545 23.7484 14.555 24.7287 14.5511C25.1639 14.5494 25.4173 14.2928 25.4184 13.8572C25.4212 12.8668 25.4212 11.8758 25.4184 10.8854ZM24.1691 13.1459C24.1702 13.2585 24.1329 13.2894 24.0263 13.2883C23.5124 13.2838 22.9986 13.2838 22.4847 13.2883C22.3781 13.2894 22.3402 13.2585 22.3413 13.1459C22.3463 12.6265 22.3469 12.1077 22.3413 11.5883C22.3402 11.4723 22.3809 11.4476 22.4852 11.4504C22.7492 11.4566 23.0131 11.4526 23.277 11.4526C23.5269 11.4526 23.7769 11.4571 24.0268 11.4504C24.1312 11.4476 24.1719 11.4729 24.1702 11.5883C24.1641 12.1077 24.1635 12.6265 24.1691 13.1459Z" fill="#A0A0A0"/>
</svg>
