<svg width="22" height="20" viewBox="0 0 22 20" fill="none" xmlns="http://www.w3.org/2000/svg">
<path d="M9.36333 1.95728L1.25653 16.017C1.08938 16.3177 1.00094 16.6587 1.00001 17.0059C0.999072 17.3531 1.08567 17.6946 1.25119 17.9963C1.41671 18.2979 1.65538 18.5493 1.94346 18.7254C2.23153 18.9015 2.55897 18.9962 2.8932 19H19.1068C19.441 18.9962 19.7685 18.9015 20.0565 18.7254C20.3446 18.5493 20.5833 18.2979 20.7488 17.9963C20.9143 17.6946 21.0009 17.3531 21 17.0059C20.9991 16.6587 20.9106 16.3177 20.7435 16.017L12.6367 1.95728C12.466 1.66505 12.2258 1.42345 11.9391 1.25577C11.6524 1.08809 11.329 1 11 1C10.671 1 10.3476 1.08809 10.0609 1.25577C9.7742 1.42345 9.53395 1.66505 9.36333 1.95728V1.95728Z" stroke="#BD1D1D" stroke-width="2" stroke-linecap="round" stroke-linejoin="round"/>
<path d="M11 7.06812V11.0454" stroke="#BD1D1D" stroke-width="2" stroke-linecap="round" stroke-linejoin="round"/>
<path d="M11 15.0227H11.01" stroke="#BD1D1D" stroke-width="2" stroke-linecap="round" stroke-linejoin="round"/>
</svg>
