<svg width="32" height="32" viewBox="0 0 32 32" fill="none" xmlns="http://www.w3.org/2000/svg">
<circle cx="16" cy="16" r="16" fill="#BD1D1D"/>
<path d="M22.8338 12.6656C22.8338 12.8233 22.8338 12.9495 22.8338 13.1071C22.8338 17.4905 19.5226 22.5046 13.4364 22.5046C11.5443 22.5046 9.80987 21.9685 8.35926 21.0224C8.61154 21.0539 8.86382 21.0855 9.14763 21.0855C10.6928 21.0855 12.1119 20.5494 13.2472 19.6664C11.7966 19.6349 10.5667 18.6888 10.1568 17.3644C10.3775 17.3959 10.5667 17.4274 10.7875 17.4274C11.0713 17.4274 11.3866 17.3644 11.6389 17.3013C10.1252 16.9859 8.98996 15.6615 8.98996 14.0532V14.0216C9.43145 14.2739 9.96754 14.4001 10.5036 14.4316C9.58912 13.8324 9.02149 12.8233 9.02149 11.6881C9.02149 11.0574 9.17917 10.4897 9.46298 10.0167C11.1028 12.0034 13.5625 13.3279 16.3061 13.4855C16.243 13.2333 16.2115 12.981 16.2115 12.7287C16.2115 10.8997 17.6936 9.41753 19.5226 9.41753C20.4687 9.41753 21.3201 9.79595 21.9508 10.4582C22.6761 10.3005 23.4015 10.0167 24.0322 9.63828C23.7799 10.4267 23.2753 11.0574 22.5815 11.4673C23.2438 11.4042 23.906 11.215 24.4736 10.9627C24.0322 11.625 23.4645 12.1926 22.8338 12.6656Z" fill="white"/>
</svg>
