<svg width="32" height="32" viewBox="0 0 32 32" fill="none" xmlns="http://www.w3.org/2000/svg">
<circle cx="16" cy="16" r="16" fill="#BD1D1D"/>
<path d="M8.35926 11.9088C8.35926 10.8051 9.24224 9.89056 10.3775 9.89056H22.4869C23.5907 9.89056 24.5052 10.8051 24.5052 11.9088V19.9818C24.5052 21.117 23.5907 22 22.4869 22H10.3775C9.24224 22 8.35926 21.117 8.35926 19.9818V11.9088ZM9.87294 11.9088V12.6341L15.297 17.0805C15.9592 17.6166 16.8737 17.6166 17.5359 17.0805L22.9915 12.6341V11.9088C22.9915 11.6565 22.7392 11.4042 22.4869 11.4042H10.3775C10.0937 11.4042 9.87294 11.6565 9.87294 11.9088ZM9.87294 14.5893V19.9818C9.87294 20.2656 10.0937 20.4863 10.3775 20.4863H22.4869C22.7392 20.4863 22.9915 20.2656 22.9915 19.9818V14.5893L18.5135 18.2473C17.2837 19.2565 15.5492 19.2565 14.3194 18.2473L9.87294 14.5893Z" fill="white"/>
</svg>
