<svg width="32" height="32" viewBox="0 0 32 32" fill="none" xmlns="http://www.w3.org/2000/svg">
<path d="M23 5C22.4477 5 22 5.44772 22 6C22 6.55228 22.4477 7 23 7V5ZM28 6H29C29 5.44772 28.5523 5 28 5V6ZM27 11C27 11.5523 27.4477 12 28 12C28.5523 12 29 11.5523 29 11H27ZM9 27C9.55228 27 10 26.5523 10 26C10 25.4477 9.55228 25 9 25V27ZM4 26H3C3 26.5523 3.44772 27 4 27V26ZM5 21C5 20.4477 4.55228 20 4 20C3.44772 20 3 20.4477 3 21H5ZM29 21C29 20.4477 28.5523 20 28 20C27.4477 20 27 20.4477 27 21H29ZM28 26V27C28.5523 27 29 26.5523 29 26H28ZM23 25C22.4477 25 22 25.4477 22 26C22 26.5523 22.4477 27 23 27V25ZM3 11C3 11.5523 3.44772 12 4 12C4.55228 12 5 11.5523 5 11H3ZM4 6V5C3.44772 5 3 5.44772 3 6H4ZM9 7C9.55228 7 10 6.55228 10 6C10 5.44772 9.55228 5 9 5V7ZM11 11C11 10.4477 10.5523 10 10 10C9.44772 10 9 10.4477 9 11H11ZM9 21C9 21.5523 9.44772 22 10 22C10.5523 22 11 21.5523 11 21H9ZM23 11C23 10.4477 22.5523 10 22 10C21.4477 10 21 10.4477 21 11H23ZM21 21C21 21.5523 21.4477 22 22 22C22.5523 22 23 21.5523 23 21H21ZM19 11C19 10.4477 18.5523 10 18 10C17.4477 10 17 10.4477 17 11H19ZM17 21C17 21.5523 17.4477 22 18 22C18.5523 22 19 21.5523 19 21H17ZM15 11C15 10.4477 14.5523 10 14 10C13.4477 10 13 10.4477 13 11H15ZM13 21C13 21.5523 13.4477 22 14 22C14.5523 22 15 21.5523 15 21H13ZM23 7H28V5H23V7ZM27 6V11H29V6H27ZM9 25H4V27H9V25ZM5 26V21H3V26H5ZM27 21V26H29V21H27ZM28 25H23V27H28V25ZM5 11V6H3V11H5ZM4 7H9V5H4V7ZM9 11V21H11V11H9ZM21 11V21H23V11H21ZM17 11V21H19V11H17ZM13 11V21H15V11H13Z" fill="#606060"/>
</svg>
