<svg width="72" height="72" viewBox="0 0 72 72" fill="none" xmlns="http://www.w3.org/2000/svg">
<path d="M4.5 20.6631H12.565L17.9686 47.6607C18.1529 48.589 18.6579 49.4228 19.3951 50.0163C20.1324 50.6097 21.0548 50.925 22.0011 50.9068H41.599C42.5452 50.925 43.4677 50.6097 44.2049 50.0163C44.9421 49.4228 45.4471 48.589 45.6315 47.6607L48.8575 30.7443H14.5813M22.6463 60.9881C22.6463 62.1016 21.7436 63.0044 20.63 63.0044C19.5165 63.0044 18.6138 62.1016 18.6138 60.9881C18.6138 59.8746 19.5165 58.9718 20.63 58.9718C21.7436 58.9718 22.6463 59.8746 22.6463 60.9881ZM44.825 60.9881C44.825 62.1016 43.9223 63.0044 42.8088 63.0044C41.6952 63.0044 40.7925 62.1016 40.7925 60.9881C40.7925 59.8746 41.6952 58.9718 42.8088 58.9718C43.9223 58.9718 44.825 59.8746 44.825 60.9881Z" stroke="#BD1D1D" stroke-width="3.52844" stroke-linecap="round" stroke-linejoin="round"/>
<path fill-rule="evenodd" clip-rule="evenodd" d="M48.8584 18.6429C48.8584 13.2956 53.1538 9 58.5013 9C63.8488 9 68.1443 13.2956 68.1443 18.6429C68.1443 23.9903 63.8488 28.2859 58.5013 28.2859C53.1538 28.2859 48.8584 23.9903 48.8584 18.6429ZM63.1907 15.1863L59.8883 18.4887C59.8003 18.577 59.8003 18.7089 59.8883 18.7971L63.1907 22.0995C63.2788 22.1875 63.3228 22.3197 63.3228 22.4077C63.3228 22.4956 63.2788 22.6278 63.1907 22.7158L62.5743 23.3323C62.4862 23.4203 62.354 23.4644 62.2661 23.4644C62.1779 23.4644 62.0459 23.4203 61.9578 23.3323L58.6554 20.0299C58.5674 19.9419 58.4353 19.9419 58.3473 20.0299L55.0449 23.3323C54.9567 23.4203 54.8248 23.4644 54.7366 23.4644C54.6486 23.4644 54.5165 23.4203 54.4284 23.3323L53.812 22.7158C53.7239 22.6278 53.6799 22.4956 53.6799 22.4077C53.6799 22.3197 53.7239 22.1875 53.812 22.0995L57.1144 18.7971C57.2024 18.7089 57.2024 18.577 57.1144 18.4887L53.812 15.1863C53.7239 15.0983 53.6799 14.9662 53.6799 14.8782C53.6799 14.7902 53.7239 14.6581 53.812 14.5701L54.4284 13.9536C54.5165 13.8656 54.6486 13.8215 54.7366 13.8215C54.8248 13.8215 54.9567 13.8656 55.0449 13.9536L58.3473 17.256C58.4353 17.344 58.5674 17.344 58.6554 17.256L61.9578 13.9536C62.0459 13.8656 62.1339 13.8215 62.2661 13.8215C62.354 13.8215 62.4862 13.8656 62.5743 13.9536L63.1907 14.5701C63.2788 14.6581 63.3228 14.7902 63.3228 14.8782C63.3228 14.9662 63.2788 15.0983 63.1907 15.1863Z" fill="#BD1D1D"/>
</svg>
