<svg width="40" height="24" viewBox="0 0 40 24" fill="none" xmlns="http://www.w3.org/2000/svg">
<rect x="0.5" y="0.5" width="39" height="23" rx="1.5" stroke="#DBDBDB"/>
<path d="M17.7705 16.2701V9.96154C17.7705 9.4042 17.9919 8.8697 18.386 8.4756C18.7801 8.08151 19.3146 7.86011 19.8719 7.86011L21.7344 7.86271C22.2902 7.86382 22.823 8.08545 23.2156 8.47895C23.6083 8.87245 23.8287 9.40565 23.8286 9.96154V11.304C23.8286 11.8614 23.6073 12.3959 23.2132 12.7901C22.8191 13.1842 22.2846 13.4057 21.7272 13.4058H19.0948" stroke="#939598" stroke-width="0.203291" stroke-linecap="round" stroke-linejoin="round"/>
<path d="M24.3491 7.86011H25.1571C25.3858 7.86011 25.6052 7.95098 25.767 8.11274C25.9287 8.27449 26.0196 8.49388 26.0196 8.72263V13.4347" stroke="#939598" stroke-width="0.203291" stroke-linecap="round" stroke-linejoin="round"/>
<path d="M25.8464 7.13015L25.48 6.76351C25.4584 6.74191 25.4413 6.71627 25.4296 6.68805C25.4179 6.65983 25.4119 6.62958 25.4119 6.59902C25.4119 6.56847 25.4179 6.53822 25.4296 6.51C25.4413 6.48178 25.4584 6.45613 25.48 6.43454L25.8464 6.06823C25.8901 6.02454 25.9494 6 26.0112 6C26.073 6 26.1322 6.02454 26.176 6.06823L26.542 6.43454C26.5636 6.45613 26.5807 6.48178 26.5924 6.51C26.6041 6.53822 26.6101 6.56847 26.6101 6.59902C26.6101 6.62958 26.6041 6.65983 26.5924 6.68805C26.5807 6.71627 26.5636 6.74191 26.542 6.76351L26.1743 7.13015C26.1527 7.15177 26.1271 7.16892 26.0988 7.18062C26.0706 7.19232 26.0403 7.19835 26.0097 7.19835C25.9791 7.19835 25.9488 7.19232 25.9206 7.18062C25.8923 7.16892 25.8667 7.15177 25.8451 7.13015" fill="#32BCAD"/>
<path d="M27.571 7.85571H28.3722C28.7843 7.85554 29.1796 8.01908 29.4711 8.31036L31.3452 10.1845C31.4029 10.2422 31.4715 10.2881 31.5469 10.3193C31.6223 10.3506 31.7031 10.3667 31.7848 10.3667C31.8664 10.3667 31.9473 10.3506 32.0227 10.3193C32.0981 10.2881 32.1666 10.2422 32.2243 10.1845L34.0916 8.3175C34.2359 8.17326 34.4072 8.05886 34.5957 7.98085C34.7842 7.90284 34.9862 7.86274 35.1902 7.86286H35.8417" stroke="#939598" stroke-width="0.203291" stroke-linecap="round" stroke-linejoin="round"/>
<path d="M27.571 13.3938H28.3722C28.7843 13.3939 29.1796 13.2304 29.4711 12.9391L31.3452 11.065C31.4619 10.9485 31.6199 10.8831 31.7848 10.8831C31.9496 10.8831 32.1077 10.9485 32.2243 11.065L34.0916 12.9323C34.3831 13.2235 34.7782 13.3871 35.1902 13.3869H35.8417" stroke="#939598" stroke-width="0.203291" stroke-linecap="round" stroke-linejoin="round"/>
<path d="M12.9935 14.5913C12.7958 14.592 12.5999 14.5535 12.4172 14.4781C12.2345 14.4027 12.0686 14.2918 11.9289 14.1519L10.3913 12.6133C10.3369 12.5613 10.2645 12.5322 10.1893 12.5322C10.114 12.5322 10.0417 12.5613 9.98728 12.6133L8.44441 14.1561C8.30489 14.2963 8.13897 14.4074 7.95626 14.483C7.77354 14.5586 7.57765 14.5973 7.3799 14.5968H7.07886L9.02733 16.5453C9.31957 16.8369 9.71554 17.0007 10.1284 17.0007C10.5412 17.0007 10.9372 16.8369 11.2294 16.5453L13.1818 14.5926L12.9935 14.5913Z" fill="#32BCAD"/>
<path d="M7.38022 9.15329C7.57798 9.15276 7.77387 9.19143 7.95659 9.26707C8.13931 9.34271 8.30522 9.45382 8.44474 9.59397L9.98761 11.1372C10.0412 11.1906 10.1139 11.2206 10.1896 11.2206C10.2653 11.2206 10.338 11.1906 10.3916 11.1372L11.9289 9.59981C12.0683 9.45949 12.2342 9.34825 12.417 9.27254C12.5997 9.19684 12.7957 9.15818 12.9935 9.15881H13.1786L11.2262 7.20643C11.0816 7.06181 10.91 6.94708 10.721 6.86881C10.5321 6.79053 10.3296 6.75024 10.1251 6.75024C9.92064 6.75024 9.71815 6.79053 9.52923 6.86881C9.34031 6.94708 9.16866 7.06181 9.02409 7.20643L7.07886 9.15329H7.38022Z" fill="#32BCAD"/>
<path d="M14.7938 10.7739L13.614 9.59406C13.5874 9.60494 13.5589 9.61067 13.5302 9.61095H12.9937C12.7145 9.61165 12.4469 9.72252 12.2491 9.91946L10.7117 11.4558C10.5733 11.594 10.3856 11.6717 10.19 11.6717C9.9944 11.6717 9.80677 11.594 9.66831 11.4558L8.12512 9.91361C7.92731 9.71656 7.65969 9.60556 7.38048 9.60478H6.72189C6.69475 9.60417 6.66793 9.59878 6.64266 9.58887L5.45538 10.7739C5.16377 11.0661 5 11.4621 5 11.8749C5 12.2878 5.16377 12.6837 5.45538 12.976L6.64006 14.1606C6.66528 14.1505 6.69213 14.1452 6.7193 14.1447H7.38048C7.65969 14.1439 7.92729 14.0329 8.12512 13.8359L9.66799 12.293C9.94695 12.0144 10.4331 12.0144 10.7117 12.293L12.2491 13.83C12.4469 14.027 12.7145 14.1379 12.9937 14.1386H13.5302C13.5589 14.1388 13.5874 14.1445 13.614 14.1554L14.7938 12.9756C14.9384 12.8311 15.0531 12.6594 15.1314 12.4705C15.2097 12.2816 15.25 12.0791 15.25 11.8746C15.25 11.6701 15.2097 11.4676 15.1314 11.2787C15.0531 11.0898 14.9384 10.9181 14.7938 10.7735" fill="#32BCAD"/>
<path d="M19.3724 15.7347C19.2749 15.739 19.1781 15.7537 19.0837 15.7786V16.1631C19.156 16.1884 19.232 16.2011 19.3085 16.2007C19.5014 16.2007 19.5926 16.1358 19.5926 15.9659C19.5926 15.8062 19.5179 15.7347 19.3724 15.7347ZM19.0188 16.4492V15.6883H19.0717L19.0773 15.7207C19.1756 15.6946 19.2764 15.6784 19.378 15.6724C19.4484 15.6674 19.5182 15.6877 19.5751 15.7295C19.64 15.7834 19.6621 15.8705 19.6621 15.9653C19.6621 16.0601 19.6296 16.1582 19.5387 16.2098C19.4693 16.2444 19.3925 16.2615 19.315 16.2595C19.2366 16.259 19.1587 16.2471 19.0837 16.2241V16.4479L19.0188 16.4492Z" fill="#939598"/>
<path d="M20.146 15.7325C19.9534 15.7325 19.8673 15.7929 19.8673 15.9628C19.8673 16.1268 19.9521 16.2008 20.146 16.2008C20.3399 16.2008 20.4236 16.1411 20.4236 15.9715C20.4236 15.8075 20.3389 15.7325 20.146 15.7325ZM20.3941 16.2008C20.3291 16.2469 20.2441 16.2602 20.146 16.2602C20.0479 16.2602 19.9599 16.2459 19.8972 16.2008C19.8268 16.1511 19.7979 16.0709 19.7979 15.9673C19.7979 15.8637 19.8268 15.7832 19.8972 15.7325C19.9599 15.6874 20.046 15.6731 20.146 15.6731C20.246 15.6731 20.3301 15.6874 20.3941 15.7325C20.4655 15.7832 20.4931 15.8657 20.4931 15.966C20.4931 16.0664 20.4646 16.1511 20.3941 16.2008Z" fill="#939598"/>
<path d="M21.3062 16.244L21.0912 15.7826H21.087L20.8753 16.244H20.8158L20.5885 15.6877H20.6599L20.8506 16.1547H20.8551L21.0623 15.6877H21.1217L21.3341 16.1547H21.3387L21.5247 15.6877H21.5952L21.3659 16.244H21.3062Z" fill="#939598"/>
<path d="M22.0094 15.7305C21.8308 15.7305 21.7704 15.81 21.7593 15.9253H22.2594C22.2539 15.7987 22.189 15.7305 22.0094 15.7305ZM22.0071 16.2595C21.9003 16.2595 21.8308 16.2439 21.7755 16.1978C21.7106 16.1416 21.6888 16.0601 21.6888 15.9666C21.6888 15.873 21.7184 15.7824 21.7924 15.7285C21.8572 15.6878 21.933 15.6682 22.0094 15.6723C22.0872 15.6676 22.1647 15.6864 22.2318 15.7262C22.312 15.7802 22.3276 15.875 22.3276 15.9828H21.7577C21.76 16.0974 21.7973 16.1988 22.0133 16.1988C22.1098 16.1962 22.206 16.1853 22.3007 16.1663V16.2247C22.2044 16.2445 22.1066 16.2559 22.0084 16.2588" fill="#939598"/>
<path d="M22.5142 16.2438V15.6875H22.5668L22.5723 15.72C22.6902 15.6901 22.7454 15.6716 22.849 15.6716H22.8568V15.7333H22.8412C22.7541 15.7333 22.7012 15.7453 22.5791 15.7772V16.2432L22.5142 16.2438Z" fill="#939598"/>
<path d="M23.2341 15.7305C23.0558 15.7305 22.9951 15.81 22.984 15.9253H23.4842C23.4786 15.7987 23.4137 15.7305 23.2341 15.7305ZM23.2318 16.2595C23.125 16.2595 23.0558 16.2439 23.0006 16.1978C22.9357 16.1416 22.9136 16.0601 22.9136 15.9666C22.9136 15.873 22.9435 15.7824 23.0172 15.7285C23.082 15.6879 23.1577 15.6682 23.2341 15.6723C23.312 15.6676 23.3895 15.6864 23.4566 15.7262C23.5371 15.7802 23.554 15.875 23.554 15.9828H22.9818C22.984 16.0974 23.0214 16.1988 23.2373 16.1988C23.334 16.1962 23.4303 16.1854 23.5251 16.1663V16.2247C23.4288 16.2445 23.331 16.2559 23.2328 16.2588" fill="#939598"/>
<path d="M24.265 15.7693C24.1928 15.7441 24.1168 15.7315 24.0403 15.732C23.8474 15.732 23.7561 15.797 23.7561 15.9668C23.7561 16.1275 23.8312 16.198 23.9763 16.198C24.0738 16.1935 24.1705 16.179 24.265 16.1548V15.7693ZM24.2774 16.2441L24.2715 16.2117C24.1732 16.2381 24.0724 16.2544 23.9708 16.2604C23.9003 16.2657 23.8303 16.2453 23.7737 16.2029C23.7087 16.149 23.6866 16.0619 23.6866 15.9674C23.6866 15.8681 23.7191 15.7745 23.81 15.7239C23.8795 15.6885 23.9568 15.671 24.0348 15.6732C24.1128 15.6743 24.1902 15.6861 24.265 15.7083V15.4534H24.33V16.2441H24.2774Z" fill="#939598"/>
<path d="M25.2827 15.7343C25.1852 15.7385 25.0884 15.7532 24.994 15.7781V16.1616C25.0661 16.1877 25.1422 16.2008 25.2188 16.2003C25.4117 16.2003 25.5029 16.1353 25.5029 15.9655C25.5029 15.8057 25.4282 15.7343 25.2827 15.7343ZM25.449 16.21C25.3797 16.2446 25.303 16.2617 25.2256 16.2597C25.1408 16.2592 25.0567 16.245 24.9765 16.2178L24.9732 16.2441H24.9291V15.4534H24.994V15.7187C25.0904 15.694 25.1889 15.6786 25.2882 15.6726C25.3587 15.6676 25.4285 15.6879 25.4854 15.7297C25.5503 15.7836 25.5724 15.8707 25.5724 15.9655C25.5724 16.0603 25.5399 16.1584 25.449 16.21Z" fill="#939598"/>
<path d="M25.6585 16.4563V16.3958C25.691 16.3991 25.7202 16.4014 25.741 16.4014C25.8216 16.4014 25.8709 16.378 25.9151 16.2867L25.9362 16.2426L25.6439 15.6863H25.7193L25.9683 16.1666H25.9726L26.2093 15.6863H26.2833L25.9703 16.3111C25.9131 16.4244 25.8514 16.4618 25.7378 16.4618C25.7109 16.4616 25.6842 16.4598 25.6576 16.4563" fill="#939598"/>
<path d="M27.1809 15.9273H26.9653V16.1222H27.1809C27.3297 16.1222 27.3858 16.1056 27.3858 16.0248C27.3858 15.9377 27.3086 15.9273 27.1796 15.9273M27.1407 15.613H26.9646V15.8111H27.142C27.2884 15.8111 27.3469 15.7935 27.3469 15.7111C27.3469 15.6227 27.2728 15.6136 27.1407 15.6136M27.4758 16.1943C27.3962 16.2449 27.3004 16.2469 27.1254 16.2469H26.7958V15.4902H27.1176C27.2686 15.4902 27.3612 15.4922 27.4381 15.5386C27.4637 15.5539 27.4845 15.576 27.4982 15.6024C27.5118 15.6289 27.5178 15.6586 27.5154 15.6883C27.5154 15.7676 27.4829 15.8205 27.3962 15.8559V15.8601C27.4937 15.8822 27.556 15.9319 27.556 16.0387C27.5584 16.0692 27.5522 16.0998 27.538 16.1269C27.5238 16.1541 27.5023 16.1766 27.4758 16.192" fill="#939598"/>
<path d="M28.2148 16.0105C28.1498 16.005 28.0849 16.0017 28.0144 16.0017C27.9011 16.0017 27.8611 16.0248 27.8611 16.0768C27.8611 16.1287 27.8936 16.1514 27.9813 16.1514C28.0601 16.1489 28.1383 16.138 28.2148 16.119V16.0105ZM28.2473 16.244L28.243 16.2115C28.1446 16.2393 28.0432 16.2556 27.941 16.2602C27.882 16.2642 27.8231 16.2499 27.7725 16.2193C27.7507 16.201 27.7338 16.1777 27.7233 16.1513C27.7128 16.1249 27.7089 16.0963 27.7122 16.068C27.7154 16.0398 27.7255 16.0128 27.7417 15.9894C27.7579 15.9661 27.7796 15.9471 27.805 15.9342C27.8634 15.9066 27.9417 15.9043 28.0135 15.9043C28.0716 15.9043 28.1498 15.9076 28.2148 15.9121V15.902C28.2148 15.815 28.1576 15.7864 28.0011 15.7864C27.9407 15.7864 27.8667 15.7897 27.7962 15.7962V15.6838C27.8745 15.6773 27.9628 15.6731 28.0355 15.6731C28.133 15.6731 28.2327 15.6806 28.2953 15.7247C28.358 15.7689 28.3713 15.8329 28.3713 15.9154V16.2446L28.2473 16.244Z" fill="#939598"/>
<path d="M29.097 16.2441V15.9372C29.097 15.8359 29.0454 15.7995 28.9529 15.7995C28.876 15.8029 28.7998 15.8146 28.7255 15.8346V16.2444H28.5703V15.6878H28.697L28.7025 15.7232C28.7993 15.6947 28.8992 15.6777 29 15.6725C29.0684 15.667 29.1364 15.6874 29.1906 15.7297C29.2344 15.7693 29.251 15.8245 29.251 15.9037V16.2441H29.097Z" fill="#939598"/>
<path d="M29.6902 16.2602C29.6184 16.2602 29.5402 16.2502 29.483 16.2018C29.4148 16.1466 29.395 16.0599 29.395 15.966C29.395 15.878 29.4236 15.7819 29.5084 15.728C29.5779 15.6828 29.6636 15.6731 29.7529 15.6731C29.8178 15.6731 29.8795 15.6773 29.9477 15.6838V15.803C29.8916 15.7975 29.8243 15.7933 29.7704 15.7933C29.6227 15.7933 29.5532 15.8394 29.5532 15.9673C29.5532 16.0871 29.6051 16.1391 29.7263 16.1391C29.8048 16.1365 29.8829 16.127 29.9598 16.1105V16.2248C29.8709 16.2455 29.7801 16.2574 29.6889 16.2602" fill="#939598"/>
<path d="M30.4197 15.7897C30.272 15.7897 30.207 15.8361 30.207 15.9628C30.207 16.0894 30.272 16.1433 30.4197 16.1433C30.5675 16.1433 30.6302 16.0982 30.6302 15.9715C30.6302 15.8449 30.5675 15.7897 30.4197 15.7897ZM30.6863 16.2018C30.6181 16.2479 30.5288 16.2602 30.4197 16.2602C30.3106 16.2602 30.2194 16.2469 30.1521 16.2018C30.0748 16.1511 30.0472 16.0673 30.0472 15.9673C30.0472 15.8673 30.0748 15.7819 30.1521 15.7312C30.2194 15.6861 30.3083 15.6731 30.4197 15.6731C30.5311 15.6731 30.6181 15.6861 30.6863 15.7312C30.7633 15.7819 30.7899 15.867 30.7899 15.966C30.7899 16.0651 30.7623 16.1511 30.6863 16.2018Z" fill="#939598"/>
<path d="M31.6864 16.2597C31.5929 16.2597 31.4916 16.2441 31.4156 16.1814C31.3253 16.1064 31.2977 15.9908 31.2977 15.8664C31.2977 15.755 31.3331 15.6229 31.4507 15.5459C31.5423 15.4865 31.6556 15.4741 31.7702 15.4741C31.854 15.4741 31.9401 15.4796 32.0336 15.4874V15.6229C31.9534 15.6164 31.854 15.6108 31.7771 15.6108C31.5621 15.6108 31.4708 15.6924 31.4708 15.8664C31.4708 16.0405 31.5556 16.123 31.7141 16.123C31.8273 16.1191 31.9399 16.1039 32.0502 16.0778V16.2123C31.9308 16.2399 31.8089 16.2557 31.6864 16.2597Z" fill="#939598"/>
<path d="M32.507 15.7717C32.3771 15.7717 32.3284 15.8181 32.3183 15.9016H32.6931C32.6886 15.8113 32.6356 15.7717 32.507 15.7717ZM32.4836 16.2588C32.3924 16.2588 32.3096 16.2477 32.2479 16.1971C32.1862 16.1464 32.1586 16.0594 32.1586 15.9646C32.1586 15.8798 32.1862 15.785 32.2635 15.7298C32.3317 15.6814 32.4187 15.6716 32.507 15.6716C32.5863 15.6716 32.6798 15.6804 32.748 15.7278C32.8373 15.7905 32.8454 15.8876 32.8454 16.0019H32.3174C32.3206 16.087 32.3658 16.1419 32.5223 16.1419C32.6217 16.1397 32.7208 16.1301 32.8188 16.1133V16.2224C32.7082 16.2434 32.5961 16.2556 32.4836 16.2588Z" fill="#939598"/>
<path d="M33.5371 16.2441V15.9372C33.5371 15.8359 33.4855 15.7995 33.3929 15.7995C33.3161 15.8029 33.2399 15.8146 33.1656 15.8346V16.2444H33.0104V15.6878H33.137L33.1425 15.7232C33.2394 15.6947 33.3392 15.6777 33.44 15.6725C33.5085 15.667 33.5765 15.6874 33.6306 15.7297C33.6745 15.7693 33.691 15.8245 33.691 15.9037V16.2441H33.5371Z" fill="#939598"/>
<path d="M34.1335 16.2602C34.0585 16.2602 33.9903 16.2391 33.953 16.1806C33.9224 16.1301 33.9081 16.0714 33.912 16.0124V15.8039H33.7997V15.6883H33.912L33.9286 15.5198H34.0656V15.6883H34.2849V15.8039H34.0656V15.9825C34.0636 16.0185 34.0688 16.0545 34.0809 16.0884C34.0975 16.1258 34.1338 16.14 34.1826 16.14C34.2198 16.1394 34.257 16.1357 34.2936 16.129V16.2404C34.2407 16.2518 34.1869 16.2585 34.1329 16.2602" fill="#939598"/>
<path d="M34.4371 16.2435V15.6872H34.5638L34.5693 15.7226C34.6582 15.6924 34.7509 15.6753 34.8447 15.6719C34.8513 15.6715 34.8579 15.6715 34.8645 15.6719V15.8067C34.847 15.8067 34.8259 15.8067 34.8106 15.8067C34.7369 15.807 34.6636 15.8166 34.5924 15.8353V16.2461L34.4371 16.2435Z" fill="#939598"/>
<path d="M35.4296 16.0105C35.3647 16.005 35.2997 16.0017 35.2289 16.0017C35.1156 16.0017 35.076 16.0248 35.076 16.0768C35.076 16.1287 35.1085 16.1514 35.1958 16.1514C35.2747 16.1489 35.353 16.138 35.4296 16.119V16.0105ZM35.4621 16.244L35.4576 16.2115C35.3591 16.2393 35.2578 16.2556 35.1555 16.2602C35.0965 16.2642 35.0377 16.2499 34.987 16.2193C34.9665 16.2036 34.9502 16.1832 34.9395 16.1598C34.9287 16.1363 34.9238 16.1106 34.9253 16.0849C34.9238 16.0532 34.932 16.0218 34.9487 15.9949C34.9655 15.968 34.9901 15.9468 35.0192 15.9342C35.0776 15.9066 35.1555 15.9043 35.2273 15.9043C35.2858 15.9043 35.364 15.9076 35.429 15.9121V15.902C35.429 15.815 35.3715 15.7864 35.2153 15.7864C35.1546 15.7864 35.0809 15.7897 35.0104 15.7962V15.6838C35.0886 15.6773 35.1767 15.6731 35.2494 15.6731C35.3468 15.6731 35.4465 15.6806 35.5092 15.7247C35.5719 15.7689 35.5852 15.8329 35.5852 15.9154V16.2446L35.4621 16.244Z" fill="#939598"/>
<path d="M35.7843 15.4534H35.9399V16.2441H35.7843V15.4534Z" fill="#939598"/>
</svg>
