<svg width="16" height="16" viewBox="0 0 16 16" fill="none" xmlns="http://www.w3.org/2000/svg">
<path d="M14.2273 5.76013C14.0078 5.75735 13.7878 5.74957 13.5689 5.76291C13.4181 5.7718 13.3548 5.72512 13.3096 5.58672C13.1312 5.03925 12.947 4.4929 12.7475 3.9521C12.4289 3.08783 11.6174 2.51702 10.6522 2.5098C8.88961 2.49646 7.12644 2.49701 5.36326 2.5098C4.39219 2.51647 3.57837 3.09228 3.25566 3.966C3.10428 4.37674 2.96816 4.79192 2.82499 5.20544C2.76338 5.38274 2.75223 5.61451 2.62432 5.72122C2.48409 5.83905 2.23061 5.76791 2.02995 5.75568C1.33582 5.714 0.957959 5.9391 1.00373 6.74223C1.03248 7.24023 1.26894 7.50035 1.79701 7.50646C1.96599 7.50813 1.96775 7.56816 1.94135 7.68877C1.83045 8.19177 1.76884 8.70033 1.76767 9.21444C1.76532 10.3577 1.76356 11.501 1.76415 12.6443C1.76415 13.1162 2.05342 13.3835 2.55861 13.3852C2.90948 13.3863 3.26094 13.3869 3.61182 13.3852C4.09764 13.383 4.38515 13.1112 4.39043 12.6465C4.39337 12.3831 4.40158 12.1196 4.38691 11.8567C4.37811 11.6944 4.4274 11.6489 4.60225 11.65C5.73584 11.6578 6.87003 11.6539 8.00362 11.6539C9.13722 11.6539 10.2861 11.6566 11.4273 11.6505C11.5828 11.6494 11.6262 11.6922 11.6203 11.8356C11.6092 12.1191 11.6109 12.4036 11.6186 12.6877C11.6291 13.1006 11.9207 13.3769 12.3532 13.3841C12.741 13.3902 13.1289 13.3902 13.5161 13.3841C13.9485 13.3769 14.2396 13.0956 14.2437 12.6849C14.2478 12.2691 14.2519 11.8534 14.2437 11.4377C14.2179 10.1654 14.3469 8.88652 14.0577 7.62652C14.0342 7.5248 14.0776 7.51536 14.1674 7.50924C14.8023 7.46644 14.9994 7.26247 15 6.65998C15 6.60439 15 6.54937 15 6.49379C14.9977 6.01913 14.733 5.7668 14.2273 5.76013ZM5.77398 9.62852C5.68304 9.74357 5.55923 9.79081 5.41255 9.79137C5.17843 9.79303 4.94491 9.79137 4.7108 9.79137C4.47668 9.79137 4.24257 9.79804 4.00905 9.7897C3.70452 9.77858 3.54376 9.61851 3.53554 9.32894C3.53026 9.13496 3.5285 8.94099 3.53613 8.74701C3.54728 8.46189 3.73503 8.2857 4.03134 8.32016C4.51658 8.37629 4.9983 8.45966 5.4812 8.53359C5.51581 8.53914 5.54984 8.55804 5.58036 8.57638C5.8174 8.71811 5.94355 9.41453 5.77398 9.62852ZM8.00362 6.65608C6.7386 6.65608 5.47298 6.65608 4.20795 6.65608C3.90636 6.65608 3.87351 6.61273 3.96563 6.3365C4.16864 5.73123 4.37224 5.12596 4.5776 4.52125C4.73309 4.06271 5.01062 3.8704 5.5164 3.86985C7.18394 3.86929 8.85147 3.86929 10.5184 3.86985C11.0084 3.86985 11.3 4.06549 11.4514 4.50513C11.6661 5.12874 11.8744 5.75402 12.0833 6.3793C12.1537 6.58939 12.1015 6.65497 11.865 6.65497C10.5777 6.65608 9.29095 6.65497 8.00362 6.65497V6.65608ZM12.4887 9.37952C12.4793 9.61796 12.3309 9.75913 12.0798 9.78692C12.058 9.78914 12.0363 9.79248 12.014 9.79248C11.7799 9.79248 11.5464 9.79248 11.3123 9.79248V9.79137C11.0782 9.79137 10.8441 9.7997 10.6111 9.78914C10.2802 9.77414 10.1112 9.56349 10.1787 9.25668C10.3066 8.67198 10.2092 8.52191 11.0553 8.43076C11.3522 8.39853 11.6456 8.33905 11.9413 8.29459C12.2411 8.24957 12.4799 8.42965 12.4899 8.71533C12.4975 8.93654 12.4975 9.15831 12.4887 9.37952Z" fill="#606060"/>
</svg>
