<svg width="48" height="31" viewBox="0 0 48 31" fill="none" xmlns="http://www.w3.org/2000/svg">
<path d="M2.82014 23.916V22.992H4.86014C5.30014 22.992 5.66014 22.832 5.94014 22.512C6.22814 22.184 6.37214 21.768 6.37214 21.264C6.37214 20.92 6.29614 20.616 6.14414 20.352C5.99214 20.088 5.78014 19.884 5.50814 19.74C5.24414 19.588 4.93614 19.516 4.58414 19.524H2.82014V18.6L4.59614 18.588C5.14014 18.588 5.62014 18.704 6.03614 18.936C6.46014 19.16 6.78814 19.472 7.02014 19.872C7.26014 20.272 7.38014 20.736 7.38014 21.264C7.38014 21.776 7.27214 22.232 7.05614 22.632C6.84014 23.032 6.54414 23.348 6.16814 23.58C5.79214 23.804 5.35614 23.916 4.86014 23.916H2.82014ZM1.86014 27V18.6H2.88014V27H1.86014ZM11.0682 27.144C10.4842 27.144 9.96817 27.012 9.52017 26.748C9.08017 26.476 8.73217 26.104 8.47617 25.632C8.22017 25.16 8.09217 24.616 8.09217 24C8.09217 23.384 8.21617 22.84 8.46417 22.368C8.72017 21.896 9.07217 21.528 9.52017 21.264C9.96817 20.992 10.4762 20.856 11.0442 20.856C11.6042 20.856 12.0882 20.996 12.4962 21.276C12.9042 21.548 13.2202 21.932 13.4442 22.428C13.6682 22.924 13.7802 23.508 13.7802 24.18H12.8202C12.8202 23.668 12.7522 23.232 12.6162 22.872C12.4802 22.504 12.2802 22.22 12.0162 22.02C11.7522 21.82 11.4242 21.72 11.0322 21.72C10.6402 21.72 10.2962 21.816 10.0002 22.008C9.71217 22.192 9.48817 22.456 9.32817 22.8C9.16817 23.144 9.08817 23.548 9.08817 24.012C9.08817 24.468 9.17617 24.864 9.35217 25.2C9.52817 25.528 9.76817 25.788 10.0722 25.98C10.3762 26.164 10.7242 26.256 11.1162 26.256C11.5402 26.256 11.8962 26.156 12.1842 25.956C12.4722 25.756 12.6962 25.496 12.8562 25.176L13.7082 25.596C13.5482 25.908 13.3402 26.18 13.0842 26.412C12.8362 26.644 12.5442 26.824 12.2082 26.952C11.8722 27.08 11.4922 27.144 11.0682 27.144ZM8.74017 24.18V23.352H13.1922V24.18H8.74017ZM19.4175 29.4V22.116L19.4655 21H20.3775V29.4H19.4175ZM17.3895 27.144C16.8535 27.144 16.3815 27.012 15.9735 26.748C15.5655 26.484 15.2455 26.116 15.0135 25.644C14.7895 25.164 14.6775 24.616 14.6775 24C14.6775 23.376 14.7895 22.828 15.0135 22.356C15.2455 21.884 15.5655 21.516 15.9735 21.252C16.3815 20.988 16.8535 20.856 17.3895 20.856C17.8935 20.856 18.3335 20.988 18.7095 21.252C19.0935 21.516 19.3895 21.884 19.5975 22.356C19.8055 22.828 19.9095 23.376 19.9095 24C19.9095 24.616 19.8055 25.164 19.5975 25.644C19.3895 26.116 19.0935 26.484 18.7095 26.748C18.3335 27.012 17.8935 27.144 17.3895 27.144ZM17.6055 26.268C17.9575 26.268 18.2695 26.172 18.5415 25.98C18.8135 25.788 19.0255 25.52 19.1775 25.176C19.3375 24.832 19.4175 24.44 19.4175 24C19.4175 23.56 19.3375 23.168 19.1775 22.824C19.0255 22.48 18.8135 22.212 18.5415 22.02C18.2695 21.828 17.9535 21.732 17.5935 21.732C17.2175 21.732 16.8815 21.828 16.5855 22.02C16.2975 22.212 16.0695 22.48 15.9015 22.824C15.7335 23.168 15.6495 23.56 15.6495 24C15.6495 24.44 15.7335 24.832 15.9015 25.176C16.0695 25.52 16.3015 25.788 16.5975 25.98C16.8935 26.172 17.2295 26.268 17.6055 26.268ZM26.079 27L26.019 25.896V21H26.979V27H26.079ZM21.807 24.432V21H22.767V24.072L21.807 24.432ZM22.767 24.072C22.767 24.664 22.835 25.116 22.971 25.428C23.107 25.74 23.295 25.956 23.535 26.076C23.783 26.188 24.059 26.244 24.363 26.244C24.883 26.244 25.287 26.056 25.575 25.68C25.871 25.304 26.019 24.78 26.019 24.108H26.487C26.487 24.74 26.395 25.284 26.211 25.74C26.027 26.196 25.759 26.544 25.407 26.784C25.063 27.024 24.643 27.144 24.147 27.144C23.419 27.144 22.843 26.92 22.419 26.472C22.003 26.024 21.799 25.344 21.807 24.432L22.767 24.072ZM31.3065 27.144C30.7225 27.144 30.2065 27.012 29.7585 26.748C29.3185 26.476 28.9705 26.104 28.7145 25.632C28.4585 25.16 28.3305 24.616 28.3305 24C28.3305 23.384 28.4545 22.84 28.7025 22.368C28.9585 21.896 29.3105 21.528 29.7585 21.264C30.2065 20.992 30.7145 20.856 31.2825 20.856C31.8425 20.856 32.3265 20.996 32.7345 21.276C33.1425 21.548 33.4585 21.932 33.6825 22.428C33.9065 22.924 34.0185 23.508 34.0185 24.18H33.0585C33.0585 23.668 32.9905 23.232 32.8545 22.872C32.7185 22.504 32.5185 22.22 32.2545 22.02C31.9905 21.82 31.6625 21.72 31.2705 21.72C30.8785 21.72 30.5345 21.816 30.2385 22.008C29.9505 22.192 29.7265 22.456 29.5665 22.8C29.4065 23.144 29.3265 23.548 29.3265 24.012C29.3265 24.468 29.4145 24.864 29.5905 25.2C29.7665 25.528 30.0065 25.788 30.3105 25.98C30.6145 26.164 30.9625 26.256 31.3545 26.256C31.7785 26.256 32.1345 26.156 32.4225 25.956C32.7105 25.756 32.9345 25.496 33.0945 25.176L33.9465 25.596C33.7865 25.908 33.5785 26.18 33.3225 26.412C33.0745 26.644 32.7825 26.824 32.4465 26.952C32.1105 27.08 31.7305 27.144 31.3065 27.144ZM28.9785 24.18V23.352H33.4305V24.18H28.9785ZM35.2638 27V21H36.1638L36.2238 22.104V27H35.2638ZM39.4758 27V23.928L40.4358 23.568V27H39.4758ZM39.4758 23.928C39.4758 23.336 39.4078 22.884 39.2718 22.572C39.1358 22.26 38.9478 22.048 38.7078 21.936C38.4678 21.816 38.1958 21.756 37.8918 21.756C37.3638 21.756 36.9518 21.944 36.6558 22.32C36.3678 22.688 36.2238 23.212 36.2238 23.892H35.7558C35.7558 23.26 35.8478 22.716 36.0318 22.26C36.2158 21.804 36.4798 21.456 36.8238 21.216C37.1758 20.976 37.5998 20.856 38.0958 20.856C38.8238 20.856 39.3958 21.08 39.8118 21.528C40.2358 21.976 40.4438 22.656 40.4358 23.568L39.4758 23.928ZM45.7112 27L45.6152 23.832C45.5992 23.36 45.5392 22.972 45.4352 22.668C45.3312 22.356 45.1712 22.124 44.9552 21.972C44.7392 21.812 44.4512 21.732 44.0912 21.732C43.7472 21.732 43.4472 21.8 43.1912 21.936C42.9432 22.072 42.7392 22.284 42.5792 22.572L41.7272 22.224C41.8792 21.944 42.0672 21.704 42.2912 21.504C42.5152 21.296 42.7792 21.136 43.0832 21.024C43.3872 20.912 43.7272 20.856 44.1032 20.856C44.6552 20.856 45.1152 20.964 45.4832 21.18C45.8512 21.396 46.1232 21.72 46.2992 22.152C46.4832 22.576 46.5752 23.108 46.5752 23.748V27H45.7112ZM43.8872 27.144C43.1752 27.144 42.6192 26.984 42.2192 26.664C41.8272 26.336 41.6312 25.884 41.6312 25.308C41.6312 24.7 41.8312 24.236 42.2312 23.916C42.6392 23.588 43.2072 23.424 43.9352 23.424H46.0472V24.228H44.1512C43.5912 24.228 43.1912 24.32 42.9512 24.504C42.7192 24.688 42.6032 24.952 42.6032 25.296C42.6032 25.608 42.7192 25.856 42.9512 26.04C43.1832 26.216 43.5072 26.304 43.9232 26.304C44.2752 26.304 44.5792 26.224 44.8352 26.064C45.0912 25.904 45.2872 25.688 45.4232 25.416C45.5592 25.136 45.6272 24.82 45.6272 24.468H46.2152C46.2152 25.284 46.0152 25.936 45.6152 26.424C45.2152 26.904 44.6392 27.144 43.8872 27.144Z" fill="#A0A0A0"/>
<path d="M29.7273 12.7001C29.5043 12.6893 29.281 12.6975 29.0578 12.6968C28.8935 12.6964 28.8114 12.6142 28.8114 12.4503C28.8114 8.79276 28.8114 5.13492 28.8114 1.47741C28.8114 1.40782 28.8137 1.3379 28.8081 1.26831C28.7896 1.03918 28.6978 0.92921 28.4804 0.87439H19.9567C19.7393 0.929538 19.6475 1.03918 19.6289 1.26831C19.6234 1.3379 19.6257 1.40749 19.6257 1.47741C19.6257 5.1474 19.6257 8.81738 19.6257 12.487C19.6257 12.6961 19.6254 12.6955 19.4158 12.6968C19.1723 12.6984 18.9285 12.6863 18.6857 12.7024C18.4739 12.7165 18.3264 12.8705 18.3137 13.0723C18.3001 13.2867 18.4003 13.419 18.6177 13.4741H29.8197C30.0241 13.4223 30.1188 13.313 30.1243 13.1216C30.1315 12.8839 29.9736 12.7119 29.7273 12.7001ZM25.3647 12.7378C24.5985 12.7346 23.8321 12.7349 23.0659 12.7378C22.9904 12.7378 22.9725 12.7191 22.9728 12.6433C22.9757 11.8689 22.9757 11.0945 22.9728 10.3205C22.9728 10.2407 22.9923 10.2191 23.0724 10.2194C23.8386 10.2227 24.6047 10.2223 25.3712 10.2194C25.447 10.2194 25.4653 10.2391 25.4643 10.3146C25.4604 10.6996 25.4623 11.0847 25.4623 11.4698C25.4623 11.8548 25.46 12.2481 25.4643 12.6374C25.4653 12.7178 25.4441 12.7382 25.3647 12.7378ZM27.9011 12.7388C27.3816 12.7326 26.8622 12.7326 26.3427 12.7388C26.2272 12.7401 26.1881 12.7211 26.1891 12.5904C26.1963 11.7005 26.193 10.8106 26.1927 9.92068C26.1927 9.61999 26.0596 9.48343 25.7653 9.4831C24.7346 9.48277 23.7038 9.4831 22.6727 9.4831C22.3779 9.4831 22.2438 9.61966 22.2438 9.91871C22.2438 10.8168 22.2418 11.715 22.2464 12.6131C22.247 12.7178 22.2194 12.7395 22.1201 12.7382C21.5925 12.7329 21.0649 12.7326 20.5373 12.7382C20.4312 12.7391 20.3967 12.7181 20.3967 12.6013C20.4006 9.95186 20.3997 7.30277 20.3997 4.65336C20.3997 3.68137 20.4013 2.70938 20.3971 1.73739C20.3967 1.63596 20.4198 1.6097 20.522 1.6097C22.9855 1.61298 25.449 1.61298 27.9125 1.6097C28.012 1.6097 28.0394 1.63137 28.0391 1.73542C28.0355 3.5481 28.0365 5.36077 28.0365 7.17344C28.0365 8.98611 28.0352 10.7906 28.0391 12.5993C28.0391 12.7126 28.0101 12.7395 27.9004 12.7382L27.9011 12.7388Z" fill="#A0A0A0"/>
<path d="M27.1607 2.91764C27.1601 2.657 27.0097 2.50501 26.7526 2.50435C26.1846 2.50337 25.617 2.50337 25.0491 2.50435C24.7854 2.50468 24.637 2.65634 24.6364 2.92552C24.6354 3.49505 24.6354 4.06492 24.6364 4.63446C24.6367 4.90232 24.7864 5.05332 25.0507 5.05398C25.3306 5.05496 25.6105 5.05398 25.8904 5.05398C26.1703 5.05398 26.4584 5.05463 26.7422 5.05398C27.0087 5.05332 27.1601 4.90462 27.1607 4.63872C27.162 4.06492 27.162 3.49144 27.1607 2.91764ZM26.3386 4.31703C26.1928 4.31341 26.0466 4.31571 25.9008 4.31571C25.755 4.31571 25.6089 4.3121 25.4631 4.31735C25.3918 4.31965 25.3638 4.3039 25.3651 4.22413C25.37 3.92508 25.3684 3.62603 25.3658 3.32698C25.3651 3.26494 25.3804 3.24032 25.4468 3.24098C25.7469 3.24393 26.047 3.2436 26.3467 3.24098C26.4076 3.24032 26.4326 3.25509 26.432 3.32239C26.4287 3.62537 26.4281 3.92869 26.432 4.23201C26.433 4.30816 26.4017 4.31867 26.3386 4.31703Z" fill="#A0A0A0"/>
<path d="M23.3876 2.50455C22.8196 2.50356 22.252 2.50356 21.684 2.50455C21.4266 2.5052 21.2762 2.65719 21.2756 2.91717C21.2743 3.49098 21.2746 4.06478 21.2756 4.63859C21.2762 4.90415 21.4276 5.05351 21.6938 5.05417C21.9737 5.05483 22.2536 5.05417 22.5332 5.05417C22.817 5.05417 23.1011 5.05483 23.3849 5.05417C23.6496 5.05351 23.7993 4.90317 23.7996 4.63498C23.8006 4.06544 23.8006 3.49557 23.7996 2.92604C23.7993 2.6562 23.6518 2.50488 23.3876 2.50455ZM22.9924 4.31722C22.8385 4.31426 22.6842 4.31623 22.5303 4.31623C22.3845 4.31623 22.2383 4.31426 22.0925 4.31722C22.0356 4.3182 22.004 4.31065 22.0046 4.23942C22.0082 3.93217 22.0076 3.62491 22.005 3.31766C22.0046 3.25693 22.0271 3.2415 22.0831 3.24183C22.3871 3.2438 22.6914 3.24412 22.9954 3.24183C23.0549 3.2415 23.0709 3.26349 23.0705 3.32061C23.0683 3.62786 23.0683 3.93512 23.0705 4.24237C23.0712 4.30376 23.0484 4.31853 22.9924 4.31722Z" fill="#A0A0A0"/>
<path d="M23.7996 6.35023C23.799 6.09123 23.6476 5.94351 23.3879 5.94252C23.108 5.94154 22.8284 5.94252 22.5485 5.94252C22.2566 5.94252 21.9646 5.94121 21.6727 5.94285C21.4296 5.94416 21.2772 6.09549 21.2763 6.34103C21.2743 6.92305 21.2746 7.50473 21.2763 8.08674C21.2769 8.33359 21.4247 8.48657 21.6698 8.48788C22.2497 8.49083 22.8297 8.49116 23.4094 8.48788C23.6538 8.48657 23.799 8.33359 23.7999 8.08379C23.8016 7.50604 23.8012 6.9283 23.7996 6.35023ZM23.0709 7.66065C23.0715 7.72959 23.0536 7.7529 22.983 7.75224C22.6875 7.74863 22.3916 7.74929 22.0961 7.75224C22.031 7.7529 22.0034 7.73878 22.0043 7.66492C22.0082 7.3662 22.0079 7.06748 22.0043 6.76876C22.0034 6.69917 22.0232 6.6775 22.0922 6.6798C22.2419 6.68473 22.392 6.68144 22.5417 6.68144C22.6914 6.68144 22.8333 6.68407 22.9791 6.68013C23.0429 6.67849 23.0722 6.68899 23.0712 6.76482C23.0667 7.06354 23.0673 7.36193 23.0709 7.66065Z" fill="#A0A0A0"/>
<path d="M27.1607 6.34985C27.1601 6.09512 27.0103 5.94379 26.7607 5.9428C26.4769 5.94149 26.1931 5.9428 25.909 5.9428C25.6209 5.9428 25.3332 5.94214 25.0452 5.9428C24.7861 5.94379 24.6374 6.09216 24.6367 6.35379C24.6354 6.92759 24.6357 7.5014 24.6367 8.07487C24.6374 8.33781 24.7825 8.48717 25.0429 8.48816C25.6147 8.49013 26.1866 8.49045 26.7584 8.48816C27.0123 8.48717 27.1601 8.33748 27.1607 8.08341C27.1623 7.50566 27.1623 6.92759 27.1607 6.34985ZM26.432 7.66848C26.4326 7.73414 26.4108 7.75219 26.3487 7.75153C26.0489 7.74891 25.7492 7.74891 25.4494 7.75153C25.3872 7.75219 25.3651 7.73414 25.3658 7.66848C25.3687 7.3655 25.369 7.06284 25.3658 6.75985C25.3651 6.69223 25.3889 6.67778 25.4497 6.67942C25.6037 6.68304 25.7576 6.68074 25.9116 6.68074C26.0574 6.68074 26.2032 6.68336 26.349 6.67942C26.4099 6.67778 26.4336 6.69255 26.4326 6.75985C26.4291 7.06284 26.4287 7.3655 26.432 7.66848Z" fill="#A0A0A0"/>
</svg>
