<svg width="80" height="80" viewBox="0 0 80 80" fill="none" xmlns="http://www.w3.org/2000/svg">
<circle cx="40" cy="40" r="40" fill="#25D366"/>
<path d="M37.6955 15.578C36.598 15.6718 35.4918 15.6586 34.4075 15.915C32.0808 16.4674 29.8801 17.326 27.7995 18.507C25.3746 19.8828 23.2793 21.663 21.439 23.7377C19.8332 25.5473 18.5453 27.5751 17.5592 29.792C16.6464 31.8432 15.9489 33.9619 15.694 36.1949C15.4889 37.9868 15.5167 39.7934 15.5709 41.6015C15.6178 43.2073 15.8317 44.7736 16.2742 46.3136C16.6522 47.6322 17.0874 48.9319 17.6998 50.1641C17.9255 50.6198 18.0002 51.0784 17.8903 51.5971C17.2852 54.4498 16.7064 57.3084 16.1174 60.1641C15.8742 61.3465 15.5445 62.5202 15.5768 63.7465C15.59 64.2564 15.7541 64.4322 16.2581 64.5407C16.4486 64.5817 16.642 64.5876 16.8281 64.5641C17.6368 64.4601 18.4471 64.381 19.2456 64.1832C21.9841 63.5048 24.7299 62.8572 27.4786 62.2271C29.2705 61.8169 28.7094 61.7114 30.4442 62.444C34.009 63.9487 37.7306 64.5627 41.6046 64.2901C44.2068 64.107 46.7123 63.5487 49.1196 62.5685C52.894 61.03 56.0896 58.6784 58.7211 55.5663C61.1182 52.7326 62.7548 49.5033 63.7013 45.9194C64.3636 43.4169 64.4105 40.8703 64.3416 38.2974C64.2815 36.0747 63.8566 33.9399 63.1387 31.8623C61.7878 27.9502 59.5826 24.5861 56.5218 21.7802C54.4193 19.8535 52.0705 18.3253 49.4508 17.2117C47.8625 16.5363 46.2273 15.9898 44.5116 15.7509C41.9489 15.3949 37.694 15.5766 37.694 15.5766L37.6955 15.578ZM56.5672 49.0198C54.7929 52.2227 52.2918 54.715 49.0918 56.4938C46.9951 57.6601 44.7445 58.3707 42.3636 58.6887C41.5387 58.7985 40.7079 58.7619 40.0647 58.8498C36.7489 58.8425 33.7819 58.1172 31.0273 56.6301C30.1394 56.1509 29.3423 56.0484 28.3694 56.3224C26.516 56.8425 24.6244 57.2308 22.7489 57.6747C22.2332 57.7964 22.2288 57.7964 22.3328 57.2909C22.7929 55.0594 23.2515 52.8293 23.7218 50.6007C23.7907 50.2725 23.7702 49.9927 23.6046 49.6894C22.5204 47.6923 21.6368 45.6191 21.2339 43.3626C20.5394 39.4725 20.9526 35.7084 22.5599 32.0982C24.305 28.1788 27.0903 25.1854 30.8471 23.1341C33.9621 21.433 37.313 20.6725 40.8735 20.8498C44.2449 21.0169 47.3526 21.9956 50.1848 23.8213C53.0874 25.6923 55.3306 28.1729 56.9013 31.2528C58.2434 33.8828 58.913 36.6872 58.9423 39.6278C58.9746 42.9583 58.1819 46.1026 56.5658 49.0198H56.5672Z" fill="white"/>
<path d="M51.6101 45.0725C50.1331 44.6227 48.643 44.2124 47.1602 43.7816C46.3808 43.556 45.717 43.7465 45.1558 44.3267C44.835 44.6593 44.5156 44.9948 44.1815 45.3128C43.5134 45.9501 42.8262 46.0366 41.9925 45.6278C40.9844 45.1326 40.0775 44.4835 39.2101 43.7816C37.4093 42.3252 35.6804 40.7941 34.3427 38.8761C33.8005 38.0981 33.8137 37.3919 34.3734 36.6256C34.665 36.2271 34.9771 35.8432 35.2731 35.4476C35.676 34.9069 35.7844 34.3003 35.5236 33.6849C34.8687 32.1465 34.2137 30.6065 33.4914 29.0989C32.9698 28.0117 31.6613 27.8007 30.7412 28.589C30.4511 28.8381 30.1742 29.1033 29.8972 29.367C28.2254 30.967 27.4181 32.8674 27.7566 35.219C27.9925 36.8556 28.5068 38.3868 29.3566 39.7875C31.969 44.0981 35.5632 47.4022 39.9353 49.8608C41.8884 50.9597 43.9925 51.6249 46.5126 51.6366C48.5698 51.6659 49.9632 51.0666 51.4665 49.3978C51.8841 48.9348 52.2328 48.419 52.5844 47.9062C53.3771 46.7472 52.9537 45.4769 51.6115 45.0681L51.6101 45.0725Z" fill="white"/>
</svg>
