<svg width="35" height="36" viewBox="0 0 35 36" fill="none" xmlns="http://www.w3.org/2000/svg">
<path d="M6.24006 29.612L2.44806 24.008L2.85606 23.792L3.33606 23.6L6.73206 28.628L6.24006 29.612ZM2.28006 32V23.6H3.30006V32H2.28006ZM6.24006 29.612L5.74806 28.628L9.14406 23.6L9.62406 23.792L10.0201 23.996L6.24006 29.612ZM9.18006 32V23.6H10.1881V32H9.18006ZM14.8045 32.144C14.2205 32.144 13.7045 32.012 13.2565 31.748C12.8165 31.476 12.4685 31.104 12.2125 30.632C11.9565 30.16 11.8285 29.616 11.8285 29C11.8285 28.384 11.9525 27.84 12.2005 27.368C12.4565 26.896 12.8085 26.528 13.2565 26.264C13.7045 25.992 14.2125 25.856 14.7805 25.856C15.3405 25.856 15.8245 25.996 16.2325 26.276C16.6405 26.548 16.9565 26.932 17.1805 27.428C17.4045 27.924 17.5165 28.508 17.5165 29.18H16.5565C16.5565 28.668 16.4885 28.232 16.3525 27.872C16.2165 27.504 16.0165 27.22 15.7525 27.02C15.4885 26.82 15.1605 26.72 14.7685 26.72C14.3765 26.72 14.0325 26.816 13.7365 27.008C13.4485 27.192 13.2245 27.456 13.0645 27.8C12.9045 28.144 12.8245 28.548 12.8245 29.012C12.8245 29.468 12.9125 29.864 13.0885 30.2C13.2645 30.528 13.5045 30.788 13.8085 30.98C14.1125 31.164 14.4605 31.256 14.8525 31.256C15.2765 31.256 15.6325 31.156 15.9205 30.956C16.2085 30.756 16.4325 30.496 16.5925 30.176L17.4445 30.596C17.2845 30.908 17.0765 31.18 16.8205 31.412C16.5725 31.644 16.2805 31.824 15.9445 31.952C15.6085 32.08 15.2285 32.144 14.8045 32.144ZM12.4765 29.18V28.352H16.9285V29.18H12.4765ZM13.9525 25.148L15.3565 23.6H16.5925L15.0445 25.148H13.9525ZM23.155 32L23.107 30.884V23.6H24.067V32H23.155ZM21.079 32.144C20.543 32.144 20.071 32.012 19.663 31.748C19.255 31.484 18.935 31.116 18.703 30.644C18.479 30.164 18.367 29.616 18.367 29C18.367 28.376 18.479 27.828 18.703 27.356C18.935 26.884 19.255 26.516 19.663 26.252C20.071 25.988 20.543 25.856 21.079 25.856C21.583 25.856 22.023 25.988 22.399 26.252C22.783 26.516 23.079 26.884 23.287 27.356C23.495 27.828 23.599 28.376 23.599 29C23.599 29.616 23.495 30.164 23.287 30.644C23.079 31.116 22.783 31.484 22.399 31.748C22.023 32.012 21.583 32.144 21.079 32.144ZM21.295 31.268C21.647 31.268 21.959 31.172 22.231 30.98C22.503 30.788 22.715 30.52 22.867 30.176C23.027 29.832 23.107 29.44 23.107 29C23.107 28.56 23.027 28.168 22.867 27.824C22.715 27.48 22.503 27.212 22.231 27.02C21.959 26.828 21.643 26.732 21.283 26.732C20.907 26.732 20.571 26.828 20.275 27.02C19.987 27.212 19.759 27.48 19.591 27.824C19.423 28.168 19.339 28.56 19.339 29C19.339 29.44 19.423 29.832 19.591 30.176C19.759 30.52 19.991 30.788 20.287 30.98C20.583 31.172 20.919 31.268 21.295 31.268ZM25.8063 32L25.8303 26H26.7903L26.7663 32H25.8063ZM26.2983 24.608C26.1383 24.608 25.9983 24.548 25.8783 24.428C25.7582 24.308 25.6982 24.168 25.6982 24.008C25.6982 23.84 25.7582 23.7 25.8783 23.588C25.9983 23.468 26.1383 23.408 26.2983 23.408C26.4663 23.408 26.6063 23.468 26.7183 23.588C26.8383 23.7 26.8983 23.84 26.8983 24.008C26.8983 24.168 26.8383 24.308 26.7183 24.428C26.6063 24.548 26.4663 24.608 26.2983 24.608ZM32.2913 32L32.1953 28.832C32.1793 28.36 32.1193 27.972 32.0153 27.668C31.9113 27.356 31.7513 27.124 31.5353 26.972C31.3193 26.812 31.0313 26.732 30.6713 26.732C30.3273 26.732 30.0273 26.8 29.7713 26.936C29.5233 27.072 29.3193 27.284 29.1593 27.572L28.3073 27.224C28.4593 26.944 28.6473 26.704 28.8713 26.504C29.0953 26.296 29.3593 26.136 29.6633 26.024C29.9673 25.912 30.3073 25.856 30.6833 25.856C31.2353 25.856 31.6953 25.964 32.0633 26.18C32.4313 26.396 32.7033 26.72 32.8793 27.152C33.0633 27.576 33.1553 28.108 33.1553 28.748V32H32.2913ZM30.4673 32.144C29.7553 32.144 29.1993 31.984 28.7993 31.664C28.4073 31.336 28.2113 30.884 28.2113 30.308C28.2113 29.7 28.4113 29.236 28.8113 28.916C29.2193 28.588 29.7873 28.424 30.5153 28.424H32.6273V29.228H30.7313C30.1713 29.228 29.7713 29.32 29.5313 29.504C29.2993 29.688 29.1833 29.952 29.1833 30.296C29.1833 30.608 29.2993 30.856 29.5313 31.04C29.7633 31.216 30.0873 31.304 30.5033 31.304C30.8553 31.304 31.1593 31.224 31.4153 31.064C31.6713 30.904 31.8673 30.688 32.0033 30.416C32.1393 30.136 32.2073 29.82 32.2073 29.468H32.7953C32.7953 30.284 32.5953 30.936 32.1953 31.424C31.7953 31.904 31.2193 32.144 30.4673 32.144Z" fill="#A0A0A0"/>
<path d="M24.3636 16.3286C24.077 16.3147 23.7899 16.3252 23.5029 16.3244C23.2917 16.3238 23.1861 16.2182 23.1861 16.0074C23.1861 11.3049 23.1861 6.60197 23.1861 1.89946C23.1861 1.80998 23.189 1.72008 23.1819 1.63061C23.158 1.33602 23.04 1.19463 22.7605 1.12415H11.8015C11.5219 1.19505 11.4039 1.33602 11.3801 1.63061C11.373 1.72008 11.3759 1.80956 11.3759 1.89946C11.3759 6.61801 11.3759 11.3366 11.3759 16.0547C11.3759 16.3235 11.3755 16.3227 11.106 16.3244C10.793 16.3265 10.4796 16.3109 10.1674 16.3316C9.89496 16.3497 9.7054 16.5477 9.68908 16.8072C9.67151 17.0828 9.80039 17.2529 10.0799 17.3238H24.4825C24.7453 17.2571 24.867 17.1166 24.8742 16.8705C24.8834 16.565 24.6804 16.3438 24.3636 16.3286ZM18.7546 16.3771C17.7695 16.3729 16.7841 16.3733 15.799 16.3771C15.7019 16.3771 15.6789 16.3531 15.6793 16.2556C15.6831 15.26 15.6831 14.2643 15.6793 13.2691C15.6793 13.1666 15.7044 13.1387 15.8074 13.1392C16.7924 13.1434 17.7775 13.143 18.763 13.1392C18.8605 13.1392 18.8839 13.1645 18.8826 13.2615C18.8776 13.7566 18.8801 14.2517 18.8801 14.7468C18.8801 15.2418 18.8772 15.7474 18.8826 16.248C18.8839 16.3514 18.8567 16.3776 18.7546 16.3771ZM22.0157 16.3784C21.3478 16.3704 20.6799 16.3704 20.0121 16.3784C19.8635 16.3801 19.8133 16.3556 19.8146 16.1876C19.8238 15.0435 19.8196 13.8993 19.8192 12.7551C19.8192 12.3685 19.648 12.1929 19.2697 12.1925C17.9445 12.1921 16.6192 12.1925 15.2935 12.1925C14.9144 12.1925 14.742 12.3681 14.742 12.7526C14.742 13.9073 14.7395 15.062 14.7453 16.2168C14.7462 16.3514 14.7106 16.3793 14.583 16.3776C13.9046 16.3708 13.2263 16.3704 12.548 16.3776C12.4116 16.3788 12.3672 16.3518 12.3672 16.2016C12.3722 12.7952 12.371 9.38921 12.371 5.98282C12.371 4.73312 12.3731 3.48342 12.3676 2.23372C12.3672 2.10331 12.3969 2.06954 12.5283 2.06954C15.6957 2.07376 18.863 2.07376 22.0303 2.06954C22.1583 2.06954 22.1935 2.0974 22.1931 2.23119C22.1885 4.56177 22.1897 6.89235 22.1897 9.22292C22.1897 11.5535 22.1881 13.8735 22.1931 16.199C22.1931 16.3446 22.1558 16.3793 22.0148 16.3776L22.0157 16.3784Z" fill="#A0A0A0"/>
<path d="M21.0638 3.75118C21.0629 3.41607 20.8696 3.22066 20.539 3.21981C19.8088 3.21855 19.079 3.21855 18.3488 3.21981C18.0099 3.22024 17.819 3.41523 17.8182 3.76131C17.817 4.49357 17.817 5.22625 17.8182 5.95852C17.8186 6.30291 18.0111 6.49706 18.3509 6.4979C18.7108 6.49917 19.0707 6.4979 19.4305 6.4979C19.7904 6.4979 20.1607 6.49875 20.5256 6.4979C20.8684 6.49706 21.0629 6.30587 21.0638 5.964C21.0655 5.22626 21.0655 4.48893 21.0638 3.75118ZM20.0068 5.55039C19.8193 5.54575 19.6314 5.5487 19.4439 5.5487C19.2565 5.5487 19.0686 5.54406 18.8811 5.55081C18.7895 5.55377 18.7535 5.53351 18.7551 5.43095C18.7614 5.04646 18.7593 4.66197 18.756 4.27748C18.7551 4.19771 18.7748 4.16606 18.8602 4.1669C19.246 4.1707 19.6318 4.17028 20.0172 4.1669C20.0955 4.16606 20.1277 4.18505 20.1269 4.27157C20.1227 4.66113 20.1218 5.0511 20.1269 5.44108C20.1281 5.539 20.0879 5.5525 20.0068 5.55039Z" fill="#A0A0A0"/>
<path d="M16.2126 3.22006C15.4824 3.2188 14.7526 3.2188 14.0223 3.22006C13.6913 3.22091 13.498 3.41632 13.4972 3.75058C13.4955 4.48833 13.4959 5.22608 13.4972 5.96383C13.498 6.30527 13.6926 6.4973 14.0349 6.49815C14.3948 6.49899 14.7547 6.49815 15.1141 6.49815C15.479 6.49815 15.8443 6.49899 16.2092 6.49815C16.5494 6.4973 16.7419 6.304 16.7423 5.95919C16.7436 5.22692 16.7436 4.49424 16.7423 3.76198C16.7419 3.41505 16.5524 3.22048 16.2126 3.22006ZM15.7046 5.55064C15.5066 5.54684 15.3083 5.54937 15.1103 5.54937C14.9229 5.54937 14.735 5.54684 14.5475 5.55064C14.4743 5.55191 14.4337 5.5422 14.4345 5.45061C14.4391 5.05557 14.4383 4.66053 14.4349 4.26549C14.4345 4.18741 14.4634 4.16757 14.5354 4.16799C14.9262 4.17053 15.3175 4.17095 15.7083 4.16799C15.7849 4.16757 15.8054 4.19585 15.805 4.26929C15.8021 4.66433 15.8021 5.05937 15.805 5.45441C15.8058 5.53334 15.7765 5.55233 15.7046 5.55064Z" fill="#A0A0A0"/>
<path d="M16.7424 8.16451C16.7415 7.83151 16.547 7.64158 16.213 7.64032C15.8531 7.63905 15.4937 7.64032 15.1338 7.64032C14.7585 7.64032 14.3831 7.63863 14.0077 7.64074C13.6951 7.64243 13.4993 7.83699 13.4981 8.15269C13.4955 8.90099 13.496 9.64887 13.4981 10.3972C13.4989 10.7146 13.6889 10.9112 14.004 10.9129C14.7497 10.9167 15.4954 10.9171 16.2406 10.9129C16.5549 10.9112 16.7415 10.7146 16.7428 10.3934C16.7449 9.65056 16.7445 8.90774 16.7424 8.16451ZM15.8054 9.84934C15.8063 9.93797 15.7833 9.96794 15.6925 9.9671C15.3125 9.96245 14.9321 9.9633 14.5522 9.9671C14.4685 9.96794 14.4329 9.94979 14.4341 9.85483C14.4392 9.47076 14.4387 9.08669 14.4341 8.70262C14.4329 8.61315 14.4584 8.58529 14.5471 8.58825C14.7396 8.59458 14.9325 8.59036 15.125 8.59036C15.3175 8.59036 15.5 8.59373 15.6874 8.58867C15.7695 8.58656 15.8071 8.60007 15.8059 8.69756C15.8 9.08163 15.8008 9.46527 15.8054 9.84934Z" fill="#A0A0A0"/>
<path d="M21.0638 8.16402C21.0629 7.83651 20.8704 7.64194 20.5495 7.64067C20.1846 7.63899 19.8197 7.64067 19.4544 7.64067C19.084 7.64067 18.7141 7.63983 18.3438 7.64067C18.0107 7.64194 17.8195 7.83271 17.8186 8.16909C17.8169 8.90683 17.8174 9.64458 17.8186 10.3819C17.8195 10.72 18.0061 10.912 18.3409 10.9133C19.0761 10.9158 19.8113 10.9162 20.5466 10.9133C20.873 10.912 21.0629 10.7196 21.0638 10.3929C21.0659 9.65007 21.0659 8.90683 21.0638 8.16402ZM20.1268 9.85941C20.1277 9.94382 20.0996 9.96703 20.0197 9.96619C19.6343 9.96281 19.2489 9.96281 18.8635 9.96619C18.7836 9.96703 18.7551 9.94382 18.756 9.85941C18.7597 9.46985 18.7602 9.08072 18.756 8.69116C18.7551 8.60422 18.7857 8.58565 18.8639 8.58776C19.0619 8.5924 19.2598 8.58945 19.4577 8.58945C19.6452 8.58945 19.8327 8.59283 20.0201 8.58776C20.0984 8.58565 20.1289 8.60464 20.1277 8.69116C20.1231 9.08072 20.1227 9.46985 20.1268 9.85941Z" fill="#A0A0A0"/>
</svg>
