<svg width="32" height="32" viewBox="0 0 32 32" fill="none" xmlns="http://www.w3.org/2000/svg">
<circle cx="16" cy="16" r="16" fill="#BD1D1D"/>
<path d="M16.8106 8.09306C13.5625 8.09306 10.3775 10.2374 10.3775 13.7378C10.3775 15.9453 11.6074 17.2067 12.3642 17.2067C12.6796 17.2067 12.8688 16.3552 12.8688 16.103C12.8688 15.8191 12.1119 15.1884 12.1119 13.9586C12.1119 11.4358 14.0356 9.63828 16.5268 9.63828C18.7027 9.63828 20.2795 10.8681 20.2795 13.1071C20.2795 14.7785 19.6173 17.9004 17.4413 17.9004C16.653 17.9004 15.9592 17.3328 15.9592 16.5444C15.9592 15.3461 16.8106 14.1793 16.8106 12.9495C16.8106 10.8681 13.8463 11.2466 13.8463 13.7694C13.8463 14.3055 13.9094 14.8731 14.1617 15.3776C13.7202 17.2382 12.8372 20.0448 12.8372 21.9685C12.8372 22.5676 12.9003 23.1353 12.9634 23.7344C13.058 23.8606 13.0264 23.8606 13.1841 23.7975C14.7609 21.6216 14.7293 21.1801 15.4231 18.3419C15.8331 19.0672 16.8106 19.4772 17.6305 19.4772C20.9733 19.4772 22.4869 16.1976 22.4869 13.2648C22.4869 10.1428 19.7749 8.09306 16.8106 8.09306Z" fill="white"/>
</svg>
