<svg width="32" height="32" viewBox="0 0 32 32" fill="none" xmlns="http://www.w3.org/2000/svg">
<path d="M24.6607 7.74107C22.6473 5.67857 19.8973 4.5 16.9509 4.5C10.9598 4.5 6.04911 9.41071 6.04911 15.4018C6.04911 17.3661 6.58929 19.2321 7.52232 20.8527L6 26.5L11.7455 25.0268C13.3661 25.8616 15.1339 26.3527 16.9509 26.3527C22.9911 26.3527 28 21.442 28 15.4509C28 12.5045 26.7232 9.80357 24.6607 7.74107ZM16.9509 24.4866C15.3304 24.4866 13.7589 24.0446 12.3348 23.2098L12.0402 23.0134L8.60268 23.9464L9.53571 20.6071L9.29018 20.2634C8.40625 18.7902 7.91518 17.1205 7.91518 15.4018C7.91518 10.442 11.9911 6.36607 17 6.36607C19.4063 6.36607 21.6652 7.29911 23.3839 9.01786C25.1027 10.7366 26.1339 12.9955 26.1339 15.4509C26.1339 20.4107 21.9598 24.4866 16.9509 24.4866ZM21.9598 17.7098C21.6652 17.5625 20.3393 16.9241 20.0938 16.8259C19.8482 16.7277 19.6518 16.6786 19.4554 16.9732C19.308 17.2188 18.7679 17.8571 18.6205 18.0536C18.4241 18.2009 18.2768 18.25 18.0313 18.1027C16.4107 17.317 15.3795 16.6786 14.2991 14.8616C14.0045 14.3705 14.5938 14.4196 15.0848 13.3884C15.183 13.192 15.1339 13.0446 15.0848 12.8973C15.0357 12.75 14.4464 11.4241 14.25 10.8839C14.0045 10.3438 13.808 10.3929 13.6116 10.3929C13.4643 10.3929 13.2679 10.3929 13.1205 10.3929C12.9241 10.3929 12.6295 10.442 12.3839 10.7366C12.1384 11.0313 11.4509 11.6696 11.4509 12.9955C11.4509 14.3705 12.3839 15.6473 12.5313 15.8438C12.6786 15.9911 14.4464 18.7411 17.1964 19.9196C18.9152 20.7054 19.6027 20.7545 20.4866 20.6071C20.9777 20.558 22.058 19.9688 22.3036 19.3304C22.5491 18.692 22.5491 18.1518 22.4509 18.0536C22.4018 17.9063 22.2054 17.8571 21.9598 17.7098Z" fill="#11C064"/>
</svg>
