<svg width="32" height="32" viewBox="0 0 32 32" fill="none" xmlns="http://www.w3.org/2000/svg">
<circle cx="16" cy="16" r="16" fill="#BD1D1D"/>
<path d="M21.4195 10.9627C20.1265 9.63828 18.3606 8.88144 16.4685 8.88144C12.6212 8.88144 9.46769 12.0349 9.46769 15.8822C9.46769 17.1436 9.81458 18.3419 10.4137 19.3826L9.43616 23.0091L13.1258 22.0631C14.1664 22.5992 15.3017 22.9145 16.4685 22.9145C20.3473 22.9145 23.5638 19.761 23.5638 15.9137C23.5638 14.0216 22.7439 12.2872 21.4195 10.9627ZM16.4685 21.7162C15.4278 21.7162 14.4187 21.4324 13.5042 20.8963L13.315 20.7701L11.1075 21.3693L11.7067 19.2249L11.549 19.0042C10.9814 18.0581 10.666 16.9859 10.666 15.8822C10.666 12.6972 13.2834 10.0798 16.5 10.0798C18.0452 10.0798 19.4958 10.6789 20.5996 11.7827C21.7033 12.8864 22.3655 14.337 22.3655 15.9137C22.3655 19.0988 19.685 21.7162 16.4685 21.7162ZM19.685 17.3644C19.4958 17.2697 18.6444 16.8598 18.4867 16.7967C18.329 16.7337 18.2029 16.7021 18.0768 16.8913C17.9821 17.049 17.6353 17.459 17.5407 17.5851C17.4145 17.6797 17.3199 17.7112 17.1622 17.6166C16.1216 17.1121 15.4593 16.7021 14.7656 15.5353C14.5764 15.22 14.9548 15.2515 15.2701 14.5893C15.3332 14.4631 15.3017 14.3685 15.2701 14.2739C15.2386 14.1793 14.8602 13.3279 14.734 12.981C14.5764 12.6341 14.4502 12.6656 14.3241 12.6656C14.2295 12.6656 14.1033 12.6656 14.0087 12.6656C13.8826 12.6656 13.6934 12.6972 13.5357 12.8864C13.378 13.0756 12.9365 13.4855 12.9365 14.337C12.9365 15.22 13.5357 16.0399 13.6303 16.166C13.7249 16.2606 14.8602 18.0266 16.6261 18.7834C17.7299 19.288 18.1714 19.3195 18.739 19.2249C19.0543 19.1934 19.7481 18.815 19.9058 18.405C20.0635 17.9951 20.0635 17.6482 20.0004 17.5851C19.9689 17.4905 19.8427 17.459 19.685 17.3644Z" fill="white"/>
</svg>
