<svg width="24" height="24" viewBox="0 0 24 24" fill="none" xmlns="http://www.w3.org/2000/svg">
<path d="M19.5 10.2273C19.5 16.4318 12 21.75 12 21.75C12 21.75 4.5 16.4318 4.5 10.2273C4.5 8.11157 5.29018 6.08252 6.6967 4.58649C8.10322 3.09046 10.0109 2.25 12 2.25C13.9891 2.25 15.8968 3.09046 17.3033 4.58649C18.7098 6.08252 19.5 8.11157 19.5 10.2273Z" stroke="#BD1D1D" stroke-width="1.5" stroke-linecap="round" stroke-linejoin="round"/>
<path d="M12 12.8864C13.3807 12.8864 14.5 11.6958 14.5 10.2273C14.5 8.7587 13.3807 7.56818 12 7.56818C10.6193 7.56818 9.5 8.7587 9.5 10.2273C9.5 11.6958 10.6193 12.8864 12 12.8864Z" stroke="#BD1D1D" stroke-width="1.5" stroke-linecap="round" stroke-linejoin="round"/>
</svg>
