<svg width="15" height="16" viewBox="0 0 15 16" fill="none" xmlns="http://www.w3.org/2000/svg">
<path d="M7.5 4.36428C5.49125 4.36428 3.89053 5.99639 3.89053 7.97375C3.89053 9.9825 5.49125 11.5832 7.5 11.5832C9.47736 11.5832 11.1095 9.9825 11.1095 7.97375C11.1095 5.99639 9.47736 4.36428 7.5 4.36428ZM7.5 10.3278C6.21314 10.3278 5.146 9.29199 5.146 7.97375C5.146 6.68689 6.18176 5.65113 7.5 5.65113C8.78686 5.65113 9.82262 6.68689 9.82262 7.97375C9.82262 9.29199 8.78686 10.3278 7.5 10.3278ZM12.0825 4.23873C12.0825 4.70953 11.7058 5.08617 11.235 5.08617C10.7642 5.08617 10.3876 4.70953 10.3876 4.23873C10.3876 3.76793 10.7642 3.39129 11.235 3.39129C11.7058 3.39129 12.0825 3.76793 12.0825 4.23873ZM14.4679 5.08617C14.4051 3.95625 14.154 2.95188 13.3379 2.13582C12.5219 1.31977 11.5175 1.06867 10.3876 1.0059C9.22627 0.943125 5.74234 0.943125 4.58104 1.0059C3.45111 1.06867 2.47813 1.31977 1.63068 2.13582C0.814629 2.95188 0.563535 3.95625 0.500762 5.08617C0.437988 6.24748 0.437988 9.73141 0.500762 10.8927C0.563535 12.0226 0.814629 12.9956 1.63068 13.8431C2.47813 14.6591 3.45111 14.9102 4.58104 14.973C5.74234 15.0358 9.22627 15.0358 10.3876 14.973C11.5175 14.9102 12.5219 14.6591 13.3379 13.8431C14.154 12.9956 14.4051 12.0226 14.4679 10.8927C14.5306 9.73141 14.5306 6.24748 14.4679 5.08617ZM12.9613 12.1168C12.7416 12.7445 12.2394 13.2153 11.643 13.4664C10.7014 13.8431 8.50437 13.7489 7.5 13.7489C6.46424 13.7489 4.26717 13.8431 3.35695 13.4664C2.72922 13.2153 2.25842 12.7445 2.00732 12.1168C1.63068 11.2066 1.72484 9.00951 1.72484 7.97375C1.72484 6.96938 1.63068 4.7723 2.00732 3.8307C2.25842 3.23436 2.72922 2.76355 3.35695 2.51246C4.26717 2.13582 6.46424 2.22998 7.5 2.22998C8.50437 2.22998 10.7014 2.13582 11.643 2.51246C12.2394 2.73217 12.7102 3.23436 12.9613 3.8307C13.3379 4.7723 13.2438 6.96938 13.2438 7.97375C13.2438 9.00951 13.3379 11.2066 12.9613 12.1168Z" fill="#1D1D1B"/>
</svg>
