<svg width="48" height="48" viewBox="0 0 48 48" fill="none" xmlns="http://www.w3.org/2000/svg">
<path d="M3 13.7754H8.37667L11.979 31.7738C12.102 32.3926 12.4386 32.9485 12.9301 33.3442C13.4216 33.7398 14.0365 33.95 14.6674 33.9379H27.7327C28.3635 33.95 28.9785 33.7398 29.47 33.3442C29.9614 32.9485 30.2981 32.3926 30.421 31.7738L32.5717 20.4962H9.72084M15.0975 40.6587C15.0975 41.4011 14.4957 42.0029 13.7533 42.0029C13.011 42.0029 12.4092 41.4011 12.4092 40.6587C12.4092 39.9164 13.011 39.3146 13.7533 39.3146C14.4957 39.3146 15.0975 39.9164 15.0975 40.6587ZM29.8833 40.6587C29.8833 41.4011 29.2815 42.0029 28.5392 42.0029C27.7968 42.0029 27.195 41.4011 27.195 40.6587C27.195 39.9164 27.7968 39.3146 28.5392 39.3146C29.2815 39.3146 29.8833 39.9164 29.8833 40.6587Z" stroke="#BD1D1D" stroke-width="2.35229" stroke-linecap="round" stroke-linejoin="round"/>
<path fill-rule="evenodd" clip-rule="evenodd" d="M32.5723 12.4286C32.5723 8.86373 35.4359 6 39.0009 6C42.5659 6 45.4295 8.86373 45.4295 12.4286C45.4295 15.9935 42.5659 18.8573 39.0009 18.8573C35.4359 18.8573 32.5723 15.9935 32.5723 12.4286ZM42.1271 10.1242L39.9255 12.3258C39.8669 12.3847 39.8669 12.4726 39.9255 12.5314L42.1271 14.733C42.1859 14.7917 42.2152 14.8798 42.2152 14.9384C42.2152 14.9971 42.1859 15.0852 42.1271 15.1438L41.7162 15.5549C41.6574 15.6135 41.5694 15.6429 41.5107 15.6429C41.4519 15.6429 41.364 15.6135 41.3052 15.5549L39.1036 13.3533C39.0449 13.2946 38.9568 13.2946 38.8982 13.3533L36.6966 15.5549C36.6378 15.6135 36.5498 15.6429 36.4911 15.6429C36.4324 15.6429 36.3443 15.6135 36.2856 15.5549L35.8747 15.1438C35.8159 15.0852 35.7866 14.9971 35.7866 14.9384C35.7866 14.8798 35.8159 14.7917 35.8747 14.733L38.0763 12.5314C38.1349 12.4726 38.1349 12.3847 38.0763 12.3258L35.8747 10.1242C35.8159 10.0656 35.7866 9.97748 35.7866 9.91882C35.7866 9.86016 35.8159 9.77207 35.8747 9.71341L36.2856 9.3024C36.3443 9.24374 36.4324 9.21431 36.4911 9.21431C36.5498 9.21431 36.6378 9.24374 36.6966 9.3024L38.8982 11.504C38.9568 11.5627 39.0449 11.5627 39.1036 11.504L41.3052 9.3024C41.364 9.24374 41.4226 9.21431 41.5107 9.21431C41.5694 9.21431 41.6574 9.24374 41.7162 9.3024L42.1271 9.71341C42.1859 9.77207 42.2152 9.86016 42.2152 9.91882C42.2152 9.97748 42.1859 10.0656 42.1271 10.1242Z" fill="#BD1D1D"/>
</svg>
