<svg width="19" height="13" viewBox="0 0 19 13" fill="none" xmlns="http://www.w3.org/2000/svg">
<path d="M17.6919 2.86209C17.5036 2.10881 16.9073 1.51246 16.1854 1.32414C14.8357 0.9475 9.5 0.9475 9.5 0.9475C9.5 0.9475 4.13287 0.9475 2.78324 1.32414C2.06135 1.51246 1.465 2.10881 1.27668 2.86209C0.900039 4.18033 0.900039 7.00514 0.900039 7.00514C0.900039 7.00514 0.900039 9.79855 1.27668 11.1482C1.465 11.9015 2.06135 12.4664 2.78324 12.6547C4.13287 13 9.5 13 9.5 13C9.5 13 14.8357 13 16.1854 12.6547C16.9073 12.4664 17.5036 11.9015 17.6919 11.1482C18.0686 9.79855 18.0686 7.00514 18.0686 7.00514C18.0686 7.00514 18.0686 4.18033 17.6919 2.86209ZM7.74234 9.54746V4.46281L12.1993 7.00514L7.74234 9.54746Z" fill="#1D1D1B"/>
</svg>
