<svg width="21" height="20" viewBox="0 0 21 20" fill="none" xmlns="http://www.w3.org/2000/svg">
<path d="M1.25 1H4.67857L6.97571 12.4771C7.0541 12.8718 7.26878 13.2263 7.58218 13.4785C7.89559 13.7308 8.28774 13.8649 8.69 13.8571H17.0214C17.4237 13.8649 17.8158 13.7308 18.1292 13.4785C18.4427 13.2263 18.6573 12.8718 18.7357 12.4771L20.1071 5.28571H5.53571M8.96429 18.1429C8.96429 18.6162 8.58053 19 8.10714 19C7.63376 19 7.25 18.6162 7.25 18.1429C7.25 17.6695 7.63376 17.2857 8.10714 17.2857C8.58053 17.2857 8.96429 17.6695 8.96429 18.1429ZM18.3929 18.1429C18.3929 18.6162 18.0091 19 17.5357 19C17.0623 19 16.6786 18.6162 16.6786 18.1429C16.6786 17.6695 17.0623 17.2857 17.5357 17.2857C18.0091 17.2857 18.3929 17.6695 18.3929 18.1429Z" stroke="white" stroke-width="1.5" stroke-linecap="round" stroke-linejoin="round"/>
</svg>
