<svg width="124" height="37" viewBox="0 0 124 37" fill="none" xmlns="http://www.w3.org/2000/svg">
<g clip-path="url(#clip0_4818_45326)">
<path d="M4.83353 23.2368C4.54443 23.2486 4.25532 23.2136 3.97748 23.1329C3.83371 23.087 3.70945 22.9944 3.62452 22.8698C3.53667 22.7228 3.48604 22.5567 3.47702 22.3857C3.45331 22.1516 3.44277 21.8688 3.44277 21.5346V2.71894C3.44277 1.77053 3.19649 1.08914 2.7092 0.695836C2.22191 0.302526 1.62267 0.122314 0.878566 0.122314C0.760036 0.122314 0.547998 0.135467 0.241136 0.157829C0.175228 0.163445 0.113849 0.193623 0.0691954 0.242365C0.0245423 0.291107 -0.000115557 0.354845 0.000123797 0.420912V21.436C0.000123797 21.849 0.0172448 22.2779 0.0514869 22.7106C0.0825671 23.1431 0.196581 23.5655 0.387324 23.955C0.586533 24.3473 0.89713 24.6721 1.28025 24.889C1.67535 25.1205 2.22323 25.2323 2.94231 25.2323C3.30384 25.2316 3.66496 25.2083 4.02357 25.1626C4.32632 25.1292 4.62528 25.0675 4.9165 24.9784C4.96794 24.9608 5.01264 24.9276 5.04448 24.8836C5.07631 24.8395 5.09371 24.7867 5.0943 24.7324V23.4959C5.09327 23.4273 5.06543 23.3618 5.01671 23.3134C4.96799 23.2649 4.90226 23.2375 4.83353 23.2368Z" fill="white"/>
<path d="M21.3562 16.6284C21.3612 15.5275 21.219 14.4309 20.9335 13.3675C20.6706 12.3693 20.2112 11.4333 19.5822 10.6143C18.9417 9.80152 18.1218 9.14742 17.1866 8.70304C16.216 8.22949 15.0201 7.98877 13.6307 7.98877C12.3137 7.98877 11.1455 8.22949 10.1643 8.70172C9.21182 9.15198 8.36741 9.80157 7.68836 10.6064C7.01054 11.4271 6.50287 12.3741 6.19487 13.3925C5.86228 14.4744 5.69619 15.6006 5.70231 16.7323C5.69779 17.8612 5.83899 18.9859 6.12244 20.0788C6.38172 21.0995 6.84148 22.0586 7.475 22.9003C8.11493 23.7256 8.94184 24.3874 9.88775 24.8313C10.8702 25.3036 12.0832 25.543 13.4924 25.543C14.9016 25.543 16.1264 25.2917 17.1142 24.7945C18.0747 24.3271 18.913 23.6425 19.5625 22.7951C20.2009 21.9422 20.6653 20.9723 20.9295 19.9406C21.2136 18.8595 21.357 17.7462 21.3562 16.6284ZM17.7411 16.6626C17.7394 17.3734 17.6777 18.0827 17.5567 18.7831C17.4485 19.4457 17.2309 20.0858 16.9127 20.6773C16.6063 21.2278 16.1638 21.6906 15.6273 22.0216C15.0754 22.3702 14.3603 22.5478 13.4977 22.5478C12.6587 22.5478 11.9673 22.3768 11.4405 22.04C10.9115 21.6848 10.4691 21.2155 10.1459 20.6667C9.80832 20.0836 9.57983 19.444 9.47158 18.7791C9.35035 18.0788 9.28867 17.3694 9.2872 16.6587C9.28718 15.9672 9.36002 15.2776 9.50451 14.6014C9.63548 13.9631 9.87467 13.3518 10.2117 12.794C10.534 12.27 10.9816 11.8342 11.5143 11.5259C12.0555 11.2076 12.747 11.0458 13.5662 11.0458C14.4314 11.0458 15.1373 11.2076 15.6668 11.5246C16.1862 11.8295 16.6166 12.2648 16.9153 12.7874C17.2288 13.3499 17.4443 13.9615 17.5527 14.5961C17.6764 15.2776 17.7394 15.9687 17.7411 16.6613V16.6626Z" fill="white"/>
<path d="M25.1921 1.1181C24.9103 1.11235 24.6303 1.16543 24.3702 1.27393C24.1101 1.38242 23.8755 1.54395 23.6815 1.74818C23.4785 1.95985 23.32 2.20996 23.2153 2.48376C23.1105 2.75756 23.0617 3.04953 23.0717 3.34246C23.0647 3.62459 23.1142 3.90526 23.2174 4.16797C23.3207 4.43067 23.4755 4.67008 23.6728 4.87211C23.8701 5.07413 24.1058 5.23468 24.3662 5.3443C24.6266 5.45392 24.9062 5.51039 25.1888 5.51039C25.4713 5.51039 25.751 5.45392 26.0114 5.3443C26.2718 5.23468 26.5075 5.07413 26.7048 4.87211C26.9021 4.67008 27.0569 4.43067 27.1602 4.16797C27.2634 3.90526 27.3129 3.62459 27.3059 3.34246C27.3154 3.05061 27.2666 2.75978 27.1623 2.48696C27.0581 2.21414 26.9005 1.96479 26.6987 1.75344C26.5054 1.54908 26.2716 1.38708 26.0122 1.27771C25.7529 1.16834 25.4736 1.11398 25.1921 1.1181Z" fill="white"/>
<path d="M24.4011 8.15942C24.2825 8.15942 24.0692 8.17126 23.7636 8.19363C23.6977 8.19924 23.6363 8.22942 23.5917 8.27816C23.547 8.3269 23.5224 8.39064 23.5226 8.45671V26.4148C23.5226 27.5868 23.3027 28.4707 22.8641 29.0456C22.4479 29.5954 21.5827 29.8953 20.2946 29.9388C20.2269 29.9418 20.1629 29.9709 20.116 30.0199C20.0691 30.0689 20.043 30.1341 20.0431 30.2018C20.0427 30.4995 20.0607 30.7969 20.0971 31.0924C20.1295 31.3778 20.2157 31.6546 20.3513 31.9079C20.4916 32.1571 20.6974 32.3631 20.9466 32.5038C21.2799 32.6699 21.6506 32.747 22.0226 32.7274C22.4939 32.7157 22.9627 32.6544 23.4212 32.5446C24.031 32.3961 24.5941 32.0982 25.0596 31.6777C25.5785 31.2318 26.0302 30.582 26.4003 29.7493C26.7704 28.9167 26.9561 27.7762 26.9561 26.3806V10.7547C26.9561 9.80764 26.7098 9.12757 26.2225 8.73295C25.7352 8.33832 25.1425 8.15942 24.4011 8.15942Z" fill="white"/>
<path d="M43.6523 23.3655C43.3874 23.371 43.1226 23.3494 42.8621 23.3011C42.7189 23.2777 42.5882 23.2057 42.492 23.0972C42.3781 22.9317 42.3091 22.7395 42.2918 22.5395C42.2411 22.1249 42.2191 21.7074 42.226 21.2898V14.5233C42.2378 13.6225 42.1374 12.7238 41.927 11.8478C41.7464 11.098 41.3743 10.4078 40.8471 9.84438C40.2919 9.2831 39.6045 8.87014 38.8479 8.6434C38.0471 8.38032 37.037 8.24878 35.8464 8.24878C35.1295 8.25063 34.4139 8.30913 33.7063 8.42373C33.0305 8.52857 32.3655 8.69321 31.7189 8.9157C31.1897 9.09255 30.6875 9.34178 30.2268 9.65628C29.7908 9.97066 29.5683 10.3245 29.5683 10.7086C29.5832 11.0252 29.6531 11.3368 29.775 11.6294C29.9035 11.9811 30.0667 12.319 30.2623 12.6383C30.2858 12.6759 30.3184 12.7069 30.3571 12.7285C30.3957 12.7501 30.4393 12.7616 30.4836 12.762H30.8273C30.8796 12.7621 30.9307 12.746 30.9735 12.7159C31.5967 12.2842 32.2709 11.9307 32.9806 11.6636C33.6589 11.4137 34.5083 11.2861 35.504 11.2861C36.821 11.2861 37.7087 11.5294 38.1485 12.0082C38.5884 12.487 38.8189 13.2276 38.8189 14.1879L38.8531 20.4019C38.8344 20.6609 38.7281 20.9058 38.5515 21.0964C38.29 21.4024 37.9782 21.6617 37.6296 21.8633C37.1992 22.1204 36.7393 22.3249 36.26 22.4724C35.7351 22.6376 35.1877 22.7206 34.6374 22.7183C33.6022 22.7183 32.8963 22.4855 32.5394 22.0278C32.1639 21.5567 31.9641 20.9698 31.9744 20.3677C31.9744 19.7021 32.1496 19.1654 32.5012 18.7695C32.8891 18.3367 33.3737 18.0014 33.9157 17.7908C34.5566 17.5356 35.2283 17.3658 35.9136 17.2857C36.4786 17.2173 37.0712 17.1765 37.7284 17.162C37.7879 17.1598 37.8449 17.1376 37.8901 17.0989C37.9353 17.0602 37.9661 17.0073 37.9773 16.9489C37.9773 16.9187 37.9865 16.9003 38.0076 15.7651C38.0106 15.5887 37.977 15.4137 37.909 15.251C37.841 15.0882 37.7401 14.9412 37.6125 14.8193C37.4864 14.7009 37.3372 14.6096 37.1744 14.551C37.0115 14.4924 36.8384 14.4678 36.6656 14.4786C36.0071 14.5233 35.371 14.593 34.7928 14.6838C33.7713 14.8429 32.7792 15.1533 31.8493 15.6046C30.9404 16.0418 30.1405 16.6759 29.5077 17.4606C28.865 18.2617 28.5397 19.3022 28.5397 20.5427C28.5397 21.5424 28.7109 22.3842 29.0507 23.0327C29.3577 23.6459 29.8004 24.1812 30.3453 24.5981C30.8655 24.9845 31.4615 25.2571 32.0943 25.3979C32.7052 25.5375 33.3298 25.609 33.9565 25.6109C35.2972 25.6109 36.4009 25.3992 37.2372 24.9835C37.8802 24.6666 38.4799 24.2687 39.0217 23.7996C39.0884 24.063 39.2086 24.3099 39.3749 24.5249C39.5412 24.7399 39.75 24.9184 39.9884 25.0493C40.5981 25.365 41.2773 25.5228 41.9639 25.5083C42.2879 25.509 42.6115 25.4853 42.9319 25.4373C43.2027 25.3993 43.4697 25.3381 43.73 25.2545C43.7814 25.2368 43.8261 25.2037 43.858 25.1597C43.8898 25.1156 43.9072 25.0628 43.9078 25.0085V23.6247C43.9068 23.5569 43.8797 23.4922 43.8321 23.4439C43.7845 23.3956 43.7201 23.3676 43.6523 23.3655Z" fill="white"/>
<path d="M56.3841 17.9185C56.0909 17.326 55.6661 16.8081 55.1422 16.4045C54.604 15.9992 54.0089 15.6757 53.3761 15.4442C52.715 15.1968 52.0383 14.9929 51.3505 14.8339C50.5335 14.652 49.7386 14.3821 48.9799 14.0288C48.719 13.9169 48.4988 13.7278 48.349 13.4869C48.1992 13.246 48.1271 12.965 48.1423 12.6818C48.1298 12.3691 48.2225 12.0611 48.4057 11.8071C48.5828 11.5696 48.8152 11.3786 49.0826 11.2507C49.3744 11.111 49.6849 11.0144 50.0045 10.9639C50.3149 10.9116 50.6288 10.8838 50.9436 10.881C51.7314 10.8776 52.51 11.0506 53.222 11.3875C53.9292 11.7255 54.4718 12.1241 54.8327 12.5713C54.8592 12.6038 54.8932 12.6294 54.9316 12.6461C54.9701 12.6628 55.0121 12.6701 55.0539 12.6674L55.5346 12.6332C55.5774 12.6298 55.6187 12.6161 55.655 12.5932C55.6913 12.5703 55.7214 12.5388 55.7427 12.5016C55.9295 12.1763 56.0903 11.8368 56.2234 11.4861C56.3498 11.1784 56.4199 10.8505 56.4302 10.518C56.4208 10.2304 56.3188 9.95362 56.1391 9.72873C55.9548 9.4788 55.6229 9.22493 55.1303 8.95395C54.5629 8.64809 53.9569 8.4198 53.3286 8.2752C51.9405 7.92267 50.1678 7.86479 48.6217 8.29362C47.9259 8.48169 47.2663 8.78397 46.6699 9.1881C46.0712 9.5915 45.5835 10.1385 45.2515 10.779C44.9195 11.4195 44.7537 12.1331 44.7694 12.8542C44.75 13.5845 44.9072 14.3087 45.2277 14.9654C45.5194 15.5324 45.9305 16.0297 46.4328 16.4229C46.9435 16.8168 47.5133 17.1276 48.1212 17.3437C48.7557 17.5693 49.4053 17.7504 50.0651 17.8856C50.4839 17.9738 50.9106 18.0816 51.3347 18.2066C51.7167 18.3179 52.0834 18.4761 52.4265 18.6775C52.7222 18.8511 52.9755 19.0884 53.168 19.372C53.3565 19.6854 53.4482 20.0474 53.4314 20.4125C53.4458 20.7846 53.3579 21.1536 53.1772 21.4793C53.0145 21.7547 52.7848 21.9845 52.5095 22.1476C52.2096 22.3213 51.8829 22.444 51.5428 22.5106C50.6708 22.6838 49.7712 22.6618 48.9088 22.4462C48.4689 22.3339 48.0396 22.1834 47.626 21.9963C47.2795 21.8426 46.9487 21.6559 46.6383 21.4386C46.3604 21.2386 46.1418 21.0702 45.9798 20.9374C45.951 20.9128 45.9174 20.8946 45.881 20.8842C45.8446 20.8738 45.8064 20.8713 45.769 20.8769C45.7321 20.8831 45.6969 20.8971 45.6657 20.9179C45.6346 20.9388 45.6083 20.9661 45.5886 20.9979C45.3331 21.4123 45.1224 21.7871 44.9591 22.116C44.7911 22.4389 44.7009 22.7966 44.6957 23.1604C44.7075 23.5099 44.8565 23.8406 45.1105 24.0812C45.3739 24.3509 45.7914 24.6074 46.4025 24.8455C46.9422 25.0558 47.5016 25.2114 48.0725 25.3098C48.8033 25.4458 49.5456 25.511 50.289 25.5045C51.1211 25.5065 51.9495 25.3931 52.7505 25.1678C53.5033 24.9633 54.2128 24.6241 54.8445 24.1667C55.4434 23.7245 55.938 23.1565 56.2932 22.5027C56.671 21.781 56.8595 20.9755 56.8411 20.1613C56.8411 19.2813 56.6883 18.5262 56.3841 17.9185Z" fill="white"/>
<path d="M81.9022 11.798C81.6701 10.7292 81.0818 9.7707 80.2336 9.07906C79.3631 8.35427 78.1382 7.98727 76.5934 7.98727C74.664 7.95031 72.7944 8.65692 71.3728 9.96039C70.8932 9.30202 70.2305 8.79887 69.4671 8.51344C68.6304 8.17177 67.7369 7.9906 66.8331 7.97938C65.7553 7.95888 64.6859 8.17205 63.6986 8.6042C63.0312 8.9002 62.4102 9.29097 61.8548 9.7644C61.736 9.35686 61.4912 8.99728 61.1555 8.73706C60.734 8.41741 60.1901 8.25562 59.5382 8.25562C59.4671 8.25562 59.2445 8.26614 58.8691 8.28981C58.8028 8.2948 58.7407 8.3247 58.6955 8.37351C58.6503 8.42232 58.6253 8.48641 58.6255 8.5529V25.1403C58.6255 25.2101 58.6532 25.277 58.7026 25.3263C58.752 25.3756 58.819 25.4034 58.8889 25.4034H61.8047C61.8746 25.4034 61.9416 25.3756 61.991 25.3263C62.0404 25.277 62.0681 25.2101 62.0681 25.1403V13.2621C62.0835 13.0094 62.1848 12.7694 62.3552 12.582C62.5896 12.2994 62.8696 12.058 63.1836 11.8677C63.5533 11.6417 63.9521 11.4669 64.3689 11.3482C64.8204 11.2169 65.2883 11.1509 65.7584 11.1522C67.3388 11.1522 68.2726 11.6546 68.6058 12.6912C68.7204 13.0473 68.7968 13.4146 68.8336 13.7869C68.8807 14.2287 68.9035 14.6726 68.9021 15.1168V25.1403C68.9021 25.2101 68.9298 25.277 68.9792 25.3263C69.0286 25.3756 69.0956 25.4034 69.1655 25.4034H72.0879C72.1578 25.4034 72.2248 25.3756 72.2742 25.3263C72.3236 25.277 72.3513 25.2101 72.3513 25.1403V14.9787C72.3513 14.5157 72.3395 14.0711 72.3171 13.6422C72.2951 13.2538 72.2644 12.8802 72.2249 12.5215C72.5986 12.1359 73.0413 11.8236 73.53 11.6007C74.153 11.2977 74.8376 11.1424 75.5306 11.1469C76.4828 11.1469 77.1926 11.2942 77.6378 11.5849C78.0789 11.8696 78.3927 12.3136 78.5136 12.824C78.6237 13.1602 78.6828 13.5109 78.6888 13.8645C78.7002 14.2636 78.7063 14.6792 78.7072 15.1116V25.135C78.7072 25.2048 78.7349 25.2717 78.7843 25.3211C78.8337 25.3704 78.9007 25.3981 78.9706 25.3981H81.893C81.9629 25.3981 82.0299 25.3704 82.0793 25.3211C82.1287 25.2717 82.1564 25.2048 82.1564 25.135V15.0063C82.1564 14.4802 82.1446 13.929 82.1222 13.3634C82.101 12.8356 82.0273 12.3112 81.9022 11.798Z" fill="#FDC300"/>
<path d="M97.5426 12.5873C97.2968 11.7294 96.8832 10.9287 96.3257 10.2314C95.7487 9.5293 95.0172 8.96975 94.1882 8.59634C93.319 8.19251 92.2706 7.98731 91.0695 7.98731C90.1064 7.98684 89.1507 8.15513 88.2459 8.48453C87.3277 8.82056 86.4927 9.34993 85.7975 10.0367C85.0435 10.8029 84.4553 11.7159 84.0696 12.7189C83.6363 13.7988 83.4111 15.0866 83.4111 16.5586C83.4111 18.1831 83.6245 19.584 84.0459 20.7192C84.4674 21.8544 85.06 22.8015 85.7936 23.5105C86.5269 24.2216 87.4148 24.7537 88.3881 25.0653C89.3974 25.3873 90.4512 25.5481 91.5107 25.5415C92.696 25.5415 93.7351 25.41 94.5807 25.1337C95.3336 24.9111 96.0453 24.5677 96.6879 24.1169C96.9496 23.9357 97.1733 23.7051 97.3464 23.4382C97.4764 23.2283 97.5483 22.9877 97.5545 22.741C97.5545 22.4898 97.4478 22.1701 97.2318 21.7597C97.0315 21.3842 96.7988 21.0268 96.5364 20.6916C96.5126 20.6614 96.4824 20.6369 96.4481 20.6196C96.4137 20.6023 96.376 20.5928 96.3375 20.5916C96.2992 20.5903 96.261 20.5977 96.2259 20.6132C96.1908 20.6287 96.1596 20.6519 96.1347 20.6811C95.9503 20.8858 95.7523 21.0778 95.5421 21.2559C95.2716 21.4853 94.9801 21.6887 94.6715 21.8636C94.2891 22.0763 93.8816 22.2407 93.4586 22.353C92.9146 22.4929 92.3542 22.5593 91.7926 22.5503C90.1858 22.5503 88.9873 22.0688 88.2301 21.1191C87.4728 20.1694 87.0303 18.8447 86.9644 17.2452V15.0656C87.0513 13.7607 87.4596 12.7307 88.1787 12.002C88.8978 11.2732 89.821 10.9115 90.9339 10.9115C91.5134 10.897 92.0893 11.0073 92.6223 11.2351C93.0513 11.4269 93.425 11.7236 93.7088 12.098C93.9921 12.4859 94.1937 12.9271 94.3014 13.395C94.409 13.8515 94.4699 14.3178 94.4832 14.7867L89.2797 14.8117C89.0573 14.8134 88.8375 14.8598 88.6334 14.948C88.4293 15.0363 88.245 15.1645 88.0914 15.3253C87.9379 15.486 87.8182 15.6759 87.7395 15.8837C87.6609 16.0914 87.6248 16.3129 87.6335 16.5349C87.6335 16.7177 87.6506 16.8453 87.6519 16.8453C87.6539 17.0191 87.724 17.1852 87.847 17.3081C87.9701 17.431 88.1364 17.501 88.3104 17.503H97.561C97.6242 17.5038 97.6855 17.482 97.7338 17.4414C97.7822 17.4008 97.8143 17.3443 97.8244 17.282C97.8732 16.9591 97.9031 16.6337 97.914 16.3073C97.9258 15.9732 97.9311 15.643 97.9311 15.3207C97.9322 14.3949 97.8014 13.4737 97.5426 12.5847V12.5873Z" fill="#FDC300"/>
<path d="M104.514 23.2368C104.225 23.2488 103.935 23.2137 103.658 23.1329C103.514 23.0867 103.39 22.9941 103.305 22.8698C103.217 22.7228 103.166 22.5567 103.156 22.3857C103.132 22.1516 103.123 21.8688 103.123 21.5346V2.71894C103.123 1.77053 102.877 1.09046 102.389 0.695836C101.902 0.301211 101.304 0.122314 100.559 0.122314C100.439 0.122314 100.227 0.135467 99.92 0.157829C99.8541 0.163445 99.7927 0.193623 99.748 0.242365C99.7034 0.291107 99.6787 0.354845 99.679 0.420912V21.436C99.679 21.853 99.6961 22.2818 99.7316 22.7106C99.7625 23.1435 99.8766 23.5664 100.067 23.9563C100.267 24.3484 100.577 24.6728 100.96 24.889C101.356 25.1205 101.902 25.2323 102.621 25.2323C102.983 25.2316 103.345 25.2083 103.704 25.1626C104.006 25.1292 104.305 25.0676 104.595 24.9784C104.647 24.9608 104.691 24.9276 104.723 24.8836C104.755 24.8395 104.773 24.7867 104.773 24.7324V23.4959C104.772 23.4275 104.744 23.3622 104.696 23.3138C104.648 23.2654 104.582 23.2378 104.514 23.2368Z" fill="#FDC300"/>
<path d="M119.414 6.33761C119.772 6.33787 120.123 6.23208 120.42 6.03361C120.718 5.83514 120.951 5.55291 121.088 5.22259C121.225 4.89227 121.262 4.52869 121.192 4.17782C121.123 3.82696 120.95 3.50455 120.698 3.25137C120.445 2.99818 120.122 2.82558 119.771 2.75539C119.42 2.6852 119.056 2.72056 118.725 2.85701C118.394 2.99347 118.111 3.22488 117.911 3.522C117.712 3.81912 117.605 4.16861 117.605 4.52628V6.33498L119.414 6.33761Z" fill="white"/>
<path d="M116.152 8.36604H111.964C111.136 8.36604 110.326 8.12071 109.638 7.66107C108.949 7.20144 108.412 6.54814 108.095 5.78379C107.778 5.01945 107.695 4.17838 107.857 3.36695C108.018 2.55553 108.417 1.81019 109.003 1.22518C109.589 0.640174 110.335 0.24178 111.147 0.0803775C111.96 -0.0810253 112.802 0.00181225 113.567 0.318415C114.332 0.635018 114.986 1.17117 115.447 1.85906C115.907 2.54695 116.152 3.3557 116.152 4.18302V8.36604ZM111.964 0.540636C111.009 0.558769 110.099 0.95056 109.43 1.63179C108.76 2.31302 108.386 3.2293 108.386 4.18368C108.386 5.13806 108.76 6.05434 109.43 6.73557C110.099 7.4168 111.009 7.80859 111.964 7.82672H115.611V4.18302C115.61 3.21732 115.226 2.29147 114.542 1.60862C113.858 0.925765 112.931 0.541681 111.964 0.540636Z" fill="white"/>
<path d="M119.811 16.2164C118.701 16.2153 117.636 15.7743 116.851 14.9901C116.065 14.2059 115.623 13.1426 115.622 12.0334V7.85034H119.811C120.922 7.85034 121.987 8.29105 122.773 9.07552C123.558 9.85999 124 10.924 124 12.0334C124 13.1428 123.558 14.2067 122.773 14.9912C121.987 15.7757 120.922 16.2164 119.811 16.2164ZM116.163 8.38966V12.0334C116.163 12.754 116.377 13.4585 116.778 14.0577C117.179 14.6569 117.749 15.1239 118.415 15.3997C119.082 15.6755 119.816 15.7476 120.523 15.6071C121.231 15.4665 121.881 15.1194 122.391 14.6098C122.901 14.1003 123.249 13.451 123.389 12.7442C123.53 12.0374 123.458 11.3048 123.182 10.639C122.906 9.97318 122.438 9.40411 121.838 9.00374C121.238 8.60336 120.533 8.38966 119.811 8.38966H116.163Z" fill="white"/>
<path d="M110.629 9.22657C109.813 9.22552 109.015 9.46627 108.336 9.91833C107.657 10.3704 107.127 11.0135 106.814 11.7662C106.501 12.5189 106.419 13.3474 106.577 14.147C106.736 14.9465 107.128 15.6811 107.705 16.2578C108.282 16.8345 109.017 17.2274 109.817 17.3868C110.617 17.5462 111.447 17.4649 112.201 17.1532C112.955 16.8416 113.599 16.3135 114.053 15.6359C114.506 14.9583 114.749 14.1615 114.749 13.3464V9.22657H110.629Z" fill="#FDC300"/>
<path d="M39.1109 35.0441C39.0646 34.9128 39.0349 34.7763 39.0227 34.6376C39.0095 34.4956 39.0043 34.3535 39.0043 34.2114V29.7127L39.1491 29.693C39.1939 29.6864 39.2427 29.6825 39.2953 29.6785C39.348 29.6746 39.3981 29.6785 39.4507 29.6785C39.5546 29.6784 39.6582 29.688 39.7602 29.7075C39.8614 29.7252 39.9576 29.7647 40.0421 29.8232C40.129 29.8843 40.1991 29.9662 40.2462 30.0613C40.3031 30.1848 40.3297 30.3201 40.3239 30.4559V31.1347H41.6831V32.1239H40.3239V34.1891C40.3239 34.6416 40.5083 34.8678 40.877 34.8678C40.9645 34.8684 41.0514 34.8537 41.1339 34.8244C41.2107 34.7972 41.2855 34.7647 41.3578 34.7271C41.4183 34.6962 41.4753 34.6587 41.5277 34.6153C41.5724 34.5771 41.6054 34.5482 41.6238 34.5284C41.7068 34.6459 41.7816 34.769 41.8477 34.8968C41.8957 34.9864 41.9223 35.0859 41.9254 35.1875C41.9222 35.2793 41.8862 35.367 41.824 35.4348C41.7422 35.5256 41.645 35.6013 41.5369 35.6584C41.3959 35.7326 41.2458 35.7879 41.0904 35.8228C40.9026 35.8663 40.7103 35.8875 40.5175 35.886C40.1106 35.886 39.7958 35.8083 39.5758 35.6531C39.3604 35.5042 39.1976 35.291 39.1109 35.0441Z" fill="white"/>
<path d="M45.5746 31.1449L45.73 31.1304C45.8236 31.1205 45.9177 31.1157 46.0118 31.116C46.1209 31.1162 46.2296 31.129 46.3358 31.1541C46.4375 31.1791 46.5332 31.2238 46.6176 31.2857C46.7022 31.3473 46.7705 31.4285 46.8165 31.5224C46.8728 31.6424 46.8994 31.7741 46.8942 31.9065V35.7449H46.0118C45.8498 35.7449 45.7484 35.7015 45.705 35.6134C45.6574 35.4916 45.6363 35.3611 45.6431 35.2306C45.5052 35.4016 45.3329 35.5419 45.1373 35.6423C44.8507 35.7814 44.5337 35.8461 44.2154 35.8304C43.7558 35.8304 43.416 35.741 43.1961 35.5594C42.9749 35.3771 42.8241 35.1237 42.7693 34.8425C42.735 34.6828 42.7138 34.5204 42.7061 34.3572C42.6969 34.1835 42.6917 34.0112 42.6917 33.8441V31.1449C42.7406 31.1459 42.7895 31.1424 42.8378 31.1344L42.9774 31.1199H43.1184C43.3437 31.1105 43.5668 31.1677 43.7597 31.2843C43.927 31.3948 44.0113 31.5908 44.0113 31.8763V33.781C44.0113 33.9296 44.0113 34.0638 44.0258 34.1835C44.0327 34.2908 44.059 34.396 44.1035 34.494C44.1473 34.5825 44.219 34.6541 44.3076 34.6979C44.4318 34.7525 44.5672 34.7773 44.7027 34.7702C44.9179 34.776 45.1307 34.7242 45.3191 34.6202C45.3922 34.5876 45.4548 34.5355 45.5002 34.4696C45.5455 34.4037 45.5717 34.3265 45.5759 34.2467L45.5746 31.1449Z" fill="white"/>
<path d="M51.4562 35.7398C51.4067 35.7423 51.3573 35.7336 51.3116 35.7142C51.266 35.6949 51.2254 35.6654 51.1928 35.628C51.126 35.5482 51.0913 35.4465 51.0954 35.3425C50.9648 35.484 50.8083 35.5991 50.6344 35.6819C50.3764 35.8074 50.0915 35.8675 49.8047 35.8569C49.5684 35.8571 49.3337 35.8175 49.1106 35.7398C48.8837 35.6596 48.6792 35.5266 48.514 35.3517C48.3235 35.1446 48.1809 34.898 48.0965 34.6296C47.9837 34.2675 47.9312 33.8893 47.9411 33.5102C47.9328 33.1225 47.9871 32.7361 48.1018 32.3658C48.1901 32.0825 48.3353 31.8202 48.5285 31.5949C48.6967 31.4055 48.9056 31.2567 49.1396 31.1595C49.3692 31.0661 49.6148 31.0183 49.8627 31.0188C50.111 31.0094 50.3579 31.0609 50.5817 31.1687C50.7357 31.2447 50.8766 31.3446 50.9992 31.4647V28.9049C51.0457 28.8885 51.0948 28.8805 51.1441 28.8812C51.2443 28.871 51.345 28.8662 51.4457 28.8667C51.5513 28.8668 51.6566 28.8765 51.7605 28.8957C51.8618 28.9131 51.958 28.9526 52.0423 29.0114C52.1276 29.0759 52.1962 29.1598 52.2425 29.2561C52.2992 29.3797 52.3258 29.5149 52.3202 29.6507V35.749L51.4562 35.7398ZM49.3016 33.4418C49.2997 33.648 49.316 33.854 49.3503 34.0574C49.3755 34.2232 49.4313 34.3829 49.515 34.5283C49.5898 34.6542 49.6972 34.7578 49.8258 34.8282C49.9792 34.9048 50.1496 34.9415 50.321 34.9348C50.4887 34.9398 50.6547 34.8998 50.8017 34.819C50.8624 34.788 50.9132 34.7407 50.9484 34.6823C50.9835 34.624 51.0016 34.5569 51.0005 34.4888V32.3079C50.9205 32.2362 50.832 32.1743 50.7371 32.1237C50.6018 32.0505 50.4498 32.0138 50.2959 32.0172C50.1504 32.0072 50.0048 32.0355 49.8735 32.0992C49.7423 32.1629 49.63 32.2598 49.5479 32.3802C49.3828 32.624 49.3007 32.9779 49.3016 33.4418Z" fill="white"/>
<path d="M57.9406 33.4234C57.9415 33.7374 57.9008 34.0502 57.8194 34.3534C57.7454 34.6416 57.6107 34.9107 57.4243 35.1427C57.231 35.3758 56.9869 35.5617 56.7105 35.686C56.3783 35.8296 56.0188 35.8991 55.6569 35.8898C55.2955 35.8998 54.9362 35.832 54.6033 35.6912C54.3304 35.5704 54.0895 35.3875 53.9 35.1572C53.7162 34.9289 53.5817 34.6651 53.5049 34.3824C53.4184 34.0831 53.374 33.7731 53.3732 33.4616C53.3714 33.1441 53.4204 32.8284 53.5181 32.5263C53.6099 32.2419 53.7566 31.9782 53.9501 31.7502C54.1488 31.5226 54.3964 31.3427 54.6744 31.2241C54.9965 31.0891 55.3433 31.0233 55.6925 31.0307C56.0503 31.0211 56.4062 31.087 56.7369 31.2241C57.0078 31.3421 57.247 31.5224 57.4349 31.7502C57.6187 31.9755 57.7533 32.2368 57.83 32.5171C57.907 32.813 57.9442 33.1178 57.9406 33.4234ZM56.6104 33.4327C56.6109 33.2592 56.5982 33.0859 56.5722 32.9144C56.5508 32.7567 56.5017 32.6039 56.4274 32.4632C56.359 32.3372 56.2609 32.2297 56.1416 32.1501C56.0023 32.064 55.8404 32.0214 55.6767 32.0278C55.5098 32.0234 55.3455 32.0692 55.2052 32.1593C55.0801 32.2417 54.9771 32.3532 54.9049 32.4842C54.8273 32.625 54.7731 32.7774 54.7442 32.9354C54.7115 33.1045 54.6951 33.2763 54.6955 33.4484C54.6954 33.6247 54.7099 33.8007 54.7389 33.9746C54.7655 34.1383 54.8165 34.297 54.8904 34.4455C54.9582 34.5805 55.0598 34.6956 55.1854 34.7796C55.3258 34.8698 55.4901 34.9156 55.6569 34.9112C55.8267 34.9162 55.9941 34.8704 56.1376 34.7796C56.2636 34.6956 56.3656 34.5805 56.4339 34.4455C56.5074 34.2974 56.5563 34.1384 56.5788 33.9746C56.6032 33.795 56.6137 33.6138 56.6104 33.4327Z" fill="white"/>
<path d="M59.5332 34.4704C59.6402 34.4638 59.7471 34.4845 59.8438 34.5306C59.9406 34.5766 60.024 34.6464 60.0864 34.7335C60.2126 34.919 60.2771 35.1394 60.2707 35.3636C60.2686 35.551 60.2393 35.7371 60.1838 35.9161C60.1281 36.1022 60.0461 36.2793 59.9402 36.4422C59.8435 36.5927 59.7224 36.726 59.5819 36.8369C59.4588 36.9384 59.3044 36.9946 59.1447 36.996C59.0402 36.9973 58.9374 36.9691 58.8484 36.9145C58.759 36.8561 58.6925 36.7688 58.66 36.6672C58.8084 36.5951 58.9423 36.4966 59.0551 36.3765C59.1861 36.2438 59.2639 36.0679 59.2738 35.8819C59.1713 35.7987 59.0785 35.7043 58.9972 35.6004C58.8957 35.4596 58.8459 35.2881 58.8563 35.115C58.8593 34.9527 58.9195 34.7967 59.0262 34.6743C59.0895 34.6039 59.1681 34.5489 59.256 34.5136C59.3439 34.4782 59.4387 34.4635 59.5332 34.4704Z" fill="white"/>
<path d="M65.8871 34.9123C66.1303 34.9147 66.3702 34.8564 66.5851 34.7427C66.6684 34.6999 66.7466 34.6478 66.8182 34.5874C66.8705 34.5448 66.9194 34.4982 66.9644 34.448C67.0087 34.4934 67.0475 34.5437 67.0803 34.598C67.12 34.6601 67.1556 34.7247 67.187 34.7913C67.2184 34.8552 67.2444 34.9217 67.2647 34.99C67.2829 35.0465 67.2926 35.1055 67.2936 35.1649C67.294 35.23 67.281 35.2944 67.2554 35.3543C67.2165 35.4293 67.16 35.4938 67.0908 35.5424C66.9287 35.6521 66.7511 35.7372 66.564 35.795C66.2842 35.8799 65.9924 35.919 65.7001 35.9108C65.4448 35.9082 65.1906 35.876 64.9428 35.8147C64.6668 35.7477 64.4085 35.6221 64.1855 35.4464C63.9362 35.2441 63.7369 34.9871 63.6034 34.6953C63.433 34.2991 63.3533 33.8699 63.3703 33.4391C63.3539 33.0247 63.437 32.6125 63.6126 32.2368C63.7465 31.9644 63.9377 31.7242 64.1732 31.5326C64.4087 31.341 64.6829 31.2025 64.977 31.1266C65.213 31.0636 65.4558 31.0296 65.7001 31.0253C65.9503 31.0228 66.1999 31.052 66.4429 31.1121C66.6397 31.1598 66.8278 31.2383 66.9999 31.3449C67.1018 31.4012 67.1913 31.4772 67.2634 31.5686C67.3122 31.6432 67.3374 31.7307 67.3358 31.8198C67.3295 31.9363 67.2999 32.0503 67.2489 32.1552C67.1907 32.2857 67.1154 32.4078 67.025 32.5183C66.8907 32.3858 66.7371 32.2745 66.5693 32.1881C66.3604 32.0737 66.1253 32.0152 65.8871 32.0184C65.4604 32.0184 65.1561 32.15 64.9744 32.4131C64.7834 32.7106 64.6882 33.0595 64.7018 33.4128C64.7008 33.6085 64.7202 33.8038 64.7597 33.9955C64.7944 34.1652 64.862 34.3265 64.9586 34.4704C65.0519 34.6053 65.1773 34.7151 65.3234 34.79C65.4983 34.8765 65.692 34.9186 65.8871 34.9123Z" fill="white"/>
<path d="M72.5198 33.4233C72.5208 33.7373 72.48 34.05 72.3987 34.3533C72.324 34.6412 72.1894 34.9102 72.0036 35.1426C71.8109 35.3758 71.5671 35.5617 71.2911 35.6859C70.6142 35.9531 69.8608 35.9531 69.1839 35.6859C68.9108 35.5647 68.6695 35.3819 68.4793 35.1518C68.2965 34.9229 68.162 34.6593 68.0842 34.377C67.9976 34.0777 67.9533 33.7678 67.9525 33.4562C67.9505 33.1386 67.9998 32.8228 68.0986 32.521C68.1904 32.2365 68.3372 31.9729 68.5306 31.7449C68.7291 31.5175 68.9762 31.3377 69.2537 31.2187C69.5762 31.0838 69.9234 31.0179 70.273 31.0253C70.6305 31.0157 70.9859 31.0816 71.3161 31.2187C71.5876 31.3363 71.8273 31.5166 72.0154 31.7449C72.1987 31.9705 72.3332 32.2316 72.4105 32.5118C72.4875 32.8094 72.5243 33.116 72.5198 33.4233ZM71.1897 33.4325C71.1895 33.2591 71.1768 33.0859 71.1515 32.9143C71.1296 32.7565 71.0801 32.6038 71.0053 32.4631C70.9357 32.3359 70.8357 32.2279 70.7142 32.1487C70.5717 32.0672 70.4103 32.0244 70.246 32.0244C70.0818 32.0244 69.9204 32.0672 69.7778 32.1487C69.6528 32.2314 69.5494 32.3428 69.4762 32.4736C69.3991 32.6144 69.3453 32.7668 69.3169 32.9248C69.2841 33.0938 69.2678 33.2656 69.2681 33.4378C69.268 33.6141 69.2826 33.7901 69.3116 33.964C69.337 34.1277 69.3877 34.2866 69.4617 34.4349C69.5296 34.5702 69.6317 34.6854 69.7581 34.769C69.898 34.859 70.0619 34.9048 70.2282 34.9005C70.3981 34.9059 70.5655 34.86 70.7089 34.769C70.8353 34.6854 70.9374 34.5702 71.0053 34.4349C71.0804 34.2875 71.1311 34.1289 71.1554 33.9653C71.1795 33.7887 71.191 33.6107 71.1897 33.4325Z" fill="white"/>
<path d="M74.8967 35.7397H73.5679V31.1541L73.6838 31.1344C73.7233 31.1344 73.7681 31.1239 73.8155 31.1199C73.8629 31.116 73.9287 31.1199 73.9998 31.1199C74.1855 31.1154 74.3697 31.1532 74.5385 31.2304C74.6147 31.2682 74.6806 31.3238 74.7306 31.3925C74.7806 31.4612 74.8132 31.541 74.8256 31.6251C74.9623 31.4533 75.1343 31.3129 75.33 31.2133C75.6165 31.0738 75.9336 31.0086 76.2519 31.0239C76.6145 31.0239 76.885 31.0884 77.0632 31.2173C77.231 31.3341 77.3668 31.491 77.4583 31.6737C77.6151 31.4888 77.806 31.3356 78.0207 31.2225C78.3031 31.0801 78.6172 31.0118 78.9334 31.0239C79.3925 31.0239 79.7306 31.1208 79.9474 31.3146C80.1564 31.4928 80.2928 31.7413 80.3307 32.0131C80.3585 32.1732 80.3766 32.3349 80.3847 32.4972C80.3939 32.6721 80.3992 32.8431 80.3992 33.0115V35.7449H79.0822V33.0707C79.0822 32.9286 79.0822 32.7997 79.0716 32.6827C79.0682 32.5788 79.0435 32.4767 78.9992 32.3827C78.9571 32.2989 78.8893 32.2306 78.8056 32.1881C78.6908 32.138 78.5659 32.115 78.4408 32.121C78.274 32.1204 78.1095 32.1601 77.9614 32.2367C77.8359 32.2921 77.7269 32.3791 77.6453 32.4893C77.665 32.6794 77.6747 32.8704 77.6743 33.0615V35.7463H76.3573V33.0707C76.3573 32.9286 76.3573 32.7958 76.3467 32.6761C76.3438 32.5665 76.3173 32.4588 76.2691 32.3604C76.2241 32.2735 76.1533 32.2027 76.0662 32.1578C75.9425 32.1014 75.8069 32.0761 75.6711 32.0841C75.4738 32.0758 75.2788 32.1287 75.1127 32.2354C75.0475 32.2736 74.9931 32.3279 74.9548 32.3931C74.9165 32.4582 74.8956 32.5321 74.8941 32.6077L74.8967 35.7397Z" fill="white"/>
<path d="M87.6509 34.6152C87.6509 35.1194 87.7255 35.4913 87.8748 35.7307C87.7695 35.7724 87.6606 35.8046 87.5495 35.8267C87.4453 35.847 87.3395 35.8572 87.2334 35.8569C87.0482 35.8709 86.8634 35.8247 86.7066 35.7254C86.5837 35.6303 86.5018 35.492 86.4774 35.3387C86.3163 35.4998 86.1253 35.6281 85.9151 35.7162C85.6442 35.8271 85.353 35.88 85.0603 35.8714C84.8822 35.8714 84.705 35.8471 84.5335 35.7991C84.361 35.7515 84.1995 35.6706 84.0581 35.561C83.9092 35.443 83.7897 35.2922 83.7091 35.1203C83.6142 34.9088 83.5691 34.6784 83.5774 34.4468C83.5643 34.1596 83.6477 33.8762 83.8144 33.6418C83.9738 33.4353 84.1783 33.2679 84.4124 33.1524C84.6567 33.0308 84.9183 32.9474 85.1881 32.9052C85.4418 32.8622 85.6977 32.8327 85.9546 32.817C86.0323 32.817 86.1087 32.8078 86.1837 32.8078H86.3918V32.6329C86.4021 32.5357 86.3894 32.4376 86.3549 32.3462C86.3203 32.2549 86.2649 32.1728 86.193 32.1067C86.0604 32.0041 85.8453 31.9528 85.5476 31.9528C85.2937 31.9469 85.0412 31.9916 84.8048 32.0843C84.5869 32.1748 84.3745 32.2781 84.1687 32.3935C84.0784 32.2841 84.0051 32.1617 83.9514 32.0304C83.9062 31.9375 83.8781 31.8373 83.8684 31.7344C83.8728 31.6823 83.8885 31.6318 83.9144 31.5863C83.9403 31.5409 83.9759 31.5016 84.0186 31.4713C84.142 31.3714 84.2814 31.2927 84.4308 31.2385C84.626 31.1656 84.8275 31.1106 85.0327 31.0741C85.2699 31.0311 85.5106 31.0099 85.7518 31.011C86.0512 31.0047 86.35 31.0406 86.6394 31.1175C86.8612 31.1771 87.0647 31.2906 87.2321 31.4477C87.3867 31.602 87.4988 31.7937 87.5574 32.0041C87.6256 32.2588 87.658 32.5218 87.6535 32.7854L87.6509 34.6152ZM86.4089 33.4905H86.2772C86.2332 33.491 86.1891 33.4945 86.1455 33.501C85.9849 33.5142 85.8242 33.5352 85.6662 33.5642C85.5196 33.5876 85.3773 33.6319 85.2434 33.6957C85.1253 33.7535 85.0224 33.8382 84.9431 33.943C84.8617 34.0581 84.8205 34.1968 84.8259 34.3376C84.8209 34.5047 84.876 34.6681 84.9813 34.798C85.0854 34.9296 85.2592 34.9875 85.5081 34.9875C85.6262 34.9877 85.7437 34.9713 85.8571 34.9388C85.9596 34.908 86.0574 34.8638 86.1482 34.8072C86.2245 34.763 86.2922 34.7055 86.3484 34.6376C86.3902 34.5903 86.4156 34.5308 86.4208 34.4679L86.4089 33.4905Z" fill="white"/>
<path d="M90.2224 35.7397H88.8936V31.1541L89.0095 31.1344C89.049 31.1344 89.0937 31.1239 89.1412 31.1199C89.1886 31.116 89.2544 31.1199 89.3255 31.1199C89.5112 31.1154 89.6954 31.1532 89.8642 31.2304C89.9404 31.2682 90.0063 31.3238 90.0563 31.3925C90.1063 31.4612 90.1389 31.541 90.1513 31.6251C90.288 31.4533 90.46 31.3129 90.6557 31.2133C90.9422 31.0738 91.2593 31.0086 91.5776 31.0239C91.9402 31.0239 92.2102 31.0884 92.3876 31.2173C92.5555 31.3339 92.6914 31.4909 92.7827 31.6737C92.9395 31.4888 93.1304 31.3356 93.345 31.2225C93.6275 31.0801 93.9415 31.0118 94.2577 31.0239C94.7169 31.0239 95.0549 31.1208 95.2718 31.3146C95.4808 31.4928 95.6171 31.7413 95.6551 32.0131C95.6829 32.1732 95.7009 32.3349 95.7091 32.4972C95.7183 32.6721 95.7235 32.8431 95.7235 33.0115V35.7449H94.4065V33.0707C94.4065 32.9286 94.4065 32.7997 94.396 32.6827C94.3926 32.5788 94.3679 32.4767 94.3236 32.3827C94.2815 32.2989 94.2137 32.2306 94.13 32.1881C94.0151 32.138 93.8903 32.115 93.7652 32.121C93.5983 32.1204 93.4339 32.1601 93.2858 32.2367C93.1602 32.2921 93.0513 32.3791 92.9697 32.4893C92.9894 32.6794 92.9991 32.8704 92.9987 33.0615V35.7463H91.6817V33.0707C91.6817 32.9286 91.6817 32.7958 91.6711 32.6761C91.6682 32.5665 91.6417 32.4588 91.5934 32.3604C91.5485 32.2735 91.4776 32.2027 91.3906 32.1578C91.2669 32.1014 91.1312 32.0761 90.9955 32.0841C90.7982 32.0758 90.6031 32.1287 90.4371 32.2354C90.3717 32.2734 90.3172 32.3277 90.2789 32.3929C90.2406 32.4581 90.2198 32.5321 90.2185 32.6077L90.2224 35.7397Z" fill="white"/>
<path d="M101.347 33.4234C101.348 33.7374 101.307 34.0502 101.226 34.3534C101.152 34.6416 101.017 34.9107 100.83 35.1427C100.637 35.3758 100.393 35.5617 100.117 35.686C99.7844 35.8296 99.4249 35.8991 99.063 35.8898C98.7016 35.8998 98.3423 35.832 98.0094 35.6912C97.7367 35.57 97.496 35.3872 97.3061 35.1572C97.1224 34.9289 96.9879 34.6651 96.911 34.3824C96.8245 34.0831 96.7802 33.7731 96.7793 33.4616C96.7776 33.1441 96.8265 32.8284 96.9242 32.5263C97.016 32.2419 97.1628 31.9782 97.3562 31.7502C97.5547 31.5229 97.8018 31.3431 98.0792 31.2241C98.4018 31.0892 98.749 31.0233 99.0986 31.0307C99.4565 31.0211 99.8123 31.087 100.143 31.2241C100.414 31.3421 100.653 31.5224 100.841 31.7502C101.025 31.9755 101.159 32.2368 101.236 32.5171C101.313 32.813 101.35 33.1178 101.347 33.4234ZM100.017 33.4327C100.017 33.2592 100.004 33.0859 99.9783 32.9144C99.9565 32.7566 99.907 32.6039 99.8322 32.4632C99.763 32.3357 99.663 32.2276 99.5411 32.1488C99.4018 32.0627 99.2399 32.0201 99.0762 32.0265C98.9094 32.022 98.7451 32.0679 98.6047 32.158C98.4797 32.2403 98.3766 32.3519 98.3044 32.4829C98.2269 32.6237 98.1726 32.776 98.1438 32.9341C98.111 33.1031 98.0947 33.2749 98.095 33.4471C98.0949 33.6234 98.1094 33.7994 98.1385 33.9733C98.1644 34.1371 98.2155 34.296 98.29 34.4442C98.3577 34.5792 98.4594 34.6943 98.585 34.7783C98.7253 34.8685 98.8896 34.9143 99.0564 34.9099C99.2262 34.9149 99.3937 34.8691 99.5372 34.7783C99.6631 34.6947 99.7648 34.5794 99.8322 34.4442C99.906 34.2962 99.9554 34.1371 99.9783 33.9733C100.005 33.7943 100.018 33.6136 100.017 33.4327Z" fill="white"/>
<path d="M103.657 31.6108C103.704 31.5413 103.758 31.4761 103.817 31.4161C103.888 31.3421 103.968 31.2772 104.054 31.2227C104.15 31.1624 104.253 31.1133 104.36 31.0767C104.477 31.0376 104.601 31.018 104.725 31.0188C104.808 31.0193 104.89 31.0259 104.972 31.0386C105.056 31.0506 105.138 31.075 105.215 31.1109C105.286 31.1438 105.347 31.194 105.394 31.2569C105.441 31.323 105.465 31.4031 105.462 31.4845C105.461 31.5629 105.452 31.6411 105.433 31.7173C105.413 31.8065 105.387 31.8943 105.355 31.9804C105.323 32.0672 105.288 32.1514 105.254 32.233C105.22 32.3072 105.183 32.3796 105.142 32.45C105.042 32.3664 104.93 32.2965 104.812 32.2422C104.686 32.1902 104.552 32.1655 104.416 32.1698C104.233 32.164 104.053 32.2258 103.912 32.3434C103.849 32.3931 103.798 32.4564 103.762 32.5286C103.727 32.6008 103.708 32.6801 103.708 32.7604V35.7464H102.391V31.1543L102.507 31.1346C102.546 31.1346 102.591 31.1241 102.638 31.1201C102.686 31.1162 102.752 31.1201 102.823 31.1201C103.01 31.1151 103.195 31.1567 103.362 31.2411C103.435 31.2764 103.5 31.328 103.552 31.392C103.603 31.4561 103.639 31.5309 103.657 31.6108Z" fill="white"/>
</g>
<defs>
<clipPath id="clip0_4818_45326">
<rect width="124" height="37" fill="white"/>
</clipPath>
</defs>
</svg>
