<svg width="97" height="29" viewBox="0 0 97 29" fill="none" xmlns="http://www.w3.org/2000/svg">
<g clip-path="url(#clip0_4732_44560)">
<path d="M3.78098 18.205C3.55482 18.2143 3.32866 18.1868 3.11132 18.1237C2.99886 18.0879 2.90165 18.0154 2.83522 17.9179C2.76649 17.803 2.72688 17.673 2.71983 17.5393C2.70128 17.3561 2.69304 17.1349 2.69304 16.8735V2.15477C2.69304 1.41287 2.50039 0.879846 2.1192 0.572177C1.73801 0.264507 1.26925 0.123535 0.68717 0.123535C0.594448 0.123535 0.428581 0.133824 0.188535 0.151317C0.136978 0.155709 0.0889635 0.179317 0.0540332 0.217446C0.0191029 0.255575 -0.000185886 0.305434 1.35044e-06 0.357116V16.7963C1.35044e-06 17.1194 0.0133944 17.4549 0.0401806 17.7934C0.0644933 18.1317 0.153682 18.4622 0.302892 18.7669C0.458725 19.0737 0.701691 19.3278 1.00139 19.4974C1.31046 19.6785 1.73904 19.766 2.30155 19.766C2.58436 19.7654 2.86685 19.7472 3.14738 19.7115C3.38421 19.6854 3.61806 19.6371 3.84588 19.5674C3.88611 19.5536 3.92108 19.5277 3.94599 19.4932C3.97089 19.4588 3.9845 19.4175 3.98496 19.375V18.4077C3.98416 18.354 3.96238 18.3028 3.92427 18.2649C3.88615 18.227 3.83473 18.2056 3.78098 18.205Z" fill="white"/>
<path d="M16.706 13.0346C16.7098 12.1734 16.5986 11.3155 16.3753 10.4837C16.1696 9.7028 15.8103 8.97065 15.3183 8.32999C14.8172 7.69416 14.1758 7.18249 13.4443 6.83487C12.685 6.46443 11.7495 6.27612 10.6626 6.27612C9.63237 6.27612 8.71855 6.46443 7.95102 6.83384C7.20592 7.18605 6.54537 7.6942 6.01418 8.32382C5.48395 8.96575 5.08682 9.70659 4.84589 10.5032C4.58571 11.3496 4.45579 12.2305 4.46058 13.1158C4.45704 13.9989 4.5675 14.8788 4.78922 15.7336C4.99205 16.5321 5.3517 17.2823 5.84728 17.9408C6.34786 18.5864 6.99472 19.1041 7.73467 19.4514C8.50323 19.8208 9.45208 20.008 10.5544 20.008C11.6568 20.008 12.6149 19.8115 13.3876 19.4226C14.139 19.0569 14.7948 18.5214 15.3028 17.8585C15.8022 17.1913 16.1655 16.4326 16.3722 15.6256C16.5944 14.7798 16.7066 13.909 16.706 13.0346ZM13.878 13.0613C13.8767 13.6173 13.8284 14.1722 13.7337 14.72C13.6491 15.2384 13.4789 15.7392 13.23 16.2018C12.9903 16.6324 12.6441 16.9945 12.2245 17.2534C11.7928 17.5261 11.2334 17.665 10.5586 17.665C9.90229 17.665 9.36142 17.5313 8.94932 17.2678C8.53549 16.99 8.18941 16.6229 7.9366 16.1936C7.67253 15.7374 7.49379 15.2371 7.40912 14.717C7.31429 14.1691 7.26603 13.6142 7.26488 13.0582C7.26487 12.5173 7.32185 11.9779 7.43488 11.4489C7.53733 10.9496 7.72444 10.4714 7.98811 10.035C8.24018 9.62515 8.59031 9.28427 9.00702 9.04309C9.43045 8.79407 9.97132 8.6675 10.6121 8.6675C11.289 8.6675 11.8412 8.79407 12.2554 9.04206C12.6617 9.28053 12.9984 9.6211 13.232 10.0299C13.4772 10.4699 13.6458 10.9483 13.7307 11.4448C13.8274 11.9779 13.8767 12.5185 13.878 13.0603V13.0613Z" fill="white"/>
<path d="M19.7066 0.901696C19.4861 0.897205 19.2671 0.938724 19.0636 1.0236C18.8602 1.10847 18.6767 1.23483 18.5249 1.39459C18.3661 1.56017 18.2421 1.75581 18.1602 1.97C18.0782 2.18418 18.0401 2.41258 18.0479 2.64173C18.0424 2.86242 18.0811 3.08198 18.1619 3.28748C18.2426 3.49298 18.3637 3.68027 18.5181 3.8383C18.6724 3.99634 18.8568 4.12193 19.0605 4.20768C19.2642 4.29343 19.483 4.33761 19.704 4.33761C19.925 4.33761 20.1438 4.29343 20.3475 4.20768C20.5511 4.12193 20.7356 3.99634 20.8899 3.8383C21.0442 3.68027 21.1653 3.49298 21.2461 3.28748C21.3268 3.08198 21.3656 2.86242 21.3601 2.64173C21.3675 2.41342 21.3293 2.18592 21.2478 1.9725C21.1662 1.75909 21.043 1.56403 20.8851 1.3987C20.7339 1.23884 20.551 1.11211 20.3481 1.02655C20.1452 0.940996 19.9268 0.898478 19.7066 0.901696Z" fill="white"/>
<path d="M19.0878 6.41064C18.9951 6.41064 18.8282 6.41991 18.5891 6.4374C18.5376 6.44179 18.4896 6.4654 18.4546 6.50353C18.4197 6.54166 18.4004 6.59152 18.4006 6.6432V20.691C18.4006 21.6079 18.2286 22.2993 17.8855 22.749C17.5599 23.1791 16.8831 23.4137 15.8755 23.4477C15.8225 23.4501 15.7724 23.4728 15.7358 23.5112C15.6991 23.5495 15.6787 23.6005 15.6787 23.6535C15.6784 23.8864 15.6925 24.119 15.721 24.3501C15.7463 24.5734 15.8138 24.7899 15.9198 24.9881C16.0295 25.183 16.1906 25.3442 16.3855 25.4542C16.6462 25.5842 16.9362 25.6445 17.2272 25.6292C17.5959 25.62 17.9626 25.572 18.3213 25.4861C18.7983 25.37 19.2388 25.1369 19.6029 24.808C20.0088 24.4592 20.3622 23.9509 20.6517 23.2995C20.9412 22.6482 21.0864 21.756 21.0864 20.6643V8.44085C21.0864 7.69998 20.8938 7.16799 20.5126 6.85929C20.1314 6.55059 19.6678 6.41064 19.0878 6.41064Z" fill="white"/>
<path d="M34.1467 18.3047C33.9395 18.309 33.7323 18.2921 33.5285 18.2543C33.4165 18.236 33.3143 18.1797 33.239 18.0948C33.1499 17.9653 33.096 17.815 33.0825 17.6585C33.0428 17.3342 33.0256 17.0076 33.0309 16.6809V11.3878C33.0402 10.6832 32.9616 9.9801 32.7971 9.29482C32.6558 8.70831 32.3647 8.16838 31.9523 7.72766C31.518 7.2886 30.9802 6.96555 30.3884 6.78819C29.762 6.58239 28.9718 6.47949 28.0405 6.47949C27.4797 6.48094 26.9199 6.5267 26.3663 6.61635C25.8377 6.69836 25.3175 6.82715 24.8117 7.00119C24.3977 7.13954 24.0049 7.3345 23.6444 7.58052C23.3034 7.82645 23.1293 8.10325 23.1293 8.40371C23.141 8.65136 23.1957 8.8951 23.2911 9.12401C23.3915 9.3991 23.5192 9.66349 23.6723 9.91325C23.6906 9.94261 23.7161 9.96687 23.7464 9.98378C23.7766 10.0007 23.8107 10.0097 23.8453 10.01H24.1142C24.1552 10.0101 24.1951 9.99749 24.2286 9.97396C24.7161 9.63621 25.2435 9.35973 25.7987 9.15076C26.3292 8.95525 26.9937 8.85544 27.7726 8.85544C28.8028 8.85544 29.4972 9.04581 29.8413 9.42036C30.1854 9.79491 30.3657 10.3742 30.3657 11.1254L30.3925 15.9864C30.3778 16.189 30.2947 16.3806 30.1566 16.5297C29.9519 16.769 29.7081 16.9719 29.4354 17.1296C29.0987 17.3307 28.7389 17.4906 28.364 17.606C27.9534 17.7353 27.5252 17.8002 27.0947 17.7984C26.2849 17.7984 25.7327 17.6163 25.4535 17.2582C25.1598 16.8897 25.0035 16.4306 25.0116 15.9596C25.0116 15.4389 25.1486 15.0191 25.4237 14.7094C25.7271 14.3708 26.1062 14.1085 26.5301 13.9438C27.0315 13.7442 27.5569 13.6113 28.093 13.5487C28.535 13.4952 28.9986 13.4633 29.5127 13.452C29.5592 13.4502 29.6038 13.4328 29.6392 13.4026C29.6745 13.3723 29.6986 13.3309 29.7074 13.2853C29.7074 13.2616 29.7146 13.2472 29.7311 12.3592C29.7334 12.2212 29.7071 12.0843 29.6539 11.957C29.6007 11.8297 29.5218 11.7147 29.422 11.6193C29.3233 11.5267 29.2067 11.4553 29.0793 11.4094C28.9519 11.3636 28.8164 11.3443 28.6813 11.3528C28.1662 11.3878 27.6686 11.4423 27.2163 11.5133C26.4172 11.6378 25.6411 11.8806 24.9137 12.2336C24.2027 12.5757 23.5769 13.0716 23.0819 13.6855C22.5792 14.3122 22.3247 15.1261 22.3247 16.0965C22.3247 16.8785 22.4586 17.5371 22.7244 18.0444C22.9646 18.524 23.3109 18.9427 23.7372 19.2689C24.1441 19.5712 24.6103 19.7844 25.1053 19.8945C25.5832 20.0038 26.0718 20.0597 26.5621 20.0612C27.6109 20.0612 28.4742 19.8955 29.1284 19.5704C29.6314 19.3224 30.1005 19.0112 30.5244 18.6443C30.5765 18.8503 30.6706 19.0434 30.8007 19.2116C30.9307 19.3798 31.0941 19.5194 31.2806 19.6218C31.7575 19.8688 32.2888 19.9923 32.8259 19.9809C33.0794 19.9815 33.3325 19.9629 33.5831 19.9254C33.795 19.8956 34.0038 19.8477 34.2075 19.7823C34.2477 19.7685 34.2827 19.7426 34.3076 19.7082C34.3325 19.6737 34.3461 19.6324 34.3466 19.5899V18.5074C34.3458 18.4544 34.3246 18.4038 34.2873 18.366C34.2501 18.3282 34.1997 18.3063 34.1467 18.3047Z" fill="white"/>
<path d="M44.1067 14.045C43.8774 13.5815 43.5451 13.1764 43.1352 12.8606C42.7143 12.5436 42.2487 12.2905 41.7537 12.1095C41.2365 11.9159 40.7072 11.7564 40.1692 11.632C39.53 11.4897 38.9082 11.2786 38.3147 11.0023C38.1107 10.9147 37.9384 10.7668 37.8212 10.5783C37.7041 10.3899 37.6476 10.1701 37.6595 9.94858C37.6497 9.7039 37.7223 9.46299 37.8656 9.2643C38.0041 9.07848 38.1859 8.92911 38.3951 8.82903C38.6233 8.71976 38.8663 8.6442 39.1163 8.60471C39.359 8.56376 39.6046 8.54208 39.8508 8.53989C40.4671 8.53717 41.0762 8.67254 41.6331 8.93605C42.1864 9.2005 42.6108 9.51229 42.8931 9.86214C42.9139 9.88753 42.9404 9.90759 42.9705 9.92066C43.0006 9.93372 43.0334 9.93942 43.0662 9.93726L43.4422 9.91051C43.4757 9.9079 43.508 9.89716 43.5364 9.87923C43.5648 9.86129 43.5883 9.83671 43.605 9.80761C43.7512 9.55314 43.8769 9.28752 43.981 9.01322C44.0799 8.77249 44.1347 8.51597 44.1428 8.25588C44.1355 8.03096 44.0556 7.81441 43.9151 7.63848C43.7709 7.44298 43.5113 7.24438 43.126 7.03241C42.6821 6.79315 42.2081 6.61456 41.7166 6.50145C40.6307 6.22568 39.244 6.1804 38.0345 6.51585C37.4903 6.66298 36.9743 6.89944 36.5077 7.21557C36.0394 7.53113 35.6579 7.95905 35.3982 8.46009C35.1384 8.96114 35.0088 9.51929 35.0211 10.0834C35.0059 10.6547 35.1289 11.2212 35.3796 11.7349C35.6077 12.1785 35.9293 12.5674 36.3223 12.875C36.7217 13.1832 37.1675 13.4263 37.643 13.5953C38.1394 13.7718 38.6475 13.9135 39.1637 14.0193C39.4913 14.0882 39.8251 14.1726 40.1568 14.2704C40.4556 14.3574 40.7425 14.4812 41.0109 14.6387C41.2422 14.7745 41.4404 14.9601 41.5909 15.182C41.7384 15.4271 41.8101 15.7103 41.7969 15.996C41.8082 16.2871 41.7394 16.5757 41.5981 16.8305C41.4709 17.0459 41.2912 17.2257 41.0758 17.3532C40.8412 17.4891 40.5857 17.5851 40.3196 17.6372C39.6375 17.7727 38.9338 17.7555 38.2591 17.5868C37.915 17.499 37.5792 17.3812 37.2557 17.2349C36.9846 17.1147 36.7258 16.9686 36.483 16.7986C36.2656 16.6422 36.0946 16.5105 35.9679 16.4065C35.9454 16.3873 35.9191 16.3731 35.8906 16.3649C35.8622 16.3568 35.8323 16.3548 35.803 16.3592C35.7741 16.3641 35.7466 16.375 35.7222 16.3913C35.6979 16.4077 35.6773 16.429 35.6619 16.4539C35.462 16.778 35.2972 17.0713 35.1694 17.3285C35.038 17.5811 34.9675 17.8609 34.9634 18.1455C34.9727 18.4189 35.0892 18.6776 35.2879 18.8658C35.4939 19.0768 35.8205 19.2774 36.2986 19.4637C36.7207 19.6282 37.1584 19.7499 37.6049 19.8269C38.1766 19.9333 38.7573 19.9843 39.3388 19.9792C39.9897 19.9807 40.6378 19.8921 41.2643 19.7158C41.8532 19.5558 42.4083 19.2905 42.9024 18.9327C43.3709 18.5868 43.7577 18.1425 44.0357 17.6311C44.3312 17.0665 44.4786 16.4363 44.4642 15.7994C44.4642 15.111 44.3447 14.5204 44.1067 14.045Z" fill="white"/>
<path d="M64.0683 9.25678C63.8867 8.42071 63.4265 7.67089 62.763 7.12985C62.082 6.56287 61.1239 6.27578 59.9154 6.27578C58.4061 6.24688 56.9436 6.79962 55.8315 7.81928C55.4564 7.30426 54.938 6.91066 54.3408 6.68738C53.6863 6.42011 52.9873 6.27839 52.2803 6.26961C51.4372 6.25358 50.6007 6.42033 49.8283 6.75838C49.3063 6.98993 48.8205 7.29562 48.386 7.66596C48.2931 7.34716 48.1016 7.06587 47.839 6.86231C47.5093 6.61227 47.0838 6.4857 46.5738 6.4857C46.5182 6.4857 46.3441 6.49393 46.0505 6.51245C45.9985 6.51635 45.95 6.53975 45.9147 6.57793C45.8793 6.61611 45.8597 6.66624 45.8599 6.71825V19.6939C45.8599 19.7484 45.8816 19.8008 45.9202 19.8394C45.9589 19.878 46.0113 19.8997 46.0659 19.8997H48.3469C48.4015 19.8997 48.4539 19.878 48.4926 19.8394C48.5312 19.8008 48.5529 19.7484 48.5529 19.6939V10.4021C48.5649 10.2043 48.6442 10.0167 48.7775 9.87006C48.9608 9.64901 49.1798 9.46015 49.4255 9.31132C49.7147 9.13449 50.0266 8.99775 50.3527 8.90486C50.7059 8.80222 51.0719 8.75059 51.4396 8.75154C52.6759 8.75154 53.4064 9.14462 53.667 9.95547C53.7567 10.2341 53.8165 10.5214 53.8452 10.8126C53.8821 11.1582 53.8999 11.5054 53.8988 11.8529V19.6939C53.8988 19.7484 53.9205 19.8008 53.9592 19.8394C53.9978 19.878 54.0502 19.8997 54.1049 19.8997H56.391C56.4456 19.8997 56.498 19.878 56.5367 19.8394C56.5753 19.8008 56.597 19.7484 56.597 19.6939V11.7449C56.597 11.3827 56.5877 11.0349 56.5702 10.6994C56.5531 10.3955 56.529 10.1033 56.4981 9.82273C56.7904 9.52108 57.1367 9.27677 57.5191 9.10243C58.0064 8.86541 58.542 8.74392 59.084 8.74743C59.8289 8.74743 60.3842 8.86268 60.7324 9.09008C61.0774 9.31278 61.3229 9.66009 61.4175 10.0594C61.5036 10.3223 61.5498 10.5967 61.5545 10.8733C61.5634 11.1855 61.5683 11.5106 61.5689 11.8488V19.6898C61.5689 19.7443 61.5906 19.7967 61.6293 19.8353C61.6679 19.8739 61.7203 19.8956 61.775 19.8956H64.0611C64.1157 19.8956 64.1681 19.8739 64.2068 19.8353C64.2454 19.7967 64.2671 19.7443 64.2671 19.6898V11.7665C64.2671 11.3549 64.2579 10.9238 64.2403 10.4813C64.2238 10.0684 64.1661 9.65824 64.0683 9.25678Z" fill="#FDC300"/>
<path d="M76.3035 9.87452C76.1112 9.20341 75.7877 8.57703 75.3515 8.03159C74.9002 7.48236 74.328 7.04465 73.6795 6.75255C72.9995 6.43665 72.1794 6.27612 71.2399 6.27612C70.4865 6.27576 69.7389 6.4074 69.031 6.66508C68.3128 6.92794 67.6596 7.34205 67.1158 7.8793C66.5259 8.47865 66.0658 9.19283 65.7641 9.97742C65.4252 10.8222 65.249 11.8296 65.249 12.981C65.249 14.2519 65.4159 15.3477 65.7456 16.2358C66.0753 17.1238 66.5389 17.8647 67.1127 18.4193C67.6863 18.9755 68.3809 19.3918 69.1423 19.6356C69.9318 19.8874 70.7562 20.0132 71.585 20.0081C72.5122 20.0081 73.3251 19.9052 73.9865 19.6891C74.5755 19.5149 75.1322 19.2463 75.6349 18.8936C75.8396 18.7519 76.0146 18.5715 76.15 18.3627C76.2517 18.1985 76.3079 18.0103 76.3128 17.8173C76.3128 17.6208 76.2293 17.3707 76.0603 17.0497C75.9037 16.7559 75.7217 16.4763 75.5164 16.2142C75.4977 16.1906 75.4741 16.1713 75.4473 16.1578C75.4204 16.1443 75.3909 16.1368 75.3608 16.1359C75.3308 16.135 75.301 16.1407 75.2735 16.1528C75.246 16.165 75.2216 16.1831 75.2022 16.2059C75.0579 16.366 74.903 16.5163 74.7385 16.6556C74.527 16.835 74.299 16.9942 74.0576 17.131C73.7584 17.2974 73.4397 17.426 73.1087 17.5138C72.6832 17.6232 72.2448 17.6752 71.8055 17.6681C70.5486 17.6681 69.6111 17.2915 69.0187 16.5486C68.4263 15.8056 68.0801 14.7694 68.0286 13.5182V11.8131C68.0966 10.7924 68.416 9.98668 68.9785 9.41661C69.541 8.84655 70.2632 8.56358 71.1337 8.56358C71.5871 8.55222 72.0376 8.63856 72.4545 8.81671C72.7902 8.96674 73.0825 9.19891 73.3045 9.49173C73.5261 9.79515 73.6838 10.1403 73.7681 10.5063C73.8522 10.8635 73.8998 11.2282 73.9102 11.595L69.8398 11.6145C69.6658 11.6159 69.4939 11.6522 69.3342 11.7212C69.1745 11.7902 69.0303 11.8906 68.9102 12.0163C68.7901 12.142 68.6965 12.2906 68.635 12.4531C68.5734 12.6156 68.5452 12.7889 68.552 12.9625C68.552 13.1056 68.5654 13.2054 68.5664 13.2054C68.568 13.3413 68.6228 13.4713 68.719 13.5674C68.8153 13.6635 68.9454 13.7183 69.0815 13.7199H76.3179C76.3673 13.7205 76.4153 13.7034 76.4531 13.6717C76.4909 13.6399 76.5161 13.5957 76.5239 13.547C76.5621 13.2944 76.5855 13.0398 76.594 12.7845C76.6033 12.5231 76.6074 12.2649 76.6074 12.0128C76.6082 11.2885 76.5059 10.5679 76.3035 9.87246V9.87452Z" fill="#FDC300"/>
<path d="M81.7566 18.205C81.5305 18.2144 81.3043 18.187 81.087 18.1237C80.9746 18.0876 80.8775 18.0152 80.8109 17.9179C80.7421 17.8029 80.7021 17.673 80.6944 17.5393C80.6759 17.3561 80.6687 17.1349 80.6687 16.8735V2.15477C80.6687 1.41287 80.476 0.880875 80.0948 0.572177C79.7136 0.263478 79.2459 0.123535 78.6628 0.123535C78.5691 0.123535 78.4032 0.133824 78.1631 0.151317C78.1116 0.155709 78.0636 0.179317 78.0286 0.217446C77.9937 0.255575 77.9744 0.305434 77.9746 0.357116V16.7963C77.9746 17.1225 77.988 17.458 78.0158 17.7934C78.04 18.1321 78.1292 18.4629 78.2785 18.7679C78.4342 19.0746 78.6772 19.3284 78.977 19.4974C79.2861 19.6785 79.7136 19.766 80.2762 19.766C80.5593 19.7655 80.8421 19.7472 81.123 19.7115C81.3595 19.6854 81.593 19.6372 81.8205 19.5674C81.8607 19.5536 81.8957 19.5277 81.9206 19.4932C81.9455 19.4588 81.9591 19.4175 81.9596 19.375V18.4077C81.9588 18.3542 81.9371 18.3031 81.8992 18.2653C81.8614 18.2274 81.8102 18.2058 81.7566 18.205Z" fill="#FDC300"/>
<path d="M93.4126 4.98525C93.6928 4.98545 93.9666 4.9027 94.1997 4.74745C94.4327 4.59219 94.6145 4.37141 94.7219 4.11302C94.8293 3.85462 94.8577 3.57021 94.8033 3.29574C94.7489 3.02128 94.6143 2.76907 94.4164 2.57101C94.2186 2.37296 93.9663 2.23794 93.6917 2.18303C93.417 2.12812 93.1322 2.15579 92.8732 2.26253C92.6143 2.36927 92.3928 2.5503 92.2369 2.78272C92.0809 3.01515 91.9975 3.28854 91.9971 3.56833V4.98319L93.4126 4.98525Z" fill="white"/>
<path d="M90.8614 6.57175H87.5852C86.9373 6.57175 86.3039 6.37983 85.7651 6.02028C85.2263 5.66073 84.8064 5.14968 84.5585 4.55176C84.3105 3.95385 84.2456 3.29592 84.372 2.66117C84.4984 2.02643 84.8105 1.44338 85.2687 0.98575C85.7268 0.528125 86.3106 0.216478 86.9461 0.0902197C87.5816 -0.0360389 88.2403 0.0287614 88.839 0.276427C89.4376 0.524092 89.9493 0.943498 90.3093 1.48161C90.6693 2.01972 90.8614 2.65237 90.8614 3.29955V6.57175ZM87.5852 0.450261C86.8379 0.464445 86.126 0.770927 85.6025 1.30382C85.079 1.83672 84.7857 2.55349 84.7857 3.30006C84.7857 4.04663 85.079 4.7634 85.6025 5.2963C86.126 5.8292 86.8379 6.13567 87.5852 6.14986H90.438V3.29955C90.4372 2.54412 90.1363 1.81987 89.6015 1.2857C89.0667 0.751531 88.3416 0.451078 87.5852 0.450261Z" fill="white"/>
<path d="M93.7235 12.7121C92.8547 12.7113 92.0218 12.3663 91.4074 11.7529C90.793 11.1394 90.4474 10.3076 90.4463 9.43993V6.16772H93.7235C94.5924 6.16772 95.4257 6.51248 96.0401 7.12613C96.6545 7.73979 96.9996 8.57209 96.9996 9.43993C96.9996 10.3078 96.6545 11.1401 96.0401 11.7537C95.4257 12.3674 94.5924 12.7121 93.7235 12.7121ZM90.8697 6.58961V9.43993C90.8697 10.0037 91.0371 10.5547 91.3507 11.0235C91.6642 11.4922 92.1099 11.8575 92.6314 12.0733C93.1528 12.289 93.7266 12.3455 94.2802 12.2355C94.8338 12.1255 95.3423 11.854 95.7414 11.4554C96.1405 11.0568 96.4123 10.5489 96.5224 9.996C96.6325 9.44309 96.576 8.86999 96.36 8.34916C96.144 7.82833 95.7782 7.38318 95.3089 7.06998C94.8396 6.75678 94.2879 6.58961 93.7235 6.58961H90.8697Z" fill="white"/>
<path d="M86.5404 7.24488C85.902 7.24406 85.2778 7.43238 84.7466 7.78601C84.2155 8.13965 83.8012 8.6427 83.5564 9.23151C83.3115 9.82033 83.247 10.4685 83.3711 11.0939C83.4951 11.7193 83.8021 12.294 84.2532 12.7451C84.7043 13.1962 85.2792 13.5036 85.9053 13.6283C86.5313 13.753 87.1803 13.6894 87.7701 13.4456C88.36 13.2018 88.8642 12.7887 89.2189 12.2586C89.5736 11.7285 89.763 11.1053 89.763 10.4677V7.24488H86.5404Z" fill="#FDC300"/>
<path d="M30.5947 27.4401C30.5584 27.3374 30.5352 27.2306 30.5257 27.1221C30.5154 27.011 30.5112 26.8999 30.5112 26.7887V23.2696L30.6246 23.2541C30.6596 23.249 30.6977 23.2459 30.7389 23.2428C30.7801 23.2397 30.8193 23.2428 30.8605 23.2428C30.9417 23.2427 31.0228 23.2503 31.1026 23.2655C31.1818 23.2794 31.257 23.3103 31.3231 23.356C31.391 23.4038 31.4459 23.4678 31.4827 23.5423C31.5272 23.6389 31.5481 23.7447 31.5435 23.851V24.3819H32.6067V25.1557H31.5435V26.7712C31.5435 27.1252 31.6878 27.3022 31.9762 27.3022C32.0447 27.3027 32.1127 27.2912 32.1771 27.2683C32.2372 27.2469 32.2957 27.2215 32.3523 27.1921C32.3997 27.1679 32.4442 27.1386 32.4852 27.1046C32.5202 27.0748 32.546 27.0522 32.5604 27.0367C32.6253 27.1286 32.6838 27.2249 32.7355 27.3248C32.7731 27.3949 32.7939 27.4728 32.7963 27.5523C32.7938 27.6241 32.7657 27.6927 32.717 27.7457C32.653 27.8167 32.577 27.876 32.4924 27.9206C32.3821 27.9787 32.2647 28.0219 32.1431 28.0493C31.9962 28.0833 31.8458 28.0999 31.695 28.0987C31.3766 28.0987 31.1304 28.0379 30.9584 27.9165C30.7898 27.8001 30.6625 27.6333 30.5947 27.4401Z" fill="white"/>
<path d="M35.6507 24.3901L35.7723 24.3788C35.8455 24.371 35.9191 24.3672 35.9927 24.3674C36.0781 24.3676 36.1631 24.3776 36.2462 24.3973C36.3257 24.4168 36.4006 24.4518 36.4666 24.5002C36.5328 24.5484 36.5862 24.6119 36.6222 24.6854C36.6662 24.7793 36.6871 24.8823 36.683 24.9859V27.9885H35.9927C35.866 27.9885 35.7867 27.9545 35.7527 27.8856C35.7155 27.7903 35.6989 27.6882 35.7043 27.5861C35.5964 27.7199 35.4616 27.8297 35.3087 27.9082C35.0845 28.017 34.8364 28.0676 34.5875 28.0554C34.2279 28.0554 33.9621 27.9854 33.7901 27.8434C33.6171 27.7008 33.4991 27.5025 33.4563 27.2826C33.4294 27.1576 33.4128 27.0306 33.4068 26.9029C33.3996 26.7671 33.3955 26.6323 33.3955 26.5016V24.3901C33.4338 24.3909 33.4721 24.3881 33.5099 24.3818L33.6191 24.3705H33.7293C33.9056 24.3631 34.0801 24.4079 34.231 24.4992C34.3619 24.5856 34.4278 24.7389 34.4278 24.9622V26.4522C34.4278 26.5685 34.4278 26.6734 34.4391 26.7671C34.4445 26.851 34.4651 26.9333 34.4999 27.0099C34.5342 27.0791 34.5903 27.1352 34.6596 27.1694C34.7568 27.2121 34.8626 27.2315 34.9687 27.226C35.137 27.2305 35.3035 27.19 35.4508 27.1087C35.508 27.0832 35.557 27.0424 35.5925 26.9908C35.6279 26.9393 35.6484 26.8789 35.6517 26.8164L35.6507 24.3901Z" fill="white"/>
<path d="M40.2516 27.9854C40.2129 27.9874 40.1742 27.9806 40.1385 27.9654C40.1028 27.9503 40.071 27.9272 40.0456 27.898C39.9933 27.8355 39.9662 27.756 39.9693 27.6747C39.8672 27.7853 39.7448 27.8754 39.6088 27.9401C39.4069 28.0383 39.184 28.0853 38.9597 28.077C38.7749 28.0772 38.5913 28.0462 38.4168 27.9854C38.2393 27.9227 38.0793 27.8187 37.9501 27.6819C37.801 27.5198 37.6895 27.3269 37.6235 27.1169C37.5352 26.8337 37.4941 26.5378 37.5019 26.2413C37.4954 25.9381 37.5379 25.6358 37.6276 25.346C37.6966 25.1245 37.8102 24.9193 37.9614 24.7431C38.0929 24.5949 38.2564 24.4784 38.4394 24.4025C38.619 24.3294 38.8111 24.292 39.005 24.2924C39.1993 24.2851 39.3924 24.3253 39.5675 24.4097C39.688 24.4691 39.7982 24.5472 39.8941 24.6412V22.6388C39.9305 22.626 39.9689 22.6197 40.0075 22.6202C40.0858 22.6122 40.1646 22.6085 40.2434 22.6089C40.326 22.6089 40.4084 22.6165 40.4896 22.6316C40.5689 22.6452 40.6442 22.6761 40.7101 22.7221C40.7768 22.7725 40.8305 22.8382 40.8667 22.9135C40.911 23.0102 40.9319 23.116 40.9275 23.2222V27.9926L40.2516 27.9854ZM38.5662 26.1878C38.5647 26.3491 38.5774 26.5102 38.6043 26.6693C38.624 26.799 38.6676 26.924 38.733 27.0377C38.7916 27.1362 38.8756 27.2173 38.9762 27.2723C39.0962 27.3323 39.2295 27.3609 39.3636 27.3557C39.4948 27.3596 39.6246 27.3284 39.7396 27.2651C39.7871 27.2409 39.8269 27.2039 39.8544 27.1582C39.8818 27.1125 39.896 27.0601 39.8952 27.0068V25.3008C39.8325 25.2447 39.7633 25.1963 39.6891 25.1567C39.5833 25.0995 39.4643 25.0708 39.344 25.0734C39.2301 25.0656 39.1162 25.0877 39.0135 25.1376C38.9109 25.1874 38.8231 25.2632 38.7588 25.3574C38.6297 25.5481 38.5655 25.8249 38.5662 26.1878Z" fill="white"/>
<path d="M45.3244 26.1728C45.3251 26.4184 45.2932 26.663 45.2296 26.9003C45.1717 27.1257 45.0663 27.3361 44.9205 27.5176C44.7693 27.7 44.5783 27.8454 44.3621 27.9426C44.1023 28.0549 43.821 28.1094 43.5379 28.1021C43.2552 28.1099 42.9742 28.0569 42.7137 27.9467C42.5002 27.8522 42.3118 27.7092 42.1636 27.529C42.0198 27.3504 41.9146 27.144 41.8545 26.9229C41.7868 26.6887 41.7521 26.4463 41.7515 26.2026C41.7501 25.9543 41.7884 25.7073 41.8648 25.471C41.9366 25.2485 42.0514 25.0422 42.2027 24.8639C42.3582 24.6858 42.5519 24.5451 42.7694 24.4523C43.0213 24.3467 43.2926 24.2952 43.5658 24.301C43.8457 24.2935 44.1241 24.345 44.3827 24.4523C44.5947 24.5446 44.7818 24.6856 44.9288 24.8639C45.0726 25.0401 45.1779 25.2445 45.2378 25.4638C45.2981 25.6952 45.3272 25.9336 45.3244 26.1728ZM44.2838 26.18C44.2842 26.0443 44.2743 25.9087 44.254 25.7745C44.2372 25.6512 44.1988 25.5317 44.1406 25.4216C44.0871 25.323 44.0104 25.2389 43.9171 25.1767C43.8081 25.1093 43.6815 25.076 43.5534 25.081C43.4229 25.0775 43.2944 25.1134 43.1846 25.1839C43.0868 25.2483 43.0061 25.3355 42.9497 25.4381C42.889 25.5482 42.8466 25.6673 42.824 25.791C42.7983 25.9232 42.7856 26.0576 42.7859 26.1923C42.7858 26.3302 42.7971 26.4679 42.8199 26.6039C42.8406 26.7319 42.8805 26.8561 42.9383 26.9723C42.9914 27.0779 43.0709 27.1679 43.1691 27.2336C43.2789 27.3042 43.4074 27.34 43.5379 27.3365C43.6708 27.3405 43.8017 27.3047 43.914 27.2336C44.0125 27.1679 44.0924 27.0779 44.1458 26.9723C44.2032 26.8564 44.2415 26.732 44.2591 26.6039C44.2782 26.4634 44.2864 26.3217 44.2838 26.18Z" fill="white"/>
<path d="M46.5703 26.992C46.6539 26.9869 46.7375 27.0031 46.8132 27.0391C46.8889 27.0751 46.9542 27.1297 47.003 27.1978C47.1017 27.3429 47.1522 27.5154 47.1472 27.6907C47.1455 27.8373 47.1226 27.9829 47.0792 28.1229C47.0356 28.2685 46.9714 28.4071 46.8886 28.5345C46.813 28.6522 46.7183 28.7565 46.6084 28.8432C46.512 28.9226 46.3913 28.9666 46.2663 28.9677C46.1846 28.9687 46.1042 28.9466 46.0345 28.9039C45.9646 28.8582 45.9126 28.7899 45.8872 28.7105C46.0033 28.6541 46.108 28.577 46.1963 28.483C46.2987 28.3793 46.3596 28.2417 46.3673 28.0961C46.2871 28.0311 46.2146 27.9572 46.1509 27.8759C46.0715 27.7658 46.0326 27.6317 46.0407 27.4962C46.0431 27.3693 46.0901 27.2473 46.1736 27.1515C46.2231 27.0964 46.2846 27.0534 46.3534 27.0258C46.4222 26.9981 46.4963 26.9866 46.5703 26.992Z" fill="white"/>
<path d="M51.5408 27.3379C51.7311 27.3398 51.9188 27.2941 52.0869 27.2052C52.1521 27.1717 52.2132 27.131 52.2692 27.0838C52.3101 27.0504 52.3484 27.014 52.3836 26.9747C52.4182 27.0102 52.4486 27.0495 52.4742 27.092C52.5053 27.1406 52.5331 27.1911 52.5577 27.2432C52.5823 27.2932 52.6027 27.3452 52.6185 27.3986C52.6327 27.4429 52.6404 27.489 52.6411 27.5355C52.6414 27.5864 52.6312 27.6368 52.6113 27.6837C52.5808 27.7423 52.5366 27.7928 52.4825 27.8308C52.3556 27.9166 52.2168 27.9832 52.0704 28.0284C51.8515 28.0948 51.6233 28.1254 51.3946 28.1189C51.1948 28.117 50.996 28.0918 50.8022 28.0438C50.5863 27.9914 50.3842 27.8931 50.2098 27.7557C50.0147 27.5975 49.8589 27.3964 49.7544 27.1681C49.6211 26.8582 49.5588 26.5225 49.5721 26.1854C49.5592 25.8613 49.6242 25.5388 49.7616 25.2449C49.8663 25.0319 50.0159 24.844 50.2002 24.6941C50.3844 24.5442 50.5989 24.4358 50.829 24.3765C51.0136 24.3272 51.2035 24.3006 51.3946 24.2972C51.5903 24.2953 51.7856 24.3181 51.9756 24.3651C52.1296 24.4024 52.2767 24.4639 52.4114 24.5473C52.4911 24.5913 52.5611 24.6508 52.6174 24.7222C52.6556 24.7806 52.6754 24.849 52.6741 24.9187C52.6692 25.0099 52.646 25.0991 52.6061 25.1811C52.5606 25.2832 52.5017 25.3787 52.431 25.4651C52.3259 25.3615 52.2057 25.2744 52.0745 25.2069C51.9111 25.1174 51.7272 25.0716 51.5408 25.0741C51.2071 25.0741 50.9691 25.177 50.8269 25.3828C50.6775 25.6156 50.603 25.8885 50.6136 26.1649C50.6129 26.318 50.6281 26.4707 50.659 26.6207C50.6861 26.7535 50.739 26.8797 50.8145 26.9922C50.8876 27.0978 50.9856 27.1837 51.0999 27.2422C51.2368 27.3099 51.3882 27.3428 51.5408 27.3379Z" fill="white"/>
<path d="M56.7292 26.1737C56.7299 26.4193 56.698 26.6639 56.6344 26.9012C56.576 27.1264 56.4707 27.3368 56.3253 27.5186C56.1746 27.701 55.9839 27.8464 55.768 27.9436C55.2384 28.1527 54.6491 28.1527 54.1196 27.9436C53.9059 27.8488 53.7172 27.7058 53.5684 27.5258C53.4254 27.3467 53.3203 27.1405 53.2593 26.9197C53.1916 26.6856 53.1569 26.4431 53.1563 26.1994C53.1547 25.951 53.1934 25.7039 53.2706 25.4678C53.3425 25.2453 53.4573 25.039 53.6086 24.8607C53.7638 24.6829 53.9571 24.5422 54.1742 24.4491C54.4265 24.3436 54.6981 24.2921 54.9716 24.2978C55.2512 24.2903 55.5292 24.3419 55.7875 24.4491C55.9999 24.5411 56.1874 24.6822 56.3346 24.8607C56.478 25.0372 56.5832 25.2415 56.6437 25.4606C56.7039 25.6934 56.7327 25.9332 56.7292 26.1737ZM55.6886 26.1809C55.6885 26.0452 55.6785 25.9097 55.6587 25.7755C55.6416 25.652 55.6029 25.5326 55.5444 25.4225C55.49 25.323 55.4118 25.2385 55.3167 25.1766C55.2052 25.1129 55.0789 25.0794 54.9505 25.0794C54.822 25.0794 54.6957 25.1129 54.5842 25.1766C54.4864 25.2413 54.4055 25.3285 54.3483 25.4308C54.288 25.5409 54.2459 25.6601 54.2236 25.7837C54.198 25.9159 54.1852 26.0503 54.1855 26.185C54.1854 26.3229 54.1968 26.4606 54.2195 26.5966C54.2394 26.7247 54.279 26.849 54.337 26.965C54.39 27.0709 54.4699 27.161 54.5688 27.2264C54.6782 27.2967 54.8064 27.3326 54.9365 27.3293C55.0694 27.3334 55.2004 27.2976 55.3126 27.2264C55.4114 27.161 55.4913 27.0709 55.5444 26.965C55.6031 26.8497 55.6428 26.7256 55.6618 26.5976C55.6807 26.4595 55.6897 26.3203 55.6886 26.1809Z" fill="white"/>
<path d="M58.5883 27.9848H57.5488V24.3978L57.6395 24.3823C57.6704 24.3823 57.7054 24.3741 57.7425 24.371C57.7796 24.3679 57.8311 24.371 57.8867 24.371C58.032 24.3674 58.1761 24.397 58.3081 24.4575C58.3677 24.487 58.4193 24.5305 58.4584 24.5842C58.4975 24.638 58.523 24.7004 58.5327 24.7662C58.6396 24.6318 58.7742 24.522 58.9273 24.4441C59.1514 24.3349 59.3994 24.2839 59.6485 24.2959C59.9321 24.2959 60.1437 24.3463 60.2831 24.4472C60.4143 24.5386 60.5206 24.6613 60.5921 24.8042C60.7148 24.6595 60.8642 24.5397 61.0321 24.4513C61.253 24.3399 61.4987 24.2864 61.746 24.2959C62.1052 24.2959 62.3697 24.3717 62.5393 24.5233C62.7028 24.6627 62.8094 24.8571 62.8391 25.0697C62.8609 25.195 62.875 25.3214 62.8813 25.4484C62.8886 25.5852 62.8927 25.719 62.8927 25.8507V27.989H61.8624V25.897C61.8624 25.7859 61.8624 25.685 61.8542 25.5935C61.8515 25.5122 61.8322 25.4324 61.7975 25.3588C61.7646 25.2932 61.7116 25.2399 61.6461 25.2066C61.5563 25.1674 61.4586 25.1494 61.3607 25.1541C61.2302 25.1536 61.1016 25.1847 60.9857 25.2446C60.8875 25.2879 60.8023 25.356 60.7384 25.4422C60.7539 25.5909 60.7614 25.7403 60.7611 25.8898V27.99H59.7309V25.897C59.7309 25.7859 59.7309 25.682 59.7226 25.5883C59.7203 25.5026 59.6996 25.4184 59.6618 25.3414C59.6267 25.2734 59.5713 25.218 59.5032 25.1829C59.4064 25.1388 59.3003 25.119 59.1941 25.1253C59.0398 25.1188 58.8872 25.1601 58.7573 25.2436C58.7062 25.2735 58.6637 25.316 58.6338 25.3669C58.6038 25.4179 58.5875 25.4757 58.5863 25.5348L58.5883 27.9848Z" fill="white"/>
<path d="M68.5655 27.1049C68.5655 27.4994 68.6239 27.7902 68.7406 27.9775C68.6583 28.0101 68.5731 28.0353 68.4862 28.0526C68.4047 28.0685 68.3219 28.0764 68.2389 28.0763C68.094 28.0872 67.9495 28.0511 67.8268 27.9734C67.7307 27.899 67.6666 27.7908 67.6476 27.6709C67.5215 27.7969 67.3721 27.8972 67.2076 27.9662C66.9957 28.0529 66.7679 28.0943 66.539 28.0876C66.3997 28.0876 66.2611 28.0686 66.1269 28.031C65.992 27.9938 65.8656 27.9305 65.755 27.8448C65.6385 27.7525 65.5451 27.6345 65.482 27.5C65.4077 27.3346 65.3725 27.1544 65.379 26.9732C65.3687 26.7485 65.434 26.5268 65.5644 26.3434C65.6891 26.1819 65.8491 26.051 66.0321 25.9607C66.2233 25.8655 66.4279 25.8002 66.639 25.7672C66.8374 25.7336 67.0376 25.7106 67.2386 25.6983C67.2993 25.6983 67.3591 25.6911 67.4178 25.6911H67.5806V25.5542C67.5886 25.4782 67.5787 25.4015 67.5517 25.33C67.5247 25.2585 67.4813 25.1944 67.425 25.1426C67.3213 25.0624 67.153 25.0222 66.9202 25.0222C66.7216 25.0176 66.5241 25.0526 66.3392 25.1251C66.1687 25.1959 66.0025 25.2767 65.8415 25.3669C65.7709 25.2814 65.7136 25.1856 65.6716 25.0829C65.6362 25.0103 65.6142 24.9318 65.6067 24.8514C65.61 24.8106 65.6223 24.7711 65.6426 24.7355C65.6629 24.7 65.6907 24.6693 65.7241 24.6456C65.8207 24.5674 65.9297 24.5058 66.0466 24.4635C66.1993 24.4064 66.3569 24.3634 66.5174 24.3349C66.703 24.3012 66.8913 24.2846 67.0799 24.2855C67.3141 24.2806 67.5479 24.3086 67.7743 24.3688C67.9477 24.4155 68.107 24.5042 68.2379 24.6271C68.3588 24.7478 68.4465 24.8978 68.4923 25.0624C68.5458 25.2616 68.5711 25.4673 68.5676 25.6736L68.5655 27.1049ZM67.594 26.2251H67.491C67.4565 26.2255 67.422 26.2282 67.3879 26.2333C67.2622 26.2436 67.1366 26.2601 67.0129 26.2827C66.8983 26.301 66.7869 26.3357 66.6822 26.3856C66.5898 26.4308 66.5094 26.4971 66.4473 26.5791C66.3837 26.6691 66.3514 26.7776 66.3556 26.8878C66.3517 27.0185 66.3948 27.1463 66.4772 27.2479C66.5586 27.3508 66.6946 27.3961 66.8893 27.3961C66.9816 27.3963 67.0736 27.3835 67.1623 27.358C67.2424 27.334 67.319 27.2994 67.39 27.2551C67.4497 27.2205 67.5027 27.1756 67.5466 27.1224C67.5793 27.0854 67.5992 27.0389 67.6033 26.9897L67.594 26.2251Z" fill="white"/>
<path d="M70.5771 27.9848H69.5376V24.3978L69.6283 24.3823C69.6592 24.3823 69.6942 24.3741 69.7313 24.371C69.7684 24.3679 69.8199 24.371 69.8755 24.371C70.0207 24.3674 70.1648 24.397 70.2969 24.4575C70.3565 24.487 70.4081 24.5305 70.4472 24.5842C70.4863 24.638 70.5118 24.7004 70.5215 24.7662C70.6284 24.6318 70.763 24.522 70.9161 24.4441C71.1401 24.3349 71.3882 24.2839 71.6372 24.2959C71.9209 24.2959 72.1321 24.3463 72.2708 24.4472C72.4022 24.5384 72.5085 24.6612 72.5799 24.8042C72.7025 24.6595 72.8519 24.5397 73.0198 24.4513C73.2407 24.3399 73.4864 24.2864 73.7338 24.2959C74.093 24.2959 74.3574 24.3717 74.527 24.5233C74.6905 24.6627 74.7972 24.8571 74.8268 25.0697C74.8486 25.195 74.8627 25.3214 74.8691 25.4484C74.8763 25.5852 74.8804 25.719 74.8804 25.8507V27.989H73.8502V25.897C73.8502 25.7859 73.8502 25.685 73.8419 25.5935C73.8392 25.5122 73.82 25.4324 73.7853 25.3588C73.7524 25.2932 73.6993 25.2399 73.6338 25.2066C73.544 25.1674 73.4463 25.1494 73.3484 25.1541C73.218 25.1536 73.0893 25.1847 72.9734 25.2446C72.8752 25.2879 72.79 25.356 72.7262 25.4422C72.7416 25.5909 72.7492 25.7403 72.7488 25.8898V27.99H71.7186V25.897C71.7186 25.7859 71.7186 25.682 71.7104 25.5883C71.7081 25.5026 71.6873 25.4184 71.6496 25.3414C71.6145 25.2734 71.559 25.218 71.4909 25.1829C71.3942 25.1388 71.288 25.119 71.1819 25.1253C71.0275 25.1188 70.8749 25.1601 70.745 25.2436C70.6938 25.2733 70.6512 25.3158 70.6213 25.3668C70.5913 25.4178 70.575 25.4757 70.574 25.5348L70.5771 27.9848Z" fill="white"/>
<path d="M79.2794 26.1728C79.2802 26.4184 79.2483 26.663 79.1847 26.9003C79.1268 27.1257 79.0214 27.3361 78.8756 27.5176C78.7244 27.7 78.5334 27.8454 78.3172 27.9426C78.0573 28.0549 77.7761 28.1094 77.493 28.1021C77.2103 28.1099 76.9292 28.0569 76.6688 27.9467C76.4555 27.8519 76.2672 27.7089 76.1187 27.529C75.9749 27.3504 75.8697 27.144 75.8096 26.9229C75.7419 26.6887 75.7072 26.4463 75.7066 26.2026C75.7052 25.9543 75.7434 25.7073 75.8199 25.471C75.8917 25.2485 76.0065 25.0422 76.1578 24.8639C76.3131 24.6861 76.5064 24.5454 76.7234 24.4523C76.9757 24.3468 77.2474 24.2952 77.5208 24.301C77.8008 24.2935 78.0792 24.345 78.3378 24.4523C78.5497 24.5446 78.7368 24.6856 78.8838 24.8639C79.0276 25.0401 79.1329 25.2445 79.1929 25.4638C79.2531 25.6952 79.2822 25.9336 79.2794 26.1728ZM78.2389 26.18C78.2393 26.0443 78.2293 25.9087 78.209 25.7745C78.1919 25.6511 78.1532 25.5316 78.0947 25.4216C78.0406 25.3219 77.9623 25.2373 77.867 25.1757C77.758 25.1083 77.6314 25.0749 77.5033 25.08C77.3728 25.0765 77.2443 25.1124 77.1345 25.1829C77.0367 25.2473 76.9561 25.3345 76.8996 25.437C76.8389 25.5471 76.7965 25.6663 76.7739 25.79C76.7483 25.9222 76.7355 26.0566 76.7358 26.1913C76.7357 26.3292 76.7471 26.4668 76.7698 26.6029C76.79 26.731 76.83 26.8553 76.8883 26.9713C76.9413 27.0768 77.0208 27.1669 77.119 27.2326C77.2288 27.3031 77.3574 27.339 77.4879 27.3355C77.6207 27.3395 77.7516 27.3036 77.8639 27.2326C77.9624 27.1672 78.042 27.077 78.0947 26.9713C78.1525 26.8554 78.1911 26.731 78.209 26.6029C78.2298 26.4629 78.2397 26.3215 78.2389 26.18Z" fill="white"/>
<path d="M81.0858 24.7558C81.1231 24.7014 81.1651 24.6505 81.2115 24.6035C81.2668 24.5456 81.3291 24.4948 81.3969 24.4522C81.4719 24.405 81.5521 24.3667 81.6359 24.338C81.7279 24.3074 81.8243 24.2921 81.9213 24.2927C81.9861 24.2931 82.0509 24.2982 82.115 24.3082C82.1806 24.3176 82.2445 24.3367 82.3045 24.3648C82.3601 24.3905 82.4082 24.4298 82.4446 24.479C82.4818 24.5307 82.5007 24.5934 82.4982 24.657C82.4977 24.7184 82.4901 24.7795 82.4756 24.8391C82.4595 24.9089 82.4392 24.9776 82.4148 25.0449C82.389 25.1129 82.3622 25.1787 82.3354 25.2425C82.3092 25.3006 82.28 25.3572 82.2479 25.4123C82.1693 25.3469 82.0823 25.2922 81.9893 25.2497C81.8915 25.2091 81.7861 25.1898 81.6802 25.1931C81.5365 25.1886 81.3961 25.2369 81.2856 25.3289C81.2362 25.3678 81.1961 25.4173 81.1684 25.4738C81.1408 25.5303 81.1263 25.5923 81.1259 25.6551V27.991H80.0957V24.3987L80.1864 24.3833C80.2173 24.3833 80.2523 24.3751 80.2894 24.372C80.3265 24.3689 80.378 24.372 80.4336 24.372C80.5798 24.3681 80.7246 24.4006 80.855 24.4666C80.9129 24.4942 80.9637 24.5346 81.0037 24.5847C81.0437 24.6348 81.0717 24.6933 81.0858 24.7558Z" fill="white"/>
</g>
<defs>
<clipPath id="clip0_4732_44560">
<rect width="97" height="28.9436" fill="white" transform="translate(0 0.0273438)"/>
</clipPath>
</defs>
</svg>
