<svg width="16" height="13" viewBox="0 0 16 13" fill="none" xmlns="http://www.w3.org/2000/svg">
<path d="M4.49524 12.1905C3.92381 12.1905 3.41905 11.9778 2.98095 11.5524C2.54286 11.127 2.30476 10.6095 2.26667 10C1.79683 9.70794 1.43175 9.33651 1.17143 8.88571C0.911111 8.43492 0.780952 7.94286 0.780952 7.40952C0.780952 6.74921 0.974603 6.15556 1.3619 5.62857C1.74921 5.10159 2.26032 4.76825 2.89524 4.62857L1.35238 3.00952L0.990476 3.39048C0.87619 3.51746 0.739683 3.58095 0.580952 3.58095C0.422222 3.58095 0.285714 3.51746 0.171429 3.39048C0.0571429 3.27619 0 3.14286 0 2.99048C0 2.8381 0.0571429 2.69841 0.171429 2.57143L1.71429 0.971429C1.82857 0.857143 1.96508 0.8 2.12381 0.8C2.28254 0.8 2.41905 0.857143 2.53333 0.971429C2.64762 1.09841 2.70476 1.2381 2.70476 1.39048C2.70476 1.54286 2.64762 1.67619 2.53333 1.79048L2.17143 2.19048L3.54286 3.65714L4.28571 1.42857C4.4254 1.00952 4.66984 0.666667 5.01905 0.4C5.36825 0.133333 5.75873 0 6.19048 0H10.6095C11.0413 0 11.4349 0.133333 11.7905 0.4C12.146 0.666667 12.3873 1.00952 12.5143 1.42857L13.4667 4.59048C14.1905 4.65397 14.7937 4.94921 15.2762 5.47619C15.7587 6.00317 16 6.64762 16 7.40952C16 7.94286 15.8698 8.43492 15.6095 8.88571C15.3492 9.33651 14.9841 9.70794 14.5143 10C14.4762 10.6095 14.2381 11.127 13.8 11.5524C13.3619 11.9778 12.8571 12.1905 12.2857 12.1905C11.7524 12.1905 11.2857 12.0063 10.8857 11.6381C10.4857 11.2698 10.2349 10.819 10.1333 10.2857H6.64762C6.54603 10.819 6.29524 11.2698 5.89524 11.6381C5.49524 12.0063 5.02857 12.1905 4.49524 12.1905ZM4.45714 4.55238H7.79048V1.14286H6.19048C6 1.14286 5.83492 1.20317 5.69524 1.32381C5.55556 1.44444 5.45397 1.59365 5.39048 1.77143L4.45714 4.55238ZM8.93333 4.55238H12.2667L11.4095 1.77143C11.346 1.59365 11.2444 1.44444 11.1048 1.32381C10.9651 1.20317 10.8 1.14286 10.6095 1.14286H8.93333V4.55238ZM6.64762 9.14286H10.1333C10.273 8.68571 10.546 8.31746 10.9524 8.0381C11.3587 7.75873 11.8032 7.61905 12.2857 7.61905C12.6921 7.61905 13.0667 7.72698 13.4095 7.94286C13.7524 8.15873 14.0317 8.4381 14.2476 8.78095C14.4635 8.61587 14.619 8.40952 14.7143 8.1619C14.8095 7.91429 14.8571 7.66349 14.8571 7.40952C14.8571 6.92698 14.6921 6.52064 14.3619 6.19048C14.0317 5.86032 13.6254 5.69524 13.1429 5.69524H3.6381C3.15556 5.69524 2.74921 5.86032 2.41905 6.19048C2.08889 6.52064 1.92381 6.92698 1.92381 7.40952C1.92381 7.66349 1.9746 7.91429 2.07619 8.1619C2.17778 8.40952 2.33016 8.61587 2.53333 8.78095C2.73651 8.4127 3.0127 8.12698 3.3619 7.92381C3.71111 7.72063 4.08889 7.61905 4.49524 7.61905C4.97778 7.61905 5.42222 7.75873 5.82857 8.0381C6.23492 8.31746 6.50794 8.68571 6.64762 9.14286V9.14286ZM4.49524 11.0476C4.8254 11.0476 5.09841 10.9365 5.31429 10.7143C5.53016 10.4921 5.6381 10.2222 5.6381 9.90476C5.6381 9.5746 5.53016 9.30159 5.31429 9.08571C5.09841 8.86984 4.8254 8.7619 4.49524 8.7619C4.17778 8.7619 3.90794 8.86984 3.68571 9.08571C3.46349 9.30159 3.35238 9.5746 3.35238 9.90476C3.35238 10.2222 3.46349 10.4921 3.68571 10.7143C3.90794 10.9365 4.17778 11.0476 4.49524 11.0476V11.0476ZM12.2857 11.0476C12.6159 11.0476 12.8889 10.9365 13.1048 10.7143C13.3206 10.4921 13.4286 10.2222 13.4286 9.90476C13.4286 9.5746 13.3206 9.30159 13.1048 9.08571C12.8889 8.86984 12.6159 8.7619 12.2857 8.7619C11.9683 8.7619 11.6984 8.86984 11.4762 9.08571C11.254 9.30159 11.1429 9.5746 11.1429 9.90476C11.1429 10.2222 11.254 10.4921 11.4762 10.7143C11.6984 10.9365 11.9683 11.0476 12.2857 11.0476Z" fill="#828282"/>
</svg>
