<svg width="14" height="14" viewBox="0 0 14 14" fill="none" xmlns="http://www.w3.org/2000/svg">
<path d="M2.00016 10.2999H3.06683V9.24992H10.9335V10.2999H12.0002V7.36658C12.0002 7.16658 11.9252 6.9527 11.7752 6.72492C11.6252 6.49714 11.4335 6.32214 11.2002 6.19992V5.06659C11.2002 4.71103 11.0974 4.43047 10.8918 4.22492C10.6863 4.01936 10.4057 3.91659 10.0502 3.91659H7.7835C7.60572 3.91659 7.45016 3.94436 7.31683 3.99992C7.1835 4.05547 7.07238 4.13881 6.9835 4.24992C6.89461 4.13881 6.7835 4.05547 6.65016 3.99992C6.51683 3.94436 6.36127 3.91659 6.1835 3.91659H3.95016C3.59461 3.91659 3.31405 4.01936 3.1085 4.22492C2.90294 4.43047 2.80016 4.71103 2.80016 5.06659V6.19992C2.56683 6.32214 2.37516 6.49714 2.22516 6.72492C2.07516 6.9527 2.00016 7.16658 2.00016 7.36658V10.2999ZM3.06683 8.41658V7.71658C3.06683 7.50547 3.12516 7.34158 3.24183 7.22492C3.3585 7.10825 3.52238 7.04992 3.7335 7.04992H10.2668C10.4779 7.04992 10.6418 7.10825 10.7585 7.22492C10.8752 7.34158 10.9335 7.50547 10.9335 7.71658V8.41658H3.06683ZM3.6335 6.21658V4.74992H6.5835V6.21658H3.6335ZM7.41683 6.21658V4.74992H10.3668V6.21658H7.41683ZM1.3335 13.6666C1.06683 13.6666 0.833496 13.5666 0.633496 13.3666C0.433496 13.1666 0.333496 12.9333 0.333496 12.6666V1.33325C0.333496 1.06659 0.433496 0.833252 0.633496 0.633252C0.833496 0.433252 1.06683 0.333252 1.3335 0.333252H12.6668C12.9335 0.333252 13.1668 0.433252 13.3668 0.633252C13.5668 0.833252 13.6668 1.06659 13.6668 1.33325V12.6666C13.6668 12.9333 13.5668 13.1666 13.3668 13.3666C13.1668 13.5666 12.9335 13.6666 12.6668 13.6666H1.3335ZM1.3335 12.6666H12.6668V1.33325H1.3335V12.6666ZM1.3335 12.6666V1.33325V12.6666Z" fill="#828282"/>
</svg>
