<svg width="16" height="16" viewBox="0 0 16 16" fill="none" xmlns="http://www.w3.org/2000/svg">
	<path d="M4.76 13.74H5.76V8.18C6.14667 8.12667 6.47667 7.95 6.75 7.65C7.02333 7.35 7.16 7.00667 7.16 6.62V3.54C7.16 3.40667 7.11333 3.29667 7.02 3.21C6.92667 3.12333 6.81333 3.08 6.68 3.08C6.54667 3.08 6.43667 3.12333 6.35 3.21C6.26333 3.29667 6.22 3.40667 6.22 3.54V5.94H5.78V3.54C5.78 3.40667 5.73667 3.29667 5.65 3.21C5.56333 3.12333 5.45333 3.08 5.32 3.08C5.18667 3.08 5.07667 3.12333 4.99 3.21C4.90333 3.29667 4.86 3.40667 4.86 3.54V5.94H4.28V3.54C4.28 3.40667 4.23667 3.29667 4.15 3.21C4.06333 3.12333 3.95333 3.08 3.82 3.08C3.68667 3.08 3.57667 3.12333 3.49 3.21C3.40333 3.29667 3.36 3.40667 3.36 3.54V6.62C3.36 7.00667 3.49333 7.35 3.76 7.65C4.02667 7.95 4.36 8.12667 4.76 8.18V13.74ZM9.82 13.74H10.82V8.42C11.2867 8.23333 11.6533 7.9 11.92 7.42C12.1867 6.94 12.32 6.38 12.32 5.74C12.32 4.98 12.1367 4.34667 11.77 3.84C11.4033 3.33333 10.94 3.08 10.38 3.08C9.82 3.08 9.36 3.33333 9 3.84C8.64 4.34667 8.46 4.98 8.46 5.74C8.46 6.42 8.58 6.99333 8.82 7.46C9.06 7.92667 9.39333 8.24667 9.82 8.42V13.74ZM1.2 16C0.88 16 0.6 15.88 0.36 15.64C0.12 15.4 0 15.12 0 14.8V1.2C0 0.88 0.12 0.6 0.36 0.36C0.6 0.12 0.88 0 1.2 0H14.8C15.12 0 15.4 0.12 15.64 0.36C15.88 0.6 16 0.88 16 1.2V14.8C16 15.12 15.88 15.4 15.64 15.64C15.4 15.88 15.12 16 14.8 16H1.2ZM1.2 14.8H14.8V1.2H1.2V14.8ZM1.2 14.8V1.2V14.8Z" fill="#828282" />
</svg>
