<svg width="16" height="14" viewBox="0 0 16 14" fill="none" xmlns="http://www.w3.org/2000/svg">
<path d="M2.78182 13.0909C2.63636 13.0909 2.50909 13.0364 2.4 12.9273C2.29091 12.8182 2.23636 12.6909 2.23636 12.5455V11.7818H2C1.44242 11.7818 0.969697 11.5879 0.581818 11.2C0.193939 10.8121 0 10.3394 0 9.78182V5.34545C0 4.72727 0.187879 4.25758 0.563636 3.93636C0.939394 3.61515 1.38182 3.45455 1.89091 3.45455V1.89091C1.89091 1.33333 2.06667 0.878788 2.41818 0.527273C2.7697 0.175758 3.22424 0 3.78182 0H12.2364C12.7939 0 13.2455 0.175758 13.5909 0.527273C13.9364 0.878788 14.1091 1.33333 14.1091 1.89091V3.45455C14.6182 3.45455 15.0606 3.61515 15.4364 3.93636C15.8121 4.25758 16 4.72727 16 5.34545V9.78182C16 10.3394 15.8061 10.8121 15.4182 11.2C15.0303 11.5879 14.5576 11.7818 14 11.7818H13.7636V12.5455C13.7636 12.6909 13.7091 12.8182 13.6 12.9273C13.4909 13.0364 13.3636 13.0909 13.2182 13.0909C13.0727 13.0909 12.9455 13.0364 12.8364 12.9273C12.7273 12.8182 12.6727 12.6909 12.6727 12.5455V11.7818H3.32727V12.5455C3.32727 12.6909 3.27273 12.8182 3.16364 12.9273C3.05455 13.0364 2.92727 13.0909 2.78182 13.0909V13.0909ZM2 10.6909H14C14.2424 10.6909 14.4545 10.6 14.6364 10.4182C14.8182 10.2364 14.9091 10.0242 14.9091 9.78182V5.34545C14.9091 5.10303 14.8364 4.90909 14.6909 4.76364C14.5455 4.61818 14.3515 4.54545 14.1091 4.54545C13.8667 4.54545 13.6727 4.61818 13.5273 4.76364C13.3818 4.90909 13.3091 5.10303 13.3091 5.34545V8.54545H2.69091V5.34545C2.69091 5.10303 2.61818 4.90909 2.47273 4.76364C2.32727 4.61818 2.13333 4.54545 1.89091 4.54545C1.64848 4.54545 1.45455 4.61818 1.30909 4.76364C1.16364 4.90909 1.09091 5.10303 1.09091 5.34545V9.78182C1.09091 10.0242 1.18182 10.2364 1.36364 10.4182C1.54545 10.6 1.75758 10.6909 2 10.6909V10.6909ZM3.78182 7.45455H12.2182V5.34545C12.2182 4.9697 12.303 4.65758 12.4727 4.40909C12.6424 4.16061 12.8242 3.96364 13.0182 3.81818V1.89091C13.0182 1.64848 12.9455 1.45455 12.8 1.30909C12.6545 1.16364 12.4606 1.09091 12.2182 1.09091H3.78182C3.53939 1.09091 3.34545 1.16364 3.2 1.30909C3.05455 1.45455 2.98182 1.64848 2.98182 1.89091V3.81818C3.17576 3.96364 3.35758 4.16061 3.52727 4.40909C3.69697 4.65758 3.78182 4.9697 3.78182 5.34545V7.45455Z" fill="#828282"/>
</svg>
