<svg width="16" height="15" viewBox="0 0 16 15" fill="none" xmlns="http://www.w3.org/2000/svg">
<path d="M4 8.66C4.18667 8.66 4.34333 8.59667 4.47 8.47C4.59667 8.34333 4.66 8.18667 4.66 8C4.66 7.81333 4.59667 7.65667 4.47 7.53C4.34333 7.40333 4.18667 7.34 4 7.34C3.81333 7.34 3.65667 7.40333 3.53 7.53C3.40333 7.65667 3.34 7.81333 3.34 8C3.34 8.18667 3.40333 8.34333 3.53 8.47C3.65667 8.59667 3.81333 8.66 4 8.66V8.66ZM4 5.46C4.18667 5.46 4.34333 5.39667 4.47 5.27C4.59667 5.14333 4.66 4.98667 4.66 4.8C4.66 4.61333 4.59667 4.45667 4.47 4.33C4.34333 4.20333 4.18667 4.14 4 4.14C3.81333 4.14 3.65667 4.20333 3.53 4.33C3.40333 4.45667 3.34 4.61333 3.34 4.8C3.34 4.98667 3.40333 5.14333 3.53 5.27C3.65667 5.39667 3.81333 5.46 4 5.46V5.46ZM5.6 8.6H12.8V7.4H5.6V8.6ZM5.6 5.4H12.8V4.2H5.6V5.4ZM5 14.4V12.8H1.2C0.88 12.8 0.6 12.68 0.36 12.44C0.12 12.2 0 11.92 0 11.6V1.2C0 0.88 0.12 0.6 0.36 0.36C0.6 0.12 0.88 0 1.2 0H14.8C15.12 0 15.4 0.12 15.64 0.36C15.88 0.6 16 0.88 16 1.2V11.6C16 11.92 15.88 12.2 15.64 12.44C15.4 12.68 15.12 12.8 14.8 12.8H11V14.4H5ZM1.2 11.6H14.8V1.2H1.2V11.6ZM1.2 11.6V1.2V11.6Z" fill="#828282"/>
</svg>
