<svg width="16" height="14" viewBox="0 0 16 14" fill="none" xmlns="http://www.w3.org/2000/svg">
<path d="M3.04762 12.5714H8V11.2381H3.04762V12.5714ZM3.42857 5.14286H7.2381C7.33968 5.14286 7.42857 5.10476 7.50476 5.02857C7.58095 4.95238 7.61905 4.86349 7.61905 4.7619C7.61905 4.66032 7.58095 4.57143 7.50476 4.49524C7.42857 4.41905 7.33968 4.38095 7.2381 4.38095H3.42857C3.32698 4.38095 3.2381 4.41905 3.1619 4.49524C3.08571 4.57143 3.04762 4.66032 3.04762 4.7619C3.04762 4.86349 3.08571 4.95238 3.1619 5.02857C3.2381 5.10476 3.32698 5.14286 3.42857 5.14286ZM3.42857 3.2381H7.2381C7.33968 3.2381 7.42857 3.2 7.50476 3.12381C7.58095 3.04762 7.61905 2.95873 7.61905 2.85714C7.61905 2.75556 7.58095 2.66667 7.50476 2.59048C7.42857 2.51429 7.33968 2.47619 7.2381 2.47619H3.42857C3.32698 2.47619 3.2381 2.51429 3.1619 2.59048C3.08571 2.66667 3.04762 2.75556 3.04762 2.85714C3.04762 2.95873 3.08571 3.04762 3.1619 3.12381C3.2381 3.2 3.32698 3.2381 3.42857 3.2381ZM10.6667 6.09524V4.95238H12.5714V2.66667H10.6667V1.52381H12.5714C12.8889 1.52381 13.1587 1.63492 13.381 1.85714C13.6032 2.07937 13.7143 2.34921 13.7143 2.66667V3.2381H15.4286C15.5937 3.2381 15.7302 3.29206 15.8381 3.4C15.946 3.50794 16 3.64444 16 3.80952C16 3.9619 15.946 4.09524 15.8381 4.20952C15.7302 4.32381 15.5937 4.38095 15.4286 4.38095H13.7143V4.95238C13.7143 5.26984 13.6032 5.53968 13.381 5.7619C13.1587 5.98413 12.8889 6.09524 12.5714 6.09524H10.6667ZM7.61905 10.0952H6.47619V6.47619H9.52381V1.14286H3.04762C2.51429 1.14286 2.06349 1.32698 1.69524 1.69524C1.32698 2.06349 1.14286 2.51429 1.14286 3.04762V4.57143C1.14286 5.10476 1.32698 5.55556 1.69524 5.92381C2.06349 6.29206 2.51429 6.47619 3.04762 6.47619H4.57143V10.0952H3.42857V7.61905H3.04762C2.20952 7.61905 1.49206 7.32063 0.895238 6.72381C0.298413 6.12698 0 5.40952 0 4.57143V3.04762C0 2.20952 0.298413 1.49206 0.895238 0.895238C1.49206 0.298413 2.20952 0 3.04762 0H9.52381C9.84127 0 10.1111 0.111111 10.3333 0.333333C10.5556 0.555556 10.6667 0.825397 10.6667 1.14286V6.47619C10.6667 6.79365 10.5556 7.06349 10.3333 7.28571C10.1111 7.50794 9.84127 7.61905 9.52381 7.61905H7.61905V10.0952ZM2.7619 13.7143C2.52063 13.7143 2.31746 13.6317 2.15238 13.4667C1.9873 13.3016 1.90476 13.0984 1.90476 12.8571V10.9524C1.90476 10.7111 1.9873 10.5079 2.15238 10.3429C2.31746 10.1778 2.52063 10.0952 2.7619 10.0952H8.28571C8.52698 10.0952 8.73016 10.1778 8.89524 10.3429C9.06032 10.5079 9.14286 10.7111 9.14286 10.9524V12.8571C9.14286 13.0984 9.06032 13.3016 8.89524 13.4667C8.73016 13.6317 8.52698 13.7143 8.28571 13.7143H2.7619ZM8 12.5714H3.04762H8Z" fill="#828282"/>
</svg>
